<svg width="313" height="56" viewBox="0 0 313 56" fill="none" xmlns="http://www.w3.org/2000/svg">
<g filter="url(#filter0_dd_238_5678)">
<rect x="3" y="3" width="307" height="48.0522" rx="8.89855" fill="white"/>
<rect x="48.8555" y="2.97388" width="215.4" height="48.0522" rx="8.89855" fill="white"/>
<rect width="21.3565" height="21.3565" transform="translate(62.2031 16.3215)" fill="white"/>
<path fill-rule="evenodd" clip-rule="evenodd" d="M82.7058 27.2323C82.7058 26.5067 82.6407 25.809 82.5198 25.1392H72.8818V29.0976H78.3892C78.152 30.3768 77.431 31.4606 76.3472 32.1862V34.7538H79.6544C81.5895 32.9723 82.7058 30.3489 82.7058 27.2323Z" fill="#4285F4"/>
<path fill-rule="evenodd" clip-rule="evenodd" d="M72.8812 37.2333C75.6442 37.2333 77.9607 36.317 79.6538 34.7541L76.3466 32.1864C75.4302 32.8004 74.2581 33.1633 72.8812 33.1633C70.2159 33.1633 67.9599 31.3631 67.1552 28.9443H63.7363V31.5957C65.4202 34.9401 68.8809 37.2333 72.8812 37.2333Z" fill="#34A853"/>
<path fill-rule="evenodd" clip-rule="evenodd" d="M67.1558 28.9441C66.9511 28.3301 66.8348 27.6742 66.8348 26.9997C66.8348 26.3253 66.9511 25.6694 67.1558 25.0554V22.4041H63.7369C63.0438 23.7856 62.6484 25.3485 62.6484 26.9997C62.6484 28.651 63.0438 30.2139 63.7369 31.5954L67.1558 28.9441Z" fill="#FBBC05"/>
<path fill-rule="evenodd" clip-rule="evenodd" d="M72.8812 20.8364C74.3836 20.8364 75.7326 21.3528 76.7931 22.3668L79.7282 19.4317C77.956 17.7804 75.6396 16.7664 72.8812 16.7664C68.8809 16.7664 65.4202 19.0596 63.7363 22.404L67.1552 25.0554C67.9599 22.6366 70.2159 20.8364 72.8812 20.8364Z" fill="#EA4335"/>
<path d="M104.85 30.0628C104.85 29.8021 104.809 29.5704 104.728 29.3676C104.653 29.1648 104.517 28.9794 104.32 28.8114C104.123 28.6434 103.845 28.4812 103.486 28.3248C103.132 28.1626 102.68 27.9975 102.13 27.8295C101.527 27.6441 100.971 27.4384 100.461 27.2125C99.9574 26.9807 99.5171 26.7142 99.1406 26.413C98.764 26.1059 98.4714 25.7554 98.2629 25.3615C98.0543 24.9618 97.95 24.5012 97.95 23.9798C97.95 23.4642 98.0572 22.9949 98.2716 22.572C98.4917 22.1491 98.8016 21.7841 99.2014 21.4771C99.6069 21.1642 100.085 20.9238 100.635 20.7558C101.186 20.582 101.794 20.4951 102.46 20.4951C103.399 20.4951 104.207 20.6689 104.885 21.0165C105.568 21.3641 106.093 21.8305 106.458 22.4156C106.828 23.0007 107.014 23.6467 107.014 24.3535H104.85C104.85 23.9363 104.76 23.5685 104.58 23.2498C104.407 22.9254 104.14 22.6705 103.781 22.4851C103.428 22.2997 102.979 22.207 102.434 22.207C101.918 22.207 101.49 22.2852 101.148 22.4417C100.806 22.5981 100.551 22.8095 100.383 23.076C100.215 23.3425 100.131 23.6438 100.131 23.9798C100.131 24.2173 100.186 24.4346 100.296 24.6315C100.406 24.8227 100.574 25.0023 100.8 25.1703C101.026 25.3325 101.31 25.4861 101.652 25.6309C101.994 25.7757 102.396 25.9148 102.86 26.048C103.561 26.2566 104.172 26.4883 104.693 26.7432C105.215 26.9923 105.649 27.2762 105.997 27.5948C106.345 27.9135 106.605 28.2755 106.779 28.6811C106.953 29.0808 107.04 29.5356 107.04 30.0454C107.04 30.5784 106.933 31.0592 106.718 31.4879C106.504 31.9109 106.197 32.2729 105.797 32.5742C105.403 32.8697 104.928 33.0985 104.372 33.2607C103.822 33.4171 103.207 33.4953 102.53 33.4953C101.921 33.4953 101.322 33.4142 100.731 33.252C100.146 33.0898 99.6127 32.8436 99.1319 32.5134C98.651 32.1774 98.2687 31.7602 97.9848 31.262C97.7009 30.758 97.559 30.17 97.559 29.4979H99.7402C99.7402 29.9093 99.8097 30.2598 99.9487 30.5494C100.094 30.8391 100.293 31.0766 100.548 31.262C100.803 31.4416 101.099 31.5748 101.435 31.6617C101.777 31.7486 102.141 31.7921 102.53 31.7921C103.039 31.7921 103.465 31.7197 103.807 31.5748C104.155 31.43 104.415 31.2272 104.589 30.9665C104.763 30.7058 104.85 30.4046 104.85 30.0628ZM111.002 23.919V33.3215H108.899V23.919H111.002ZM108.76 21.451C108.76 21.1324 108.865 20.8688 109.073 20.6602C109.288 20.4459 109.583 20.3387 109.96 20.3387C110.33 20.3387 110.623 20.4459 110.837 20.6602C111.052 20.8688 111.159 21.1324 111.159 21.451C111.159 21.7638 111.052 22.0245 110.837 22.2331C110.623 22.4417 110.33 22.5459 109.96 22.5459C109.583 22.5459 109.288 22.4417 109.073 22.2331C108.865 22.0245 108.76 21.7638 108.76 21.451ZM119.319 23.919H121.222V33.0608C121.222 33.9067 121.042 34.625 120.683 35.216C120.324 35.8069 119.823 36.2559 119.18 36.5629C118.537 36.8757 117.792 37.0322 116.946 37.0322C116.587 37.0322 116.187 36.98 115.747 36.8757C115.313 36.7715 114.89 36.6035 114.478 36.3717C114.073 36.1458 113.734 35.8474 113.462 35.4767L114.444 34.2427C114.78 34.6424 115.15 34.935 115.556 35.1204C115.961 35.3057 116.387 35.3984 116.833 35.3984C117.314 35.3984 117.723 35.3086 118.059 35.1291C118.4 34.9553 118.664 34.6974 118.849 34.3556C119.035 34.0138 119.128 33.5967 119.128 33.1043V26.048L119.319 23.919ZM112.932 28.7245V28.542C112.932 27.8295 113.018 27.1806 113.192 26.5955C113.366 26.0046 113.615 25.4976 113.94 25.0747C114.264 24.646 114.658 24.3187 115.121 24.0928C115.585 23.861 116.109 23.7452 116.694 23.7452C117.303 23.7452 117.821 23.8552 118.25 24.0754C118.684 24.2955 119.046 24.6113 119.336 25.0226C119.626 25.4281 119.852 25.9148 120.014 26.4825C120.182 27.0445 120.306 27.6701 120.388 28.3595V28.9418C120.312 29.6138 120.185 30.2279 120.005 30.7841C119.826 31.3402 119.588 31.8211 119.293 32.2266C118.997 32.6321 118.632 32.945 118.198 33.1651C117.769 33.3853 117.262 33.4953 116.677 33.4953C116.103 33.4953 115.585 33.3766 115.121 33.139C114.664 32.9015 114.27 32.5684 113.94 32.1397C113.615 31.711 113.366 31.207 113.192 30.6276C113.018 30.0425 112.932 29.4081 112.932 28.7245ZM115.026 28.542V28.7245C115.026 29.1532 115.066 29.553 115.148 29.9237C115.234 30.2945 115.365 30.6218 115.539 30.9057C115.718 31.1838 115.944 31.4039 116.216 31.5662C116.494 31.7226 116.822 31.8008 117.198 31.8008C117.691 31.8008 118.093 31.6965 118.406 31.4879C118.725 31.2794 118.968 30.9984 119.136 30.645C119.31 30.2858 119.432 29.8861 119.501 29.4458V27.8729C119.466 27.5311 119.394 27.2125 119.284 26.917C119.18 26.6215 119.038 26.3637 118.858 26.1436C118.679 25.9177 118.453 25.7439 118.18 25.6222C117.908 25.4947 117.587 25.431 117.216 25.431C116.839 25.431 116.512 25.5121 116.234 25.6743C115.956 25.8366 115.727 26.0596 115.547 26.3435C115.373 26.6273 115.243 26.9576 115.156 27.3341C115.069 27.7107 115.026 28.1133 115.026 28.542ZM125.471 25.9264V33.3215H123.377V23.919H125.35L125.471 25.9264ZM125.098 28.2726L124.42 28.264C124.426 27.5977 124.518 26.9865 124.698 26.4304C124.883 25.8742 125.138 25.3963 125.463 24.9965C125.793 24.5968 126.187 24.2897 126.644 24.0754C127.102 23.8552 127.612 23.7452 128.174 23.7452C128.626 23.7452 129.034 23.8089 129.399 23.9363C129.77 24.058 130.086 24.2579 130.346 24.536C130.613 24.814 130.816 25.1761 130.955 25.6222C131.094 26.0625 131.163 26.6042 131.163 27.2472V33.3215H129.06V27.2385C129.06 26.7867 128.994 26.4304 128.86 26.1697C128.733 25.9032 128.545 25.7149 128.295 25.6048C128.052 25.489 127.748 25.431 127.383 25.431C127.024 25.431 126.702 25.5063 126.418 25.657C126.135 25.8076 125.894 26.0133 125.697 26.274C125.506 26.5347 125.358 26.8359 125.254 27.1777C125.15 27.5195 125.098 27.8845 125.098 28.2726ZM140.27 20.6689V33.3215H138.089V20.6689H140.27ZM144.85 25.9264V33.3215H142.756V23.919H144.728L144.85 25.9264ZM144.476 28.2726L143.798 28.264C143.804 27.5977 143.897 26.9865 144.076 26.4304C144.262 25.8742 144.517 25.3963 144.841 24.9965C145.171 24.5968 145.565 24.2897 146.023 24.0754C146.481 23.8552 146.991 23.7452 147.552 23.7452C148.004 23.7452 148.413 23.8089 148.778 23.9363C149.149 24.058 149.464 24.2579 149.725 24.536C149.991 24.814 150.194 25.1761 150.333 25.6222C150.472 26.0625 150.542 26.6042 150.542 27.2472V33.3215H148.439V27.2385C148.439 26.7867 148.372 26.4304 148.239 26.1697C148.112 25.9032 147.923 25.7149 147.674 25.6048C147.431 25.489 147.127 25.431 146.762 25.431C146.403 25.431 146.081 25.5063 145.797 25.657C145.513 25.8076 145.273 26.0133 145.076 26.274C144.885 26.5347 144.737 26.8359 144.633 27.1777C144.528 27.5195 144.476 27.8845 144.476 28.2726ZM159.666 31.2359L161.839 23.919H163.177L162.812 26.1088L160.622 33.3215H159.423L159.666 31.2359ZM158.389 23.919L160.083 31.2707L160.223 33.3215H158.884L156.338 23.919H158.389ZM165.211 31.1838L166.853 23.919H168.895L166.358 33.3215H165.019L165.211 31.1838ZM163.403 23.919L165.549 31.149L165.819 33.3215H164.62L162.404 26.1002L162.039 23.919H163.403ZM172.562 23.919V33.3215H170.459V23.919H172.562ZM170.32 21.451C170.32 21.1324 170.425 20.8688 170.633 20.6602C170.847 20.4459 171.143 20.3387 171.519 20.3387C171.89 20.3387 172.183 20.4459 172.397 20.6602C172.612 20.8688 172.719 21.1324 172.719 21.451C172.719 21.7638 172.612 22.0245 172.397 22.2331C172.183 22.4417 171.89 22.5459 171.519 22.5459C171.143 22.5459 170.847 22.4417 170.633 22.2331C170.425 22.0245 170.32 21.7638 170.32 21.451ZM179.167 23.919V25.4484H173.866V23.919H179.167ZM175.395 21.6161H177.49V30.7232C177.49 31.0129 177.53 31.2359 177.611 31.3924C177.698 31.543 177.817 31.6444 177.967 31.6965C178.118 31.7486 178.295 31.7747 178.498 31.7747C178.642 31.7747 178.781 31.766 178.915 31.7486C179.048 31.7313 179.155 31.7139 179.236 31.6965L179.245 33.2955C179.071 33.3476 178.868 33.3939 178.637 33.4345C178.411 33.4751 178.15 33.4953 177.854 33.4953C177.374 33.4953 176.948 33.4113 176.577 33.2433C176.206 33.0695 175.917 32.7885 175.708 32.4004C175.5 32.0122 175.395 31.4966 175.395 30.8536V21.6161ZM182.851 19.9737V33.3215H180.766V19.9737H182.851ZM182.486 28.2726L181.808 28.264C181.814 27.6151 181.904 27.0155 182.078 26.4651C182.257 25.9148 182.507 25.4368 182.825 25.0313C183.15 24.62 183.538 24.3042 183.99 24.0841C184.442 23.8581 184.943 23.7452 185.493 23.7452C185.956 23.7452 186.374 23.8089 186.744 23.9363C187.121 24.0638 187.445 24.2695 187.718 24.5533C187.99 24.8314 188.196 25.1964 188.335 25.6483C188.479 26.0944 188.552 26.6389 188.552 27.282V33.3215H186.449V27.2646C186.449 26.8127 186.382 26.4535 186.249 26.1871C186.122 25.9206 185.933 25.7294 185.684 25.6135C185.435 25.4919 185.131 25.431 184.772 25.431C184.395 25.431 184.062 25.5063 183.772 25.657C183.489 25.8076 183.251 26.0133 183.06 26.274C182.869 26.5347 182.724 26.8359 182.625 27.1777C182.533 27.5195 182.486 27.8845 182.486 28.2726ZM205.028 26.8562V31.6878C204.849 31.9253 204.568 32.186 204.185 32.4699C203.809 32.748 203.307 32.9884 202.682 33.1912C202.056 33.3939 201.277 33.4953 200.344 33.4953C199.551 33.4953 198.823 33.3621 198.163 33.0956C197.503 32.8233 196.932 32.4265 196.451 31.9051C195.976 31.3837 195.608 30.7493 195.347 30.002C195.087 29.2488 194.956 28.3914 194.956 27.4297V26.552C194.956 25.5961 195.075 24.7445 195.313 23.9972C195.556 23.244 195.904 22.6068 196.355 22.0854C196.807 21.564 197.352 21.17 197.989 20.9035C198.632 20.6312 199.359 20.4951 200.17 20.4951C201.207 20.4951 202.065 20.6689 202.743 21.0165C203.426 21.3583 203.953 21.8334 204.324 22.4417C204.695 23.05 204.93 23.7452 205.028 24.5273H202.89C202.821 24.087 202.685 23.693 202.482 23.3454C202.285 22.9978 202.001 22.7255 201.63 22.5286C201.265 22.3258 200.79 22.2244 200.205 22.2244C199.701 22.2244 199.258 22.32 198.876 22.5112C198.493 22.7024 198.175 22.9833 197.92 23.3541C197.671 23.7249 197.482 24.1768 197.355 24.7098C197.227 25.2427 197.164 25.851 197.164 26.5347V27.4297C197.164 28.1249 197.236 28.7419 197.381 29.2807C197.532 29.8195 197.746 30.2742 198.024 30.645C198.308 31.0158 198.653 31.2968 199.058 31.4879C199.464 31.6733 199.921 31.766 200.431 31.766C200.929 31.766 201.338 31.7255 201.656 31.6444C201.975 31.5575 202.227 31.4561 202.412 31.3402C202.604 31.2186 202.751 31.1027 202.856 30.9926V28.4812H200.223V26.8562H205.028ZM206.836 28.7245V28.5247C206.836 27.8468 206.934 27.2183 207.131 26.6389C207.328 26.0538 207.612 25.5469 207.983 25.1182C208.359 24.6837 208.817 24.3477 209.356 24.1101C209.9 23.8668 210.514 23.7452 211.198 23.7452C211.887 23.7452 212.501 23.8668 213.04 24.1101C213.585 24.3477 214.045 24.6837 214.422 25.1182C214.799 25.5469 215.085 26.0538 215.282 26.6389C215.479 27.2183 215.578 27.8468 215.578 28.5247V28.7245C215.578 29.4023 215.479 30.0309 215.282 30.6103C215.085 31.1896 214.799 31.6965 214.422 32.131C214.045 32.5597 213.588 32.8957 213.049 33.139C212.51 33.3766 211.899 33.4953 211.215 33.4953C210.526 33.4953 209.909 33.3766 209.364 33.139C208.826 32.8957 208.368 32.5597 207.991 32.131C207.615 31.6965 207.328 31.1896 207.131 30.6103C206.934 30.0309 206.836 29.4023 206.836 28.7245ZM208.93 28.5247V28.7245C208.93 29.1474 208.973 29.5472 209.06 29.9237C209.147 30.3003 209.283 30.6305 209.469 30.9144C209.654 31.1983 209.892 31.4213 210.181 31.5835C210.471 31.7457 210.816 31.8269 211.215 31.8269C211.604 31.8269 211.94 31.7457 212.223 31.5835C212.513 31.4213 212.751 31.1983 212.936 30.9144C213.121 30.6305 213.258 30.3003 213.344 29.9237C213.437 29.5472 213.483 29.1474 213.483 28.7245V28.5247C213.483 28.1075 213.437 27.7136 213.344 27.3428C213.258 26.9663 213.118 26.6331 212.927 26.3435C212.742 26.0538 212.504 25.8279 212.215 25.6657C211.931 25.4976 211.592 25.4136 211.198 25.4136C210.804 25.4136 210.462 25.4976 210.173 25.6657C209.889 25.8279 209.654 26.0538 209.469 26.3435C209.283 26.6331 209.147 26.9663 209.06 27.3428C208.973 27.7136 208.93 28.1075 208.93 28.5247ZM216.933 28.7245V28.5247C216.933 27.8468 217.032 27.2183 217.229 26.6389C217.426 26.0538 217.71 25.5469 218.08 25.1182C218.457 24.6837 218.915 24.3477 219.453 24.1101C219.998 23.8668 220.612 23.7452 221.296 23.7452C221.985 23.7452 222.599 23.8668 223.138 24.1101C223.683 24.3477 224.143 24.6837 224.52 25.1182C224.896 25.5469 225.183 26.0538 225.38 26.6389C225.577 27.2183 225.676 27.8468 225.676 28.5247V28.7245C225.676 29.4023 225.577 30.0309 225.38 30.6103C225.183 31.1896 224.896 31.6965 224.52 32.131C224.143 32.5597 223.686 32.8957 223.147 33.139C222.608 33.3766 221.997 33.4953 221.313 33.4953C220.624 33.4953 220.007 33.3766 219.462 33.139C218.923 32.8957 218.466 32.5597 218.089 32.131C217.713 31.6965 217.426 31.1896 217.229 30.6103C217.032 30.0309 216.933 29.4023 216.933 28.7245ZM219.028 28.5247V28.7245C219.028 29.1474 219.071 29.5472 219.158 29.9237C219.245 30.3003 219.381 30.6305 219.566 30.9144C219.752 31.1983 219.989 31.4213 220.279 31.5835C220.569 31.7457 220.913 31.8269 221.313 31.8269C221.701 31.8269 222.037 31.7457 222.321 31.5835C222.611 31.4213 222.848 31.1983 223.034 30.9144C223.219 30.6305 223.355 30.3003 223.442 29.9237C223.535 29.5472 223.581 29.1474 223.581 28.7245V28.5247C223.581 28.1075 223.535 27.7136 223.442 27.3428C223.355 26.9663 223.216 26.6331 223.025 26.3435C222.84 26.0538 222.602 25.8279 222.312 25.6657C222.029 25.4976 221.69 25.4136 221.296 25.4136C220.902 25.4136 220.56 25.4976 220.27 25.6657C219.986 25.8279 219.752 26.0538 219.566 26.3435C219.381 26.6331 219.245 26.9663 219.158 27.3428C219.071 27.7136 219.028 28.1075 219.028 28.5247ZM233.453 23.919H235.356V33.0608C235.356 33.9067 235.177 34.625 234.817 35.216C234.458 35.8069 233.957 36.2559 233.314 36.5629C232.671 36.8757 231.927 37.0322 231.081 37.0322C230.722 37.0322 230.322 36.98 229.881 36.8757C229.447 36.7715 229.024 36.6035 228.613 36.3717C228.207 36.1458 227.868 35.8474 227.596 35.4767L228.578 34.2427C228.914 34.6424 229.285 34.935 229.69 35.1204C230.096 35.3057 230.522 35.3984 230.968 35.3984C231.449 35.3984 231.857 35.3086 232.193 35.1291C232.535 34.9553 232.798 34.6974 232.984 34.3556C233.169 34.0138 233.262 33.5967 233.262 33.1043V26.048L233.453 23.919ZM227.066 28.7245V28.542C227.066 27.8295 227.153 27.1806 227.327 26.5955C227.5 26.0046 227.75 25.4976 228.074 25.0747C228.398 24.646 228.792 24.3187 229.256 24.0928C229.719 23.861 230.244 23.7452 230.829 23.7452C231.437 23.7452 231.955 23.8552 232.384 24.0754C232.819 24.2955 233.181 24.6113 233.47 25.0226C233.76 25.4281 233.986 25.9148 234.148 26.4825C234.316 27.0445 234.441 27.6701 234.522 28.3595V28.9418C234.447 29.6138 234.319 30.2279 234.14 30.7841C233.96 31.3402 233.722 31.8211 233.427 32.2266C233.132 32.6321 232.767 32.945 232.332 33.1651C231.903 33.3853 231.396 33.4953 230.811 33.4953C230.238 33.4953 229.719 33.3766 229.256 33.139C228.798 32.9015 228.404 32.5684 228.074 32.1397C227.75 31.711 227.5 31.207 227.327 30.6276C227.153 30.0425 227.066 29.4081 227.066 28.7245ZM229.16 28.542V28.7245C229.16 29.1532 229.201 29.553 229.282 29.9237C229.369 30.2945 229.499 30.6218 229.673 30.9057C229.853 31.1838 230.078 31.4039 230.351 31.5662C230.629 31.7226 230.956 31.8008 231.333 31.8008C231.825 31.8008 232.228 31.6965 232.541 31.4879C232.859 31.2794 233.103 30.9984 233.271 30.645C233.444 30.2858 233.566 29.8861 233.636 29.4458V27.8729C233.601 27.5311 233.528 27.2125 233.418 26.917C233.314 26.6215 233.172 26.3637 232.992 26.1436C232.813 25.9177 232.587 25.7439 232.315 25.6222C232.042 25.4947 231.721 25.431 231.35 25.431C230.974 25.431 230.646 25.5121 230.368 25.6743C230.09 25.8366 229.861 26.0596 229.682 26.3435C229.508 26.6273 229.377 26.9576 229.291 27.3341C229.204 27.7107 229.16 28.1133 229.16 28.542ZM239.771 19.9737V33.3215H237.668V19.9737H239.771ZM246.21 33.4953C245.515 33.4953 244.886 33.3824 244.324 33.1564C243.768 32.9247 243.293 32.6032 242.899 32.1918C242.511 31.7805 242.213 31.2968 242.004 30.7406C241.795 30.1844 241.691 29.5848 241.691 28.9418V28.5942C241.691 27.8584 241.798 27.1922 242.013 26.5955C242.227 25.9988 242.525 25.489 242.908 25.066C243.29 24.6373 243.742 24.31 244.263 24.0841C244.785 23.8581 245.35 23.7452 245.958 23.7452C246.63 23.7452 247.218 23.8581 247.722 24.0841C248.226 24.31 248.643 24.6286 248.973 25.04C249.309 25.4455 249.559 25.9292 249.721 26.4912C249.889 27.0532 249.973 27.673 249.973 28.3509V29.2459H242.708V27.7426H247.905V27.5774C247.893 27.2009 247.818 26.8475 247.679 26.5173C247.545 26.1871 247.34 25.9206 247.062 25.7178C246.783 25.515 246.413 25.4136 245.949 25.4136C245.602 25.4136 245.292 25.489 245.019 25.6396C244.753 25.7844 244.53 25.9959 244.35 26.274C244.171 26.552 244.032 26.888 243.933 27.282C243.84 27.6701 243.794 28.1075 243.794 28.5942V28.9418C243.794 29.3531 243.849 29.7355 243.959 30.0889C244.075 30.4365 244.243 30.7406 244.463 31.0013C244.683 31.262 244.95 31.4677 245.263 31.6183C245.576 31.7631 245.932 31.8355 246.332 31.8355C246.836 31.8355 247.285 31.7342 247.679 31.5314C248.073 31.3286 248.414 31.0419 248.704 30.6711L249.808 31.74C249.605 32.0354 249.341 32.3193 249.017 32.5916C248.692 32.8581 248.296 33.0753 247.826 33.2433C247.363 33.4113 246.824 33.4953 246.21 33.4953Z" fill="black" fill-opacity="0.54"/>
</g>
<defs>
<filter id="filter0_dd_238_5678" x="0.330435" y="0.304312" width="312.339" height="55.1972" filterUnits="userSpaceOnUse" color-interpolation-filters="sRGB">
<feFlood flood-opacity="0" result="BackgroundImageFix"/>
<feColorMatrix in="SourceAlpha" type="matrix" values="0 0 0 0 0 0 0 0 0 0 0 0 0 0 0 0 0 0 127 0" result="hardAlpha"/>
<feOffset dy="1.77971"/>
<feGaussianBlur stdDeviation="1.33478"/>
<feColorMatrix type="matrix" values="0 0 0 0 0 0 0 0 0 0 0 0 0 0 0 0 0 0 0.168 0"/>
<feBlend mode="normal" in2="BackgroundImageFix" result="effect1_dropShadow_238_5678"/>
<feColorMatrix in="SourceAlpha" type="matrix" values="0 0 0 0 0 0 0 0 0 0 0 0 0 0 0 0 0 0 127 0" result="hardAlpha"/>
<feOffset/>
<feGaussianBlur stdDeviation="1.33478"/>
<feColorMatrix type="matrix" values="0 0 0 0 0 0 0 0 0 0 0 0 0 0 0 0 0 0 0.084 0"/>
<feBlend mode="normal" in2="effect1_dropShadow_238_5678" result="effect2_dropShadow_238_5678"/>
<feBlend mode="normal" in="SourceGraphic" in2="effect2_dropShadow_238_5678" result="shape"/>
</filter>
</defs>
</svg>
