<svg width="198" height="203" viewBox="0 0 198 203" fill="none" xmlns="http://www.w3.org/2000/svg">
<path d="M169.071 13.848L70.6637 0.663818L61.6055 74.0781L134.64 128.522L143.604 131.036C143.604 131.036 151.761 135.636 154.369 117.282C156.978 98.9289 169.071 13.848 169.071 13.848Z" fill="white"/>
<path d="M168.171 13.1368L165.562 12.8048L158.401 11.8563L147.778 10.4335L134.878 8.72624L120.745 6.82923L106.47 4.93222L93.1439 3.13006L81.8567 1.61246L73.747 0.521677L71.2335 0.1897C70.8066 0.0948494 70.3798 0.0474252 69.9056 0C69.8581 0 69.8107 0 69.7633 0H69.7159L68.8148 7.30348L66.6332 24.8508L64.0248 46.0025L61.7484 64.3086L60.9896 70.379L60.7525 72.276C60.7051 72.608 60.6576 72.94 60.6102 73.272C60.6102 73.3194 60.6102 73.3668 60.6102 73.4142C60.5628 73.604 61.1319 73.9359 61.2268 74.0308L63.598 75.8329L70.0004 80.6229L79.3906 87.547L90.4881 95.8464L102.25 104.62L113.632 113.109L123.496 120.46L130.705 125.819L134.167 128.38L134.546 128.665C135.163 129.091 135.874 129.376 136.633 129.518L143.035 131.32L144.505 131.747L143.984 131.51C145.501 132.411 147.351 132.459 148.916 131.747C150.623 130.941 151.761 129.329 152.615 127.716C154.18 124.634 154.844 121.171 155.318 117.804C155.745 114.627 156.219 111.497 156.646 108.319L158.591 94.6608C159.349 89.2543 160.108 83.8478 160.915 78.4413L163.381 61.226C164.187 55.7246 164.946 50.1759 165.752 44.6271C166.416 39.8372 167.127 35.0472 167.791 30.3047L169.261 19.8237C169.498 18.1164 169.783 16.4566 169.973 14.7492C169.973 14.6544 169.973 14.607 170.02 14.5595C170.068 14.275 169.309 13.8482 169.119 13.7533C168.787 13.5162 168.408 13.3265 168.028 13.2316C167.839 14.607 167.649 15.9349 167.459 17.3102C166.938 20.9145 166.416 24.4714 165.942 28.0757C165.23 33.1977 164.471 38.367 163.76 43.4889C162.906 49.5119 162.053 55.4875 161.199 61.5105L158.591 80.1012C157.784 85.8397 156.978 91.5307 156.172 97.2691C155.555 101.775 154.892 106.327 154.228 110.833C153.516 115.718 153.184 120.792 151.192 125.345C149.912 128.285 147.446 131.605 143.841 130.799C143.557 130.751 143.272 130.657 143.035 130.514C143.035 130.514 143.225 130.609 143.083 130.514C142.94 130.419 143.177 130.609 143.225 130.609C142.94 130.514 142.703 130.419 142.419 130.277L135.589 128.38L133.74 127.858L135.02 128.617L133.076 127.147L127.812 123.163L119.939 117.283L110.407 110.169L99.7834 102.344L89.1602 94.4236L79.3432 87.0727L70.9963 80.8126L65.0208 76.3546C64.0723 75.6432 63.1238 74.9319 62.1753 74.2205L62.033 74.1256L62.6495 74.7422L63.8351 64.9726L66.5858 42.6827L69.5736 18.5433L71.518 2.84551C71.5654 2.41869 71.6603 1.94443 71.7077 1.51761C71.7077 1.28048 71.6129 1.37533 71.8026 1.37533C72.7985 1.42276 73.8419 1.56503 74.8378 1.75473L90.1561 3.79402L113.157 6.87666L137.961 10.1964L158.638 12.9471L169.498 14.4173L169.973 14.4647C170.162 14.5121 169.451 13.8482 169.404 13.8482C169.072 13.5636 168.645 13.2791 168.171 13.1368Z" fill="#EC4E26"/>
<path d="M106.754 120.697L143.603 131.036C143.603 131.036 134.972 125.961 139.857 109.457C144.741 92.9534 151.334 40.5485 142.038 37.5607C132.743 34.5729 125.629 39.268 120.792 62.459C115.954 85.6499 106.754 120.697 106.754 120.697Z" fill="#EC4E26"/>
<path d="M107.087 121.74L119.607 125.25L139.43 130.799L143.936 132.079C144.41 132.221 144.458 131.747 144.41 131.415C144.315 130.893 143.983 130.419 143.509 130.135C143.462 130.087 143.367 130.04 143.319 129.992C143.177 129.898 143.556 130.182 143.319 129.992L143.035 129.755C142.94 129.66 142.798 129.566 142.703 129.471C142.608 129.376 142.608 129.376 142.561 129.328C142.418 129.186 142.75 129.566 142.608 129.376L142.513 129.281C142.371 129.139 142.229 128.996 142.134 128.854C142.039 128.712 141.991 128.664 141.944 128.617C141.897 128.57 141.897 128.522 141.849 128.475C141.659 128.238 141.991 128.664 141.849 128.475C141.707 128.285 141.565 128.048 141.422 127.858C141.375 127.763 141.28 127.621 141.233 127.526L141.138 127.384L141.043 127.242C141.138 127.384 141.138 127.431 141.09 127.337C140.948 127.099 140.806 126.862 140.711 126.578C140.664 126.435 140.569 126.293 140.521 126.151C140.474 126.009 140.426 125.961 140.426 125.866C140.332 125.629 140.474 126.009 140.379 125.772C139.857 124.301 139.525 122.784 139.383 121.219C139.193 119.037 139.336 116.808 139.715 114.674C140.047 112.682 140.664 110.738 141.185 108.793C141.897 106.137 142.513 103.434 143.035 100.731C144.458 93.6172 145.501 86.4086 146.307 79.2C147.208 71.8016 147.635 64.3559 147.682 56.8627C147.682 53.78 147.54 50.65 147.161 47.5673C146.924 45.1961 146.355 42.8722 145.501 40.6907C144.79 39.0782 143.699 37.3235 141.991 36.707C139.857 35.9007 137.486 35.6636 135.257 35.9956C129.329 37.0389 126.104 43.0145 124.065 48.089C122.168 52.8315 120.982 57.7638 119.939 62.7434C118.99 67.2488 117.994 71.7542 116.951 76.2596C114.864 85.2704 112.683 94.2812 110.406 103.245C109.078 108.604 107.703 113.963 106.28 119.322C106.233 119.559 106.138 119.843 106.091 120.081C105.901 120.792 107.418 122.499 107.703 121.456C108.699 117.709 109.647 113.915 110.643 110.169C112.778 101.727 114.864 93.2853 116.904 84.8436C117.994 80.1959 119.085 75.5956 120.128 70.948C121.219 66.1106 122.12 61.2258 123.401 56.4833C124.492 52.4521 125.867 48.421 128.001 44.8167C129.376 42.5403 131.084 40.3587 133.455 39.0782C135.352 38.0823 137.533 37.7503 139.668 38.0349C140.284 38.1297 140.853 38.2246 141.47 38.4143C141.754 38.5091 142.039 38.5565 142.276 38.6514L142.608 38.7462C142.845 38.8411 142.608 38.7462 142.655 38.7462L143.035 38.9834C142.845 38.7937 143.13 39.0308 143.035 38.9834C143.082 39.0308 143.177 39.1256 143.272 39.1731C143.082 38.9834 143.462 39.3153 143.272 39.1731L143.414 39.3628C143.462 39.4102 143.651 39.6473 143.509 39.4576C143.367 39.2679 143.556 39.5525 143.604 39.5999C143.651 39.6473 143.983 40.2639 143.794 39.837C143.888 40.0267 143.983 40.2164 144.078 40.4536C144.126 40.5484 144.173 40.6433 144.22 40.7381C144.268 40.833 144.363 41.0701 144.268 40.9278C144.173 40.7855 144.315 41.0701 144.363 41.1649L144.505 41.5443C144.695 42.066 144.837 42.5877 144.932 43.0619C144.979 43.2042 144.979 43.3465 145.027 43.4413C145.027 43.4888 145.074 43.631 145.027 43.4413L145.074 43.631C145.122 43.9156 145.216 44.2001 145.264 44.5321C145.738 47.3302 145.975 50.1283 146.023 52.9738C146.26 60.1825 145.738 67.4385 145.027 74.5997C144.315 81.9506 143.272 89.2541 141.991 96.5576C141.47 99.498 140.853 102.438 140.142 105.331C139.241 108.936 138.055 112.398 137.771 116.144C137.344 121.598 138.624 127.811 143.035 131.463C143.272 131.7 143.556 131.889 143.841 132.079L143.414 130.135L130.894 126.625L111.07 121.076L106.565 119.796C106.043 119.654 106.043 120.27 106.138 120.602C106.138 121.029 106.517 121.503 107.087 121.74Z" fill="#EC4E26"/>
<path d="M1.0918 167.031C1.0918 167.031 22.0063 13.5634 33.0564 9.62708C44.1064 5.69078 142.087 37.608 142.087 37.608C142.087 37.608 130.231 35.8532 125.441 53.8748C120.651 71.8964 103.815 187.946 103.815 187.946L1.0918 167.031Z" fill="white"/>
<path d="M2.22927 166.699L2.60868 163.854C2.98808 161.198 3.36748 158.59 3.74688 155.934C4.31598 151.903 4.88509 147.919 5.50161 143.888C6.26042 138.813 7.01922 133.786 7.77802 128.712C8.6791 122.926 9.58018 117.14 10.4813 111.354C11.4772 105.141 12.4731 98.9762 13.5165 92.8109C14.5598 86.5508 15.6506 80.2907 16.7888 74.0305C17.8796 68.0075 19.0178 61.9845 20.2034 55.9615C21.2942 50.4602 22.4324 45.0063 23.6655 39.5524C24.7088 34.9521 25.7996 30.3519 27.0327 25.8465C27.9337 22.4319 29.0245 19.0647 30.2576 15.7449C30.4947 15.1284 30.7318 14.5119 31.0164 13.8953C31.1112 13.6108 31.2535 13.3737 31.3958 13.0891C31.4432 12.9943 31.4432 12.9468 31.4906 12.852C31.538 12.7571 31.5855 12.6149 31.6803 12.52C31.9174 12.0932 32.1546 11.7138 32.4391 11.287C32.5814 11.0973 32.6763 10.955 32.8185 10.8127C32.6763 10.955 33.0082 10.5756 32.8185 10.8127C32.866 10.7653 32.9608 10.6704 33.0082 10.623L33.1505 10.4807C32.9134 10.6704 33.2928 10.3385 33.1505 10.4807C33.5299 10.1962 32.9134 10.5756 33.2454 10.4333C33.3402 10.3859 32.866 10.5282 33.1505 10.4807C33.2454 10.4807 33.3402 10.4333 33.4351 10.3859C33.5299 10.3385 33.1505 10.4333 33.4825 10.3859L33.8145 10.3385C34.0516 10.291 34.3361 10.291 34.6207 10.2436C34.8578 10.2436 34.4784 10.2436 34.8104 10.2436H35.2846C35.996 10.2436 36.66 10.291 37.3713 10.3385C41.3551 10.7179 45.2914 11.3344 49.1802 12.2355C54.6341 13.3737 60.0406 14.7016 65.3996 16.0769C71.5649 17.6419 77.7302 19.3492 83.8955 21.0566C90.1556 22.8113 96.4157 24.6609 102.628 26.5105C108.319 28.2178 113.963 29.9251 119.607 31.6798C124.017 33.0551 128.428 34.4305 132.886 35.8532C135.399 36.6595 137.913 37.4657 140.379 38.2719L141.375 38.6039L142.655 37.0389C139.193 36.5172 135.257 38.2245 132.601 40.3112C127.432 44.3898 125.108 50.7448 123.733 57.0049C122.832 61.0835 122.073 65.2094 121.314 69.288C120.223 75.0265 119.227 80.8598 118.279 86.6931C117.141 93.5697 116.05 100.494 114.959 107.418C113.821 114.721 112.683 122.025 111.544 129.328C110.454 136.3 109.41 143.319 108.367 150.29C107.466 156.361 106.565 162.431 105.664 168.502C105 172.912 104.336 177.37 103.719 181.828C103.387 183.962 103.008 186.096 102.771 188.23C102.771 188.325 102.723 188.42 102.723 188.515L104.573 187.377L94.329 185.29L69.8102 180.31L40.0746 174.24L14.465 169.023C10.339 168.17 6.16557 167.316 2.03957 166.462L1.84987 166.415C1.28077 166.32 0.711668 166.51 0.284842 166.937C0.0477157 167.174 -0.236836 167.838 0.332266 167.98L10.5761 170.067L35.0949 175.046L64.8305 181.117L90.4401 186.333C94.5661 187.187 98.7395 188.041 102.866 188.894L103.055 188.942C103.767 189.084 104.81 188.61 104.905 187.804C105.095 186.381 105.332 184.958 105.521 183.535C106.09 179.694 106.66 175.9 107.229 172.059C108.082 166.462 108.889 160.866 109.742 155.223C110.738 148.488 111.781 141.754 112.777 135.067C113.868 127.906 114.959 120.744 116.097 113.583C117.188 106.564 118.326 99.5453 119.464 92.5264C120.46 86.3611 121.504 80.1958 122.547 74.0305C123.353 69.3354 124.207 64.6878 125.155 60.0401C126.151 55.1079 127.195 50.0808 129.85 45.7651C131.416 43.1567 133.597 40.8329 136.3 39.5998C136.775 39.3627 137.249 39.173 137.723 39.0307C138.102 38.8884 138.529 38.7936 138.909 38.7462C139.288 38.6513 139.667 38.6039 140.094 38.6039H140.331C140.569 38.6039 140.189 38.6039 140.379 38.6039C140.569 38.6039 140.663 38.6039 140.806 38.6039C141.043 38.6039 141.327 38.6039 141.565 38.6513C142.228 38.7462 143.983 37.4657 142.845 37.0863L138.766 35.7584C135.115 34.6202 131.51 33.4345 127.859 32.2963C122.689 30.6364 117.473 29.024 112.303 27.459C106.185 25.6094 100.067 23.7598 93.9496 22.0051C87.6421 20.1555 81.2871 18.4007 74.9321 16.646C69.0988 15.081 63.2655 13.5634 57.3848 12.188C52.6423 11.0973 47.8997 10.0539 43.1098 9.2951C40.2169 8.86827 37.0868 8.29917 34.1939 8.82084C32.1546 9.15282 30.9215 10.5282 29.9256 12.2829C28.5977 14.7964 27.5543 17.4522 26.7007 20.2029C25.4202 24.1392 24.3768 28.1229 23.3809 32.1066C22.1479 37.1337 21.0097 42.2082 19.9189 47.3301C18.6858 53.116 17.5476 58.9493 16.4568 64.7826C15.2712 70.9953 14.1804 77.208 13.0896 83.4207C11.9989 89.7283 10.9081 96.0833 9.86473 102.438C8.8688 108.509 7.87287 114.627 6.92437 120.697C6.07072 126.246 5.21706 131.747 4.41083 137.296C3.69946 141.896 3.0355 146.496 2.37155 151.097C1.8973 154.464 1.42305 157.878 0.901369 161.246C0.664243 163.095 0.379692 164.945 0.142566 166.747C0.0951413 166.984 0.0951409 167.221 0.0477157 167.458C-0.0471347 168.027 0.853944 167.932 1.13849 167.838C1.66017 167.648 2.087 167.221 2.22927 166.699Z" fill="#EC4E26"/>
<path d="M98.5501 64.9251C102.61 64.9251 105.901 61.7401 105.901 57.8113C105.901 53.8825 102.61 50.6975 98.5501 50.6975C94.4903 50.6975 91.1992 53.8825 91.1992 57.8113C91.1992 61.7401 94.4903 64.9251 98.5501 64.9251Z" fill="#EC4E26"/>
<path d="M104.716 57.764C104.668 60.3724 103.009 62.6488 100.59 63.5498C98.2186 64.4035 95.5628 63.7395 93.8555 61.8425C92.1482 59.8507 91.9585 56.9577 93.2864 54.7288C94.6617 52.5472 97.2227 51.409 99.7362 51.8358C102.629 52.3575 104.716 54.8236 104.716 57.764C104.716 59.0444 107.087 59.2341 107.04 57.8588C106.945 54.3493 104.668 51.3141 101.349 50.1759C97.9815 48.9903 94.2349 49.9862 91.911 52.642C89.7295 55.2504 89.4449 58.997 91.2945 61.89C93.239 64.8777 96.7958 66.3954 100.305 65.7314C104.147 65.02 106.992 61.7003 107.087 57.8114C107.087 56.5783 104.763 56.3886 104.716 57.764Z" fill="#EC4E26"/>
<path d="M44.5315 47.5676C46.3811 47.7573 49.4163 46.9036 49.5586 44.6746C49.5586 43.5364 48.7524 42.5879 47.6616 42.4457C46.7131 42.3034 45.812 42.8251 45.48 43.6787C44.7212 45.5283 45.9068 47.615 47.5667 48.4687C49.7957 49.6543 52.3567 49.0378 54.396 47.7573C56.2455 46.6191 57.8106 44.8643 58.3797 42.7776C58.6168 41.7817 58.7117 40.4538 58.0477 39.5527C57.3363 38.5568 56.0084 38.2248 54.9176 38.7939C53.9691 39.363 53.4949 40.4064 53.1155 41.4023C52.7835 42.3982 52.5938 43.4416 52.6412 44.4849C52.6887 46.6665 53.6846 48.7058 55.3919 50.0811C57.1466 51.5039 59.4705 52.0255 61.6994 51.5039C63.6913 50.9348 66.11 48.7058 64.4501 46.5716C64.1181 46.0974 63.549 45.8603 62.9799 45.9077C60.9881 46.3819 60.5612 48.7532 61.3675 50.4131C62.4108 52.5946 65.0666 53.4957 67.2956 53.9226C68.5287 54.1597 69.9514 54.2545 70.8999 53.2586C71.7536 52.3575 71.5165 51.1245 70.6154 50.3657C70.1411 49.9388 69.572 49.7017 68.9555 49.6069C68.4812 49.5594 67.8173 49.6543 67.6276 50.176C67.5327 50.6976 67.5802 51.2667 67.7224 51.7884C67.8647 52.405 68.0544 52.974 68.3864 53.4957C69.904 56.1041 73.0341 57.2897 75.8796 56.2938C76.4012 56.1041 75.8321 55.3453 75.6424 55.1556C75.263 54.7762 74.6939 54.5865 74.1723 54.7288C73.0815 55.1556 71.8484 55.0133 70.9473 54.302C70.0937 53.4957 69.6669 52.3101 69.8091 51.1245L69.6194 51.409C69.8566 51.2193 69.7617 51.3142 69.572 51.1719C69.4772 51.1245 69.4297 51.077 69.3823 50.9822C69.3349 50.9348 69.3349 50.9348 69.3823 51.0296C69.3349 51.1245 69.3349 51.3142 69.3349 51.409C69.0503 51.9781 68.5287 52.3101 67.9121 52.3101C66.7265 52.3575 65.4935 52.073 64.4027 51.5513C63.5964 51.2193 63.1222 50.4605 63.1222 49.6069C63.1222 48.7532 63.5016 47.8047 64.4027 47.5676L62.9325 46.9036C63.2645 47.3779 62.6479 48.279 62.4108 48.6109C62.0314 49.0852 61.5097 49.4172 60.9406 49.6543C59.8499 50.1285 58.6168 50.176 57.4786 49.7491C56.4352 49.3223 55.5816 48.4212 55.2496 47.3304C54.7754 45.9077 54.7279 44.3427 55.2022 42.8725C55.3919 42.1611 55.7239 41.4971 56.1507 40.8806C56.3878 40.6435 56.6724 40.4064 56.9569 40.2641C57.0043 40.2167 57.1466 40.2167 57.1466 40.2167C57.0518 40.4064 56.5775 39.6001 56.4827 39.8847C56.4352 39.9795 56.5301 40.3115 56.5301 40.4064C56.5301 41.9714 55.9136 43.4416 54.8228 44.5324C53.7794 45.718 52.4041 46.6191 50.8865 47.1407C50.1277 47.4253 49.3215 47.5202 48.5152 47.3779C48.3255 47.3305 48.1358 47.283 47.9936 47.1882C48.041 47.2356 47.9936 47.1882 47.9461 47.1407C47.8039 46.9985 47.709 46.8088 47.6142 46.5716C47.4245 46.05 47.4245 45.4809 47.6142 44.9592C47.709 44.6746 47.8987 44.4849 48.1358 44.2952C48.4678 44.1055 48.6101 44.2478 48.041 43.9158C48.2781 44.0581 47.4719 43.6313 47.5667 43.5364C47.5667 43.5839 47.6142 43.6313 47.6142 43.6787C47.5667 43.9633 47.5193 44.2952 47.377 44.5324C47.1399 44.8643 46.8554 45.1489 46.476 45.3386C45.6697 45.8128 44.7212 46.05 43.8201 45.9551C43.2985 45.9077 43.1088 46.3345 43.2985 46.7139C43.4882 47.1882 44.0098 47.5201 44.5315 47.5676Z" fill="#0A0A0F"/>
<path d="M94.8981 57.1472C95.7517 58.1905 96.4157 59.4236 96.7951 60.7515C96.8899 60.9886 97.9333 60.467 97.9807 60.4195L107.893 55.1553C108.035 55.0605 108.936 54.5862 108.794 54.3491C108.651 54.112 107.75 54.6337 107.608 54.6811L97.6961 59.9927L98.8818 59.6607C98.5024 58.3802 97.8384 57.1472 96.9848 56.0564C96.7002 55.5822 94.7558 56.9101 94.8981 57.1472Z" fill="#0A0A0F"/>
<path d="M91.7683 93.6172C95.8019 93.6172 99.0718 90.4323 99.0718 86.5034C99.0718 82.5746 95.8019 79.3896 91.7683 79.3896C87.7347 79.3896 84.4648 82.5746 84.4648 86.5034C84.4648 90.4323 87.7347 93.6172 91.7683 93.6172Z" fill="#EC4E26"/>
<path d="M97.9805 86.7884C97.9331 89.2545 96.5103 91.6732 94.0916 92.4794C91.5307 93.3805 88.6852 92.3371 87.0253 90.2978C85.318 88.2111 85.0808 85.2708 86.4562 82.9469C87.7841 80.7654 90.3925 79.722 92.8586 80.3385C95.7989 81.0974 97.9331 83.7057 97.9805 86.7884C97.9805 87.8317 100.209 87.1204 100.209 86.2193C100.162 82.8995 97.9805 80.0066 94.803 79.0106C91.341 77.9673 87.547 79.0581 85.1757 81.8087C82.9941 84.3223 82.7096 87.974 84.4643 90.7721C86.3613 93.7125 89.9182 94.9455 93.2854 94.1867C97.0794 93.3805 100.115 90.1081 100.162 86.1719C100.209 85.1285 97.9805 85.8399 97.9805 86.7884Z" fill="#EC4E26"/>
<path d="M36.7544 75.7853C38.1297 75.9276 39.505 75.7379 40.7855 75.1688C41.6392 74.7894 42.5402 74.1728 42.8248 73.2243C43.5836 70.7582 39.837 71.0902 38.7936 72.4655C37.7503 73.8409 38.5565 75.8802 39.8844 76.6864C42.1134 78.0143 45.2435 77.2555 47.3302 76.0699C49.1798 75.0265 50.9345 73.3666 51.5984 71.2799C51.883 70.3788 52.1201 69.1458 51.6459 68.2447C51.0768 67.1539 49.2746 67.3436 48.3261 67.7704C46.4291 68.6241 45.7652 71.2799 45.7177 73.1769C45.6229 75.2636 46.524 77.2555 48.1364 78.5834C49.9386 79.9587 52.547 80.1959 54.6811 79.6267C55.7244 79.3896 56.6729 78.8205 57.4317 78.0617C58.1431 77.2555 58.7122 76.0224 57.9534 75.0739C57.6215 74.6471 56.6255 74.8368 56.1987 74.9316C54.6337 75.3585 53.6377 76.9709 54.0646 78.536C54.112 78.7257 54.2068 78.9628 54.3017 79.1525C55.2502 81.1918 58.0483 81.8557 60.0876 82.1403C61.368 82.2826 62.9805 82.2826 64.0239 81.3341C64.7827 80.6701 65.0198 79.5793 64.1661 78.9154C63.6919 78.5834 63.1228 78.4411 62.5537 78.4885C62.032 78.4885 61.0835 78.5834 60.7515 79.0576C60.5144 79.437 60.6567 80.1484 60.7041 80.5753C60.7989 81.1444 60.9886 81.666 61.2732 82.1877C62.6959 84.7487 66.158 85.3178 68.7189 84.3693C69.0035 84.2744 69.5252 84.0373 69.0983 83.7053C68.6715 83.3733 67.8653 83.5156 67.4859 83.6579C66.3477 84.0373 65.0672 83.6579 64.261 82.7568C63.3125 81.7609 62.8382 80.433 62.9805 79.1051L62.8382 79.3422C62.5537 79.437 62.2217 79.437 61.8897 79.3896C61.7949 79.3896 61.8423 79.3896 61.9846 79.437C62.032 79.4845 62.1268 79.5319 62.1743 79.6267C62.3165 79.8639 62.364 80.1484 62.3165 80.3855C62.2217 80.8598 61.8423 81.2392 61.368 81.2866C60.1824 81.1918 59.0442 80.8598 58.0008 80.2907C57.0523 79.769 56.4358 78.8205 56.3884 77.7772C56.341 77.0184 56.6255 75.8802 57.4792 75.6905L55.7244 75.5482C56.6255 76.6864 55.2028 78.2514 54.1594 78.7257C53.2109 79.1525 52.1676 79.1525 51.2665 78.6782C48.5158 77.4926 47.7096 74.078 48.3261 71.3748C48.5158 70.616 48.8004 69.9046 49.1798 69.2406C49.4169 68.9561 49.654 68.6715 49.8911 68.4344C49.986 68.2921 50.4128 68.3395 49.6066 68.387C48.8004 68.4344 49.2746 68.2921 49.322 68.5292C49.3695 68.7664 49.4643 68.9086 49.5117 69.0983C49.654 70.6634 49.1323 72.181 48.1364 73.3666C46.7611 75.0739 42.6351 78.1091 41.0701 75.0739C40.7855 74.5048 40.6907 73.8409 40.7855 73.2243C40.8329 72.9398 40.9752 72.6552 41.2123 72.4181C41.2598 72.3707 41.4495 72.2758 41.4969 72.181C41.5917 71.9913 40.4535 72.3707 40.4535 72.181C40.4535 72.2284 40.5484 72.2758 40.5484 72.2758C40.6907 72.8924 40.501 73.5089 40.0267 73.9357C39.4576 74.5048 38.6988 74.7894 37.94 74.7894C37.4657 74.742 36.7069 74.6945 36.3275 75.0739C35.9481 75.4533 36.375 75.7853 36.7544 75.7853Z" fill="#0A0A0F"/>
<path d="M88.4007 85.223C89.1595 86.1715 89.7286 87.2149 90.108 88.4005C90.2503 88.7799 90.5349 89.1119 90.8668 89.349C91.0565 89.4913 91.5782 89.8232 91.8628 89.681L101.775 84.4168C102.486 84.0374 100.779 82.4249 100.162 82.7569L90.2977 88.0211L92.0525 89.3016C91.6256 87.8314 90.9143 86.5035 89.9658 85.3179C89.6812 84.9385 89.1121 84.4168 88.5904 84.4168C88.0688 84.4168 88.211 84.9385 88.4007 85.223Z" fill="#0A0A0F"/>
<path d="M86.9304 121.314C90.964 121.314 94.2339 118.129 94.2339 114.2C94.2339 110.271 90.964 107.086 86.9304 107.086C82.8968 107.086 79.627 110.271 79.627 114.2C79.627 118.129 82.8968 121.314 86.9304 121.314Z" fill="#EC4E26"/>
<path d="M93.0494 114.01C93.0494 116.714 91.4369 119.132 88.9234 120.176C86.5521 121.124 83.8963 120.46 82.2364 118.516C80.4817 116.429 80.2445 113.441 81.6199 111.07C82.9004 108.794 85.5087 107.513 88.0697 107.892C91.0101 108.414 93.0494 111.117 93.0494 114.01C93.0494 114.579 93.6185 114.817 94.0927 114.911C94.4247 114.959 95.3732 114.959 95.3732 114.437C95.2783 111.023 93.0968 108.035 89.8719 106.944C86.5521 105.758 82.6632 106.517 80.292 109.173C78.1104 111.639 77.7784 115.243 79.5332 118.089C81.3828 121.077 85.1768 122.547 88.5914 121.978C92.2905 121.361 95.3258 118.279 95.3732 114.485C95.3732 113.963 94.7567 113.678 94.3298 113.583C94.0453 113.441 93.0968 113.441 93.0494 114.01Z" fill="#EC4E26"/>
<path d="M32.4394 104.098C34.4313 104.288 37.5139 103.529 37.8933 101.158C38.1779 100.02 37.4665 98.8816 36.3283 98.5971C35.3324 98.4548 34.3839 98.929 33.9096 99.8301C33.0085 101.537 33.8622 103.861 35.4272 104.81C37.7036 106.233 40.5017 105.474 42.6359 104.193C44.4854 103.055 46.1453 101.253 46.7144 99.0713C46.999 98.028 47.0938 96.7001 46.5247 95.7041C45.8608 94.6134 44.4854 94.2814 43.3947 94.9453C43.3472 94.9928 43.2998 94.9928 43.2524 95.0402C42.3039 95.6567 41.7822 96.7001 41.4502 97.7434C41.0708 98.7868 40.9286 99.8776 40.9286 100.968C40.9286 103.197 41.9719 105.331 43.6792 106.754C45.4814 108.13 47.8052 108.556 49.9868 107.94C52.1683 107.228 54.4447 104.715 52.7374 102.533C52.4055 102.154 51.8838 101.964 51.4095 102.059C49.3228 102.533 48.8011 105.047 49.5125 106.802C50.461 109.078 53.1168 110.027 55.3458 110.359C56.6263 110.596 58.0491 110.596 59.045 109.6C59.8986 108.793 59.9461 107.371 59.1398 106.517C58.4759 105.758 56.5789 105.094 55.9623 106.28C55.7252 106.754 55.8675 107.513 55.9149 108.035C56.0098 108.651 56.1995 109.268 56.484 109.789C57.8593 112.398 60.9894 113.631 63.7875 112.682C65.1154 112.208 63.7875 110.311 62.6967 110.691C61.5111 111.165 60.2306 110.975 59.2347 110.216C58.3336 109.41 57.9068 108.224 58.049 107.039L57.7171 107.703C57.9542 107.513 57.7645 107.703 57.6696 107.608C57.6696 107.608 57.6222 107.56 57.5748 107.56C57.4325 107.56 57.6696 107.371 57.4799 107.608C57.2428 108.035 56.7686 108.319 56.2469 108.319C55.0613 108.319 53.8282 108.035 52.7848 107.513C51.9786 107.228 51.4569 106.517 51.3621 105.663C51.3147 104.905 51.6466 104.051 52.4529 103.861L51.125 103.434C51.0301 103.292 51.125 103.434 51.125 103.529C51.125 103.672 51.0775 103.814 51.0301 103.956C50.8878 104.288 50.7456 104.573 50.5084 104.81C50.129 105.189 49.7022 105.521 49.1805 105.711C48.0898 106.138 46.9516 106.138 45.8608 105.711C44.77 105.284 43.8689 104.383 43.4895 103.245C43.0153 101.917 42.9678 100.447 43.3947 99.1187C43.5844 98.4074 43.8689 97.7434 44.2483 97.1743C44.438 96.9372 44.6751 96.7475 44.9123 96.6052C45.102 96.4155 45.0545 96.6526 44.77 96.4155C44.6751 96.3207 44.6751 96.131 44.6277 96.3207C44.6277 96.4155 44.6751 96.4629 44.6751 96.5578C44.8648 98.028 44.1535 99.4507 43.205 100.542C42.209 101.727 40.8811 102.628 39.4109 103.102C38.6521 103.387 37.8933 103.482 37.0871 103.387C36.8026 103.34 36.5654 103.245 36.3283 103.102C36.1386 103.008 36.0438 102.865 35.9489 102.676C35.7118 102.249 35.6169 101.727 35.7592 101.253C35.8066 101.063 35.9015 100.873 36.0438 100.731C36.0912 100.684 36.3757 100.542 36.4232 100.494C36.4706 100.447 35.6169 100.067 35.7592 99.9724C35.7118 100.162 35.7118 100.352 35.6644 100.542C35.4747 100.826 35.2375 101.063 34.953 101.253C34.2416 101.727 33.3405 101.964 32.4869 101.917C30.8744 101.869 31.1115 103.909 32.4394 104.098Z" fill="#0A0A0F"/>
<path d="M80.1023 149.959C84.1359 149.959 87.4058 146.774 87.4058 142.845C87.4058 138.916 84.1359 135.731 80.1023 135.731C76.0687 135.731 72.7988 138.916 72.7988 142.845C72.7988 146.774 76.0687 149.959 80.1023 149.959Z" fill="#EC4E26"/>
<path d="M86.3125 143.129C86.2651 145.595 84.8423 148.014 82.4237 148.82C79.8627 149.721 77.0172 148.678 75.3573 146.639C73.65 144.552 73.4129 141.612 74.7882 139.288C76.1161 137.106 78.7245 136.063 81.1906 136.679C84.131 137.438 86.2651 140.094 86.3125 143.129C86.3125 144.173 88.5415 143.461 88.5415 142.56C88.4941 139.24 86.3125 136.347 83.135 135.351C79.673 134.308 75.879 135.399 73.5077 138.15C71.3262 140.663 71.0416 144.315 72.7964 147.113C74.6934 150.053 78.2502 151.239 81.6174 150.528C85.4114 149.721 88.4467 146.449 88.4941 142.513C88.5889 141.517 86.3125 142.228 86.3125 143.129Z" fill="#EC4E26"/>
<path d="M25.5157 132.743C27.6498 132.933 30.7325 131.889 31.2067 129.518C31.4913 128.57 30.9222 127.621 29.9737 127.337C29.8788 127.289 29.784 127.289 29.6891 127.289C28.5983 127.242 27.555 127.858 27.0333 128.854C26.1322 130.514 26.9385 132.743 28.5035 133.644C30.7799 135.02 33.6728 134.071 35.7595 132.791C37.6566 131.652 39.3164 129.85 39.933 127.669C40.2175 126.625 40.4072 125.297 39.8855 124.301C39.2216 123.068 37.6091 123.163 36.5658 123.827C34.7636 125.013 34.0522 127.716 34.0997 129.755C34.0997 131.889 34.9059 134.118 36.6606 135.446C38.4154 136.822 40.7392 137.249 42.9208 136.632C44.059 136.3 45.0549 135.683 45.8137 134.782C46.5725 133.834 47.1416 132.316 46.2879 131.226C46.0034 130.799 45.5291 130.609 45.0075 130.704C42.8259 131.226 41.8774 133.644 42.6836 135.683C43.5373 137.818 46.1457 138.671 48.2324 139.051C49.6077 139.288 51.1253 139.288 52.2635 138.292C53.1646 137.486 53.4966 136.063 52.5481 135.114C51.6944 134.308 50.082 134.118 49.3232 135.114C48.9438 135.589 49.0386 136.395 49.1335 136.917C49.2283 137.533 49.418 138.15 49.6551 138.671C51.0305 141.422 54.3028 142.37 57.0535 141.327C57.5751 141.137 57.8597 140.568 57.67 140.047C57.67 139.999 57.67 139.999 57.6226 139.952C57.2906 139.43 56.6266 139.288 56.0575 139.525C53.544 140.426 51.2202 138.102 51.4099 135.636L50.983 136.347C50.9356 136.395 50.6036 136.442 50.6036 136.395C50.6036 136.347 50.6985 136.632 50.6985 136.632C50.6511 137.011 50.1768 137.154 49.8448 137.154C48.6592 137.154 47.4736 136.869 46.3828 136.347C45.5291 135.921 44.8178 135.257 44.6755 134.308C44.6281 133.929 44.6755 133.549 44.8652 133.17C44.9126 133.028 45.0075 132.933 45.1023 132.838C45.1497 132.791 45.2446 132.743 45.3394 132.696L44.059 132.174C44.8178 133.123 43.3002 134.261 42.5414 134.545C41.498 134.925 40.3598 134.925 39.3164 134.498C36.6606 133.454 35.9967 130.23 36.6132 127.716C36.7555 127.052 37.04 126.436 37.4194 125.819C37.5617 125.582 37.8463 125.44 37.9885 125.25C38.1308 125.06 38.036 125.25 38.036 125.25C37.9411 125.25 37.8463 125.25 37.7514 125.25C37.6566 125.297 37.704 125.345 37.7514 125.487C37.9411 126.91 37.2772 128.285 36.4235 129.328C35.4276 130.514 34.1945 131.368 32.7243 131.889C31.5861 132.269 29.9737 132.411 29.2623 131.273C28.9777 130.799 28.8829 130.182 29.0252 129.66C29.0252 129.66 29.12 129.471 29.12 129.423C29.12 129.376 29.2149 129.281 29.1674 129.328L29.3097 129.234C29.3571 129.044 29.3571 129.376 29.2623 129.234C29.2623 129.186 28.8829 129.091 28.788 129.044C28.6932 128.997 28.8355 128.902 28.7406 128.997C28.7406 129.186 28.6932 129.376 28.6458 129.566C28.5035 129.803 28.2664 130.04 27.9818 130.182C27.2704 130.609 26.4168 130.799 25.6106 130.704C24.994 130.656 24.4724 131.036 24.3301 131.652C24.4249 132.316 24.9466 132.696 25.5157 132.743Z" fill="#0A0A0F"/>
<path d="M116.098 72.3709C116.098 72.3709 114.865 70.1419 113.11 70.6161C111.356 71.0904 105.902 78.4413 106.993 78.8207C108.083 79.2001 111.261 78.7733 112.162 78.0145C113.063 77.2557 113.585 75.0267 113.585 75.0267L113.822 76.8763L123.212 72.9874C123.212 72.9874 122.501 69.8573 123.022 67.6283C123.497 65.6839 121.789 63.4075 120.272 66.917C119.892 67.8655 119.655 68.8614 119.56 69.8573L119.418 71.3749C119.418 71.4224 116.667 68.4346 116.098 72.3709Z" fill="white"/>
<path d="M117.14 71.8493C116.191 70.1894 114.247 68.909 112.35 69.9049C111.591 70.3317 110.927 70.9008 110.358 71.5648C109.694 72.2761 109.03 72.9875 108.461 73.7463C107.845 74.5525 107.276 75.3588 106.706 76.2124C106.28 76.829 105.995 77.4929 105.758 78.2043C105.141 80.5281 108.983 79.8642 110.168 79.6745C111.449 79.4373 112.777 79.0105 113.488 77.8723C114.057 76.9712 114.437 75.9753 114.674 74.9794L112.397 75.2639L112.635 77.1135C112.729 77.8723 113.631 77.9197 114.2 77.6826L122.404 74.268L123.59 73.7937C123.969 73.6515 124.443 73.1298 124.301 72.6555C124.111 71.707 123.969 70.7585 123.922 69.81C123.874 69.0987 123.922 68.3398 124.064 67.6285C124.206 67.0594 124.206 66.4903 124.111 65.9212C123.827 64.783 122.973 63.787 121.693 64.0716C120.033 64.451 119.274 66.2531 118.8 67.6759C118.468 68.8615 118.278 70.0946 118.278 71.3751L120.317 70.6163C119.748 69.9997 119.037 69.5729 118.231 69.3358C116.286 68.909 115.196 70.6637 114.911 72.3236C114.674 73.6989 116.998 73.4618 117.187 72.2761C117.235 71.9442 117.33 71.6122 117.425 71.3276C117.519 71.1379 117.377 71.3276 117.519 71.1854C117.662 71.0431 117.425 71.2328 117.567 71.1379C117.282 71.2328 117.614 71.1379 117.377 71.2328C117.187 71.2328 117.187 71.2328 117.33 71.2328C117.425 71.2328 117.472 71.2328 117.33 71.2328C117.187 71.1854 117.472 71.2802 117.519 71.2802C117.709 71.3276 117.377 71.1854 117.567 71.2802C117.756 71.3751 117.851 71.4225 117.994 71.5173L118.041 71.5648L118.231 71.707C118.326 71.8019 118.468 71.8967 118.563 71.9916C119.132 72.6081 120.555 72.0864 120.602 71.2328C120.649 70.0472 120.792 68.909 121.076 67.7707C121.219 67.2965 121.408 66.8697 121.645 66.4428C121.693 66.3006 121.788 66.2057 121.882 66.1109C122.025 65.9212 122.072 65.9686 122.12 65.8737C121.977 65.9212 121.977 65.9686 122.12 65.8737L121.977 65.9212C121.882 65.9212 121.788 65.9212 121.74 65.9212C121.598 65.8737 121.598 65.8737 121.693 65.9212C121.598 65.8263 121.598 65.8263 121.693 65.9212L121.74 65.9686C121.788 66.0634 121.835 66.0634 121.74 65.9686C121.788 66.016 121.788 66.0634 121.835 66.1583C122.025 66.5377 122.072 67.0119 121.977 67.3913C121.835 68.1976 121.74 69.0512 121.74 69.8575C121.74 70.9482 121.882 72.039 122.12 73.1298L122.831 71.9916L114.626 75.4062L113.441 75.8805L115.006 76.4496L114.769 74.6C114.579 73.3195 112.729 73.936 112.492 74.8845C112.35 75.4536 112.16 76.0227 111.876 76.5444C111.781 76.6867 111.686 76.8764 111.591 77.0187C111.544 77.0661 111.496 77.1609 111.449 77.2084C111.544 77.0661 111.307 77.2558 111.496 77.1609C111.686 77.0661 111.354 77.2084 111.354 77.2084L111.164 77.3032C110.785 77.4455 111.402 77.2558 110.975 77.3506C110.832 77.3981 110.69 77.4455 110.548 77.4455C109.694 77.6826 108.793 77.7775 107.939 77.73C107.845 77.6826 107.75 77.6826 107.655 77.6826C107.465 77.6826 107.797 77.73 107.892 77.8249C107.892 77.8249 108.082 78.062 107.987 77.9672C108.034 78.0146 108.034 78.2517 108.034 78.1094C108.034 77.9672 107.939 78.2991 108.034 78.2043C108.129 78.1094 108.129 77.8723 108.034 78.1569C108.509 76.829 109.22 75.9279 110.074 74.8371C110.548 74.1731 111.07 73.5566 111.591 72.9401C111.828 72.6555 112.065 72.4184 112.35 72.1813L112.587 71.9916C112.682 71.8967 112.824 71.8019 112.919 71.707C113.014 71.6122 113.156 71.5173 113.299 71.4225C113.061 71.6122 113.251 71.4699 113.346 71.3751C113.441 71.2802 113.156 71.3751 113.251 71.4225H113.536C113.678 71.4699 113.773 71.4699 113.868 71.5648C114.247 71.7545 114.532 72.039 114.816 72.371C114.864 72.4184 114.911 72.5133 114.958 72.5607C114.864 72.4658 114.911 72.5133 114.958 72.6081C115.006 72.6555 115.006 72.703 115.053 72.7978C115.622 73.9834 117.757 72.9401 117.14 71.8493Z" fill="#0A0A0F"/>
<path d="M103.529 80.6228C103.529 80.6228 132.886 68.4345 133.407 68.5294C133.929 68.6242 134.64 70.1418 134.403 70.6635C134.166 71.1852 105 83.1363 104.668 83.1838C104.336 83.2312 100.826 83.1363 100.826 83.1363L103.529 80.6228Z" fill="#0A0A0F"/>
<path d="M104.051 81.7134C107.703 80.1958 111.355 78.6782 115.054 77.1606C120.508 74.9316 125.962 72.6552 131.416 70.5211C132.08 70.2365 132.743 69.9994 133.455 69.7623L133.692 69.6674C133.502 69.6674 133.882 69.62 133.692 69.6674C133.882 69.6674 133.455 69.62 133.455 69.62C133.265 69.62 133.407 69.5252 133.36 69.5726C133.313 69.62 133.36 69.62 133.455 69.7149C133.55 69.8097 133.597 69.9994 133.55 69.9994C133.645 70.1417 133.455 70.0943 133.597 69.9046C133.787 69.62 133.645 69.7623 133.645 69.8097C133.739 69.62 133.834 69.7149 133.692 69.7623C133.55 69.8097 133.502 69.8571 133.455 69.9046C133.218 70.0468 132.933 70.1891 132.649 70.284C131.795 70.6634 130.941 71.0428 130.088 71.4222C124.397 73.8883 118.706 76.2596 112.967 78.5834C110.643 79.5319 108.32 80.4804 105.996 81.4289L104.288 82.0928C104.241 82.0928 104.194 82.1403 104.146 82.1403C104.146 82.1403 104.431 82.1403 104.146 82.0928C103.435 81.998 102.676 82.0928 102.012 82.0928L100.447 82.0454L101.49 84.0847L104.241 81.5712C104.952 80.9072 103.672 78.9628 102.866 79.7216L100.115 82.2351C99.783 82.5197 99.9727 83.1836 100.162 83.5156C100.352 83.9424 100.731 84.227 101.158 84.2744L102.913 84.3218C103.577 84.3693 104.288 84.3693 104.952 84.3218C105.379 84.227 105.759 84.0847 106.138 83.9424C108.225 83.0888 110.311 82.2351 112.398 81.3815C118.326 78.9628 124.302 76.4967 130.183 73.9357C131.226 73.5089 132.222 73.0346 133.265 72.6078C133.787 72.4181 134.356 72.1335 134.878 71.849C135.257 71.5644 135.447 71.1376 135.352 70.6634C135.304 69.62 134.641 68.1973 133.692 67.6282C133.123 67.2962 132.601 67.5807 132.08 67.7704C126.958 69.62 121.931 71.8016 116.903 73.8883C112.351 75.7379 107.845 77.6349 103.34 79.4845L103.103 79.5793C102.059 79.9587 103.103 82.0928 104.051 81.7134Z" fill="#0A0A0F"/>
<path d="M115.244 79.8165C115.244 79.8165 115.529 82.0455 114.39 82.2827C113.252 82.5198 111.023 80.7176 108.605 80.0062C106.186 79.2949 105.854 81.9981 107.609 83.99C109.363 85.9818 110.264 87.7366 112.968 89.3016C115.671 90.8666 117.9 90.2501 117.9 90.2501C118.279 90.4872 122.832 102.012 127.527 110.074C131.606 117.093 136.538 119.749 143.794 116.287C150.434 113.062 156.978 109.125 156.978 105.9C156.978 99.3557 157.358 87.5943 157.358 87.5943C157.358 87.5943 139.763 102.391 137.676 98.5969C136.491 96.4628 125.156 75.7854 125.156 75.7854" fill="white"/>
<path d="M114.485 79.2949C114.58 79.8166 114.533 80.3383 114.343 80.8125C113.964 81.6188 113.11 81.1919 112.493 80.9074C111.308 80.3857 110.217 79.7218 109.031 79.2475C108.225 78.963 107.087 78.5361 106.328 79.2001C105.617 79.7692 105.617 80.8125 105.806 81.6188C106.091 82.8044 106.66 83.9426 107.514 84.8437C109.079 86.6933 110.454 88.6851 112.541 90.013C114.201 91.0564 116.43 91.91 118.469 91.3409L117.995 91.2461C117.995 91.2461 117.473 90.7718 117.52 90.677C117.52 90.7244 117.568 90.7244 117.568 90.7718C117.615 90.8667 117.663 90.9141 117.71 91.009C117.52 90.677 117.71 90.9615 117.758 91.1038C117.805 91.2461 117.9 91.4358 117.995 91.5781C118.374 92.4317 118.753 93.3328 119.18 94.1865C120.366 96.8423 121.552 99.4507 122.785 102.059C124.207 105.047 125.678 108.035 127.385 110.88C128.855 113.346 130.705 115.812 133.171 117.33C135.257 118.658 137.818 119.18 140.237 118.705C141.66 118.421 143.083 117.946 144.363 117.33C146.118 116.476 147.873 115.575 149.58 114.579C151.097 113.726 152.615 112.777 153.99 111.686C155.081 110.88 156.03 109.932 156.836 108.888C157.452 107.987 157.737 106.944 157.642 105.853C157.642 104.573 157.642 103.292 157.69 102.012C157.737 97.5536 157.879 93.0483 158.022 88.5903C158.022 88.4954 158.022 88.4006 158.022 88.3532C158.022 87.8789 157.879 87.4521 157.547 87.0727C157.405 86.883 156.931 86.3613 156.646 86.551C154.654 88.2109 152.615 89.8233 150.528 91.3409C148.774 92.6688 146.971 93.9019 145.122 95.0875C143.557 96.1309 141.897 97.032 140.142 97.7434C139.573 97.9805 139.004 98.1228 138.388 98.1228C138.293 98.1228 138.15 98.1228 138.008 98.1228C137.961 98.1228 137.818 98.0753 137.961 98.1228L137.818 98.0753C137.581 97.9805 137.866 98.1228 137.724 98.0279C137.818 98.1228 137.913 98.2176 138.008 98.3599C137.818 97.9805 137.629 97.6011 137.439 97.2691L136.396 95.3721C134.262 91.5306 132.175 87.6892 130.041 83.8478C128.571 81.1445 127.1 78.3939 125.535 75.6906C125.488 75.6432 125.488 75.5958 125.44 75.5483C125.298 75.2638 124.776 74.5524 124.397 74.7895C124.018 75.0267 124.397 75.8329 124.539 76.07L128.428 83.1838C130.61 87.1675 132.791 91.1512 135.02 95.135C135.684 96.3206 136.301 97.5062 136.965 98.6919C137.629 99.8775 138.577 100.494 139.953 100.257C141.612 99.9249 143.177 99.0713 144.6 98.265C146.497 97.1743 148.347 95.9412 150.102 94.6607C151.761 93.4751 153.421 92.242 155.034 90.9615C155.935 90.2502 156.836 89.5862 157.69 88.8274L157.832 88.7326L156.504 86.9304C156.314 92.7163 156.172 98.4547 156.125 104.241C156.172 104.857 156.125 105.521 155.935 106.138C155.65 106.802 155.223 107.466 154.702 107.987C153.279 109.552 151.382 110.785 149.58 111.876C147.351 113.204 145.074 114.437 142.703 115.528C141.043 116.334 139.194 116.808 137.297 116.856C133.787 116.856 131.084 114.674 129.14 111.971C127.954 110.264 126.911 108.461 126.01 106.612C125.014 104.715 124.065 102.77 123.117 100.779C121.694 97.7433 120.366 94.7081 118.991 91.6729C118.659 90.9141 118.232 89.5862 117.331 89.3491C117.283 89.3491 117.236 89.3965 117.141 89.3965C117.331 89.3965 117.141 89.3965 117.094 89.3965C116.809 89.4439 116.525 89.4439 116.24 89.4439C115.291 89.4439 114.39 89.2542 113.489 88.9223C111.497 88.0686 110.075 86.551 108.747 84.8911C108.13 84.1323 106.186 82.425 107.371 81.3342C108.035 80.7651 109.031 81.2868 109.695 81.5239C110.691 81.9507 111.64 82.4724 112.588 82.9467C113.205 83.2312 114.058 83.7055 114.77 83.4684C115.481 83.2312 115.671 82.5199 115.766 81.9033C115.813 81.4291 115.813 80.9548 115.766 80.4806C115.671 79.9115 115.386 79.3898 114.912 79.0104C114.722 78.6784 114.39 78.8207 114.485 79.2949Z" fill="#0A0A0F"/>
<path d="M117.473 72.2761C117.283 71.9915 117.046 71.707 116.809 71.4224C116.762 71.3276 116.667 71.2802 116.572 71.1853C116.477 71.1853 116.382 71.1853 116.335 71.1853C116.24 71.1853 116.098 71.1853 116.003 71.2327C115.861 71.2802 115.718 71.3276 115.576 71.4224C115.434 71.4699 115.291 71.5647 115.149 71.6596L114.912 71.8493C114.817 71.9441 114.675 72.039 114.627 72.1812L114.58 72.3235C114.58 72.4184 114.627 72.5132 114.675 72.5132L114.58 72.4184C114.722 72.5606 114.817 72.6555 114.912 72.7978C115.054 72.94 115.149 73.1297 115.291 73.272L115.386 73.3669C115.434 73.4143 115.481 73.4617 115.576 73.4617C115.671 73.5091 115.766 73.5091 115.861 73.4617C116.003 73.4617 116.098 73.4143 116.24 73.3669C116.382 73.3194 116.525 73.272 116.667 73.1772L116.951 72.9875C117.094 72.8926 117.236 72.7503 117.378 72.6555L117.52 72.4658C117.473 72.4658 117.473 72.3235 117.473 72.2761Z" fill="#0A0A0F"/>
<path d="M134.878 117.425C134.878 117.425 133.361 101.3 136.918 95.6091C136.918 95.6091 154.844 89.7284 155.793 91.0563C156.741 92.3842 154.844 110.785 150.766 114.342C146.687 117.899 137.866 120.65 134.878 117.425Z" fill="#0A0A0F"/>
<path d="M135.875 117.662C135.685 115.765 135.638 113.868 135.591 111.971C135.448 108.366 135.638 104.81 136.207 101.253C136.444 99.5454 137.013 97.8855 137.867 96.3679L137.535 96.6524C140.333 95.7514 143.131 94.8977 145.929 94.0915C148.016 93.475 150.055 92.9059 152.189 92.479C152.616 92.3842 153.091 92.2893 153.517 92.1945C153.944 92.0996 153.992 92.0996 154.466 92.0522C154.75 92.0048 155.035 92.0048 155.319 92.0048H155.651C155.841 92.0048 155.462 91.9573 155.557 92.0048C155.604 92.0048 155.651 92.0048 155.699 92.0522C155.699 92.0522 155.414 91.9099 155.557 92.0048C155.367 91.9099 155.225 91.7676 155.082 91.5779C155.082 91.5305 154.845 91.1511 154.988 91.3882C155.13 91.6254 154.988 91.1511 154.988 91.4357C154.988 91.5305 155.035 91.6728 155.035 91.7676C155.082 92.0996 155.082 92.3842 155.082 92.7162C155.082 92.9059 155.082 93.0481 155.082 93.2378C155.082 93.3327 155.082 93.4275 155.082 93.5224C155.082 93.7121 155.082 93.5224 155.082 93.7121C154.988 95.8936 154.75 98.0278 154.418 100.162C154.086 102.628 153.565 105.094 152.901 107.513C152.379 109.362 151.715 111.307 150.624 112.872C150.577 112.967 150.482 113.109 150.387 113.204C150.245 113.346 150.15 113.441 150.008 113.583C149.486 114.058 148.917 114.484 148.301 114.816C147.068 115.623 145.74 116.239 144.364 116.761C142.989 117.282 141.566 117.614 140.096 117.804C138.863 117.994 137.63 117.899 136.444 117.472C136.349 117.425 136.302 117.377 136.207 117.377C136.112 117.33 136.017 117.282 135.923 117.188C135.875 117.14 135.828 117.093 135.78 117.045L135.591 116.903C135.638 116.95 135.733 117.045 135.591 116.903C135.259 116.571 134.642 116.144 134.168 116.524C133.694 116.903 133.978 117.614 134.31 117.946C137.156 120.934 142.04 119.986 145.502 118.705C147.494 117.994 149.391 116.95 151.099 115.67C152.095 114.864 152.853 113.868 153.375 112.682C154.798 109.647 155.509 106.28 156.078 102.96C156.647 99.8774 156.979 96.7473 157.027 93.6172C157.074 92.7636 157.027 91.9574 156.79 91.1511C156.41 90.1078 155.462 89.7758 154.418 89.8232C153.28 89.9181 152.142 90.1078 151.004 90.3923C149.534 90.7243 148.111 91.1037 146.641 91.4831C143.843 92.2419 141.092 93.0956 138.294 93.9492C137.677 94.1389 137.013 94.3286 136.397 94.5657C135.97 94.7554 135.733 95.2297 135.543 95.6565C135.211 96.3679 134.927 97.1267 134.69 97.9329C133.694 101.442 133.551 105.236 133.504 108.841C133.504 111.449 133.599 114.105 133.788 116.713C133.788 116.856 133.788 116.998 133.836 117.14C133.931 117.757 134.358 118.231 134.927 118.421C135.259 118.563 135.685 118.373 135.828 118.041C135.875 117.899 135.923 117.804 135.875 117.662Z" fill="#0A0A0F"/>
<path d="M154.086 190.27L149.628 190.554C149.628 190.554 137.535 194.064 138.768 196.625C140.001 199.186 146.641 200.182 155.414 199.755C164.188 199.328 167.27 196.435 163.998 190.08L154.086 190.27Z" fill="white"/>
<path d="M154.368 189.748L150.194 189.985C149.246 190.08 148.345 190.317 147.444 190.649C145.831 191.171 144.219 191.74 142.654 192.452C141.089 193.163 139.476 193.827 138.291 194.965C137.864 195.297 137.579 195.771 137.484 196.34C137.532 196.909 137.816 197.431 138.291 197.763C139.761 199.091 141.942 199.518 143.839 199.85C146.827 200.324 149.862 200.466 152.898 200.372C155.743 200.324 158.636 200.182 161.387 199.376C163.236 198.807 165.37 197.811 166.129 195.866C166.888 193.922 166.034 191.645 165.086 189.796C164.944 189.559 164.422 189.559 164.232 189.559L154.368 189.748C153.988 189.748 153.135 189.843 152.992 190.317C152.85 190.792 153.656 190.839 153.893 190.839L163.805 190.649L162.952 190.412C163.711 191.882 164.422 193.732 164.09 195.392C163.758 196.72 162.762 197.763 161.482 198.237C159.537 199.044 157.213 199.233 155.032 199.328C152.186 199.47 149.293 199.423 146.448 199.091C144.646 198.854 142.654 198.569 141.089 197.573C140.614 197.289 140.235 196.91 139.998 196.435C139.903 196.103 139.998 195.724 140.282 195.534C141.136 194.586 142.464 193.969 143.65 193.447C145.12 192.784 146.637 192.214 148.202 191.693L148.724 191.503L148.961 191.408C148.677 191.503 148.914 191.408 148.961 191.408L149.72 191.171C149.815 191.124 149.957 191.124 150.099 191.076C150.384 190.981 149.151 191.171 149.72 191.124C151.143 191.076 152.566 190.934 153.988 190.886C154.368 190.886 155.221 190.792 155.364 190.317C155.506 189.843 154.605 189.748 154.368 189.748Z" fill="#0A0A0F"/>
<path d="M149.911 175.331C149.911 175.331 153.42 187.14 152.898 188.373C152.377 189.606 143.65 192.404 144.931 192.546C145.927 192.641 148.203 194.68 155.886 193.969C163.664 193.21 163.332 192.262 163.806 190.649C164.28 189.037 164.28 173.244 164.28 173.244L149.911 175.331Z" fill="white"/>
<path d="M148.726 175.426C149.201 176.991 149.627 178.603 150.102 180.168C150.813 182.54 151.382 184.911 151.762 187.377C151.762 187.567 151.809 187.709 151.809 187.899V188.136C151.809 188.231 151.856 188.42 151.809 188.183C151.809 188.231 151.809 188.278 151.762 188.278C151.714 188.373 151.856 188.088 151.762 188.278C151.714 188.326 151.524 188.468 151.762 188.326C151.667 188.373 151.619 188.468 151.524 188.515C150.623 189.084 149.627 189.559 148.631 189.938C147.541 190.412 146.402 190.839 145.312 191.313C144.837 191.503 143.13 192.167 143.889 192.926C144.126 193.115 144.411 193.21 144.695 193.21C144.885 193.258 144.458 193.21 144.553 193.21C144.6 193.21 144.648 193.21 144.695 193.258C144.885 193.305 144.458 193.163 144.648 193.258C144.695 193.305 144.743 193.305 144.837 193.305L145.312 193.495C146.26 193.922 147.304 194.206 148.299 194.443C152.236 195.202 156.409 194.823 160.298 194.111C161.958 193.827 164.187 193.353 164.803 191.503C165.23 190.128 165.278 188.657 165.325 187.235C165.515 182.634 165.515 178.034 165.562 173.481V173.197C165.562 172.675 164.661 172.533 164.329 172.58L151.714 174.43L149.912 174.667C149.485 174.762 148.726 174.904 148.726 175.426C148.774 175.995 149.627 176.137 149.959 176.09L162.574 174.24L164.377 174.003L163.144 173.387C163.144 177.275 163.096 181.164 163.001 185.053C162.954 186.191 162.954 187.377 162.859 188.515C162.859 188.942 162.812 189.369 162.764 189.796C162.764 189.938 162.717 190.08 162.717 190.223C162.717 190.27 162.717 190.365 162.717 190.412C162.717 190.412 162.717 190.317 162.717 190.46C162.622 190.934 162.48 191.361 162.29 191.788C162.195 191.977 162.337 191.693 162.29 191.788C162.242 191.835 162.195 191.882 162.195 191.93L162.053 192.072C162.005 192.12 162.195 191.977 162.005 192.12C161.958 192.167 161.91 192.214 161.816 192.214C161.579 192.357 161.911 192.167 161.768 192.262C161.626 192.357 161.341 192.451 161.152 192.499C160.962 192.546 161.341 192.451 161.152 192.499L160.962 192.546L160.583 192.641C160.203 192.736 159.871 192.783 159.492 192.878C158.591 193.068 157.642 193.163 156.741 193.258C154.749 193.495 152.757 193.542 150.813 193.4C149.675 193.305 148.537 193.068 147.446 192.689C147.446 192.689 147.541 192.736 147.351 192.641L147.066 192.546L146.592 192.357C146.308 192.214 146.023 192.12 145.691 192.025C145.549 191.977 145.027 191.835 145.312 191.93C145.596 192.025 146.023 192.214 145.976 192.594C146.023 192.404 145.833 192.831 145.928 192.736C145.786 192.831 145.739 192.878 145.833 192.831L145.881 192.783C145.928 192.736 145.976 192.736 146.023 192.689C145.881 192.736 145.881 192.783 146.023 192.689L146.592 192.404C147.636 191.93 148.726 191.503 149.77 191.076C150.86 190.649 151.951 190.128 152.995 189.511C153.659 189.132 154.18 188.657 154.18 187.851C154.133 186.998 154.038 186.144 153.801 185.29C153.564 184.057 153.232 182.777 152.9 181.544C152.378 179.552 151.809 177.513 151.24 175.521C151.192 175.426 151.192 175.284 151.145 175.189C151.003 174.667 150.386 174.572 149.912 174.572C149.58 174.667 148.584 174.904 148.726 175.426Z" fill="#0A0A0F"/>
<path d="M162.764 191.408L158.306 191.693C158.306 191.693 146.213 195.202 147.446 197.763C148.679 200.324 155.318 201.32 164.092 200.893C172.866 200.466 175.948 197.573 172.676 191.218L162.764 191.408Z" fill="white"/>
<path d="M162.384 190.317L158.21 190.554C157.499 190.649 156.787 190.839 156.124 191.124C154.464 191.645 152.851 192.262 151.239 192.973C149.769 193.59 148.156 194.301 147.065 195.487C145.975 196.672 146.354 198.285 147.492 199.328C149.01 200.703 151.096 201.178 153.041 201.557C155.981 202.031 158.969 202.221 161.957 202.079C164.707 202.031 167.6 201.937 170.256 201.083C172.106 200.466 174.003 199.423 174.619 197.479C175.378 195.202 174.43 192.783 173.434 190.792C173.244 190.46 172.912 190.222 172.533 190.175L162.621 190.365C161.245 190.412 161.72 192.641 162.905 192.594L172.817 192.404L171.869 191.74C172.248 192.499 172.58 193.353 172.817 194.159C172.865 194.396 172.912 194.586 172.912 194.823C172.912 194.918 172.959 195.344 172.959 195.155C172.959 195.297 172.959 195.487 172.912 195.629C172.912 195.724 172.817 196.198 172.865 196.008C172.817 196.198 172.77 196.34 172.675 196.53C172.627 196.577 172.485 196.909 172.533 196.815C172.343 197.099 172.153 197.384 171.869 197.621C171.3 198.095 170.683 198.474 169.972 198.759C167.838 199.565 165.466 199.755 163.237 199.85C160.344 199.992 157.404 199.945 154.511 199.613C153.42 199.518 152.377 199.328 151.334 199.044C150.907 198.949 150.432 198.806 150.006 198.617C149.816 198.569 149.674 198.474 149.484 198.38L149.199 198.237C149.342 198.332 149.152 198.19 149.105 198.19C148.962 198.095 148.82 198 148.678 197.905C148.63 197.858 148.583 197.811 148.488 197.763C148.725 197.953 148.488 197.763 148.488 197.716C148.488 197.668 148.204 197.289 148.393 197.621C148.346 197.573 148.298 197.479 148.298 197.431C148.204 197.194 148.393 197.668 148.346 197.479C148.346 197.431 148.346 197.763 148.393 197.716C148.441 197.479 148.298 197.905 148.441 197.621C148.583 197.336 148.346 197.716 148.488 197.526C148.583 197.431 148.678 197.336 148.725 197.241C148.773 197.147 148.82 197.147 148.867 197.099C148.725 197.241 148.82 197.147 148.867 197.099C149.01 197.004 149.152 196.862 149.294 196.767C149.579 196.577 149.863 196.388 150.195 196.198C150.907 195.819 151.618 195.439 152.377 195.107C153.8 194.491 155.222 193.969 156.74 193.447C157.451 193.163 158.21 192.926 158.969 192.783C160.392 192.641 161.815 192.594 163.237 192.546C163.854 192.499 163.901 191.693 163.759 191.266C163.522 190.649 162.953 190.27 162.384 190.317Z" fill="#0A0A0F"/>
<path d="M158.59 176.469C158.59 176.469 162.1 188.278 161.578 189.511C161.056 190.744 152.33 193.542 153.611 193.684C154.606 193.779 156.883 195.866 164.566 195.107C172.344 194.348 172.012 193.4 172.486 191.787C172.96 190.175 172.96 174.382 172.96 174.382L158.59 176.469Z" fill="white"/>
<path d="M157.453 176.849C157.928 178.414 158.354 180.026 158.781 181.591C159.493 183.962 160.062 186.381 160.441 188.8C160.488 189.037 160.441 189.274 160.441 189.606C160.441 189.748 160.441 189.606 160.441 189.559C160.346 189.701 160.583 189.416 160.441 189.559C160.299 189.701 160.631 189.464 160.441 189.559C160.346 189.606 160.251 189.701 160.204 189.748C159.967 189.938 160.299 189.701 160.109 189.796C160.014 189.843 159.919 189.891 159.825 189.985C159.587 190.128 159.303 190.27 159.018 190.412L158.212 190.792L157.501 191.124C156.315 191.598 155.177 192.072 153.991 192.594C153.517 192.784 151.81 193.542 152.474 194.254C152.616 194.396 152.806 194.443 152.995 194.491C153.28 194.538 152.853 194.396 153.09 194.491L153.896 194.823C154.845 195.202 155.841 195.534 156.837 195.724C158.639 196.056 160.441 196.151 162.243 196.056C164.377 195.961 166.511 195.724 168.598 195.344C170.448 194.965 172.772 194.396 173.388 192.404C173.72 191.029 173.91 189.653 173.862 188.231C174.052 183.678 174.052 179.078 174.1 174.525V174.24C174.1 173.719 173.436 173.719 173.056 173.766L160.536 175.568L158.734 175.805C158.307 175.853 157.548 176.185 157.501 176.706C157.453 177.228 158.212 177.228 158.544 177.181L171.112 175.331L172.914 175.094L171.871 174.62C171.871 178.509 171.823 182.445 171.728 186.334C171.681 187.472 171.681 188.61 171.586 189.748C171.586 190.46 171.491 191.124 171.396 191.835C171.349 192.072 171.301 192.262 171.207 192.499C171.207 192.594 171.064 192.878 171.159 192.689C171.112 192.784 171.064 192.926 171.017 193.021C170.969 193.068 170.969 193.116 170.922 193.163C170.875 193.21 170.827 193.258 170.78 193.305C171.017 193.068 170.78 193.258 170.732 193.353C170.685 193.447 170.969 193.21 170.732 193.353L170.495 193.495C170.258 193.637 170.732 193.447 170.448 193.495C170.305 193.542 170.211 193.59 170.068 193.637L169.689 193.732C169.926 193.685 169.594 193.779 169.499 193.779C169.12 193.874 168.74 193.922 168.361 194.017C167.46 194.159 166.511 194.301 165.563 194.396C163.571 194.633 161.579 194.681 159.587 194.491C158.449 194.396 157.358 194.159 156.268 193.779C155.651 193.542 155.082 193.258 154.418 193.068C154.371 193.068 154.323 193.068 154.276 193.021C154.086 192.973 154.276 193.021 154.371 193.068C154.608 193.258 154.608 193.495 154.418 193.779C154.323 193.874 154.323 193.874 154.228 193.922C154.133 194.064 154.181 193.922 154.276 193.922L154.513 193.827C154.703 193.732 154.892 193.637 155.082 193.542C155.129 193.542 155.177 193.495 155.224 193.495L155.604 193.353L156.457 193.021C157.026 192.784 157.596 192.546 158.165 192.309C159.303 191.835 160.441 191.313 161.484 190.649C162.101 190.27 162.717 189.748 162.717 188.99C162.67 188.088 162.528 187.14 162.338 186.286C162.101 185.053 161.769 183.82 161.437 182.635C160.915 180.595 160.346 178.603 159.73 176.564L159.635 176.232C159.445 175.236 157.169 175.995 157.453 176.849Z" fill="#0A0A0F"/>
<path d="M151.573 91.6728C151.573 91.6728 124.351 169.64 126.342 174.667C128.334 179.694 180.075 188.8 196.532 157.499C196.532 157.499 170.638 82.1877 164.188 82.1877C157.738 82.1877 151.573 91.6728 151.573 91.6728Z" fill="#0A0A0F"/>
<path d="M150.718 91.0088C150.244 92.3841 149.77 93.7594 149.295 95.1822C148.062 98.7865 146.829 102.391 145.596 105.995C143.889 110.975 142.229 116.002 140.569 120.982C138.72 126.53 136.87 132.126 135.115 137.723C133.408 143.034 131.748 148.346 130.183 153.657C128.903 157.973 127.67 162.289 126.579 166.652C126.199 168.122 125.867 169.592 125.63 171.063C125.441 172.058 125.346 173.054 125.346 174.05C125.535 176.422 128.333 177.465 130.231 178.129C134.167 179.409 138.245 180.263 142.419 180.595C147.968 181.164 153.564 181.164 159.065 180.642C165.135 180.073 171.064 178.651 176.755 176.422C182.493 174.145 187.662 170.636 191.883 166.178C192.974 164.992 193.97 163.759 194.871 162.479C195.345 161.767 195.82 161.056 196.246 160.344C196.768 159.633 197.195 158.874 197.479 158.068C197.622 157.546 197.29 156.835 197.1 156.313C196.199 153.705 195.25 151.097 194.349 148.488C192.784 144.078 191.172 139.62 189.559 135.209C187.615 129.897 185.623 124.586 183.536 119.274C181.497 113.963 179.363 108.651 177.134 103.434C175.237 98.9762 173.293 94.5182 171.111 90.1551C170.305 88.5901 169.499 87.025 168.55 85.5074C167.886 84.3692 167.127 83.3259 166.274 82.3774C165.894 81.9506 165.467 81.6186 164.993 81.334C164.471 81.0969 163.855 81.002 163.286 81.0969C159.824 81.3814 156.836 83.895 154.512 86.3137C153.137 87.689 151.951 89.2066 150.86 90.8191C150.528 91.3407 150.623 91.9573 151.003 92.3841C151.287 92.7161 152.046 93.0481 152.378 92.5738C153.089 91.483 153.896 90.4397 154.749 89.4437C156.362 87.4519 158.306 85.7446 160.535 84.4641C161.626 83.8476 162.812 83.4682 164.045 83.3259C164.187 83.3259 164.329 83.3259 164.424 83.3259H164.377C164.424 83.3259 164.471 83.3259 164.519 83.3733C164.661 83.4207 164.234 83.231 164.424 83.3733L164.614 83.4207C164.851 83.4682 164.471 83.3259 164.566 83.3733C164.661 83.4207 164.661 83.4682 164.756 83.4682C164.851 83.4682 164.993 83.6579 165.088 83.7527C164.898 83.6104 164.898 83.563 165.041 83.7527L165.23 83.9424C165.373 84.0847 165.467 84.227 165.61 84.3692C165.752 84.5115 165.894 84.7012 166.037 84.8909L166.226 85.1755C166.274 85.2703 166.416 85.46 166.179 85.128L166.321 85.3177C166.606 85.7446 166.89 86.2188 167.175 86.6931C167.886 87.8313 168.503 89.0169 169.119 90.2025C170.732 93.2852 172.154 96.4152 173.577 99.5927C173.767 100.02 173.957 100.494 174.146 100.921L174.289 101.253C174.336 101.3 174.431 101.537 174.336 101.347C174.431 101.585 174.573 101.869 174.668 102.106C175.095 103.055 175.474 104.003 175.854 104.952C176.707 106.944 177.513 108.935 178.32 110.927C179.98 115.053 181.592 119.179 183.157 123.353C184.722 127.384 186.24 131.462 187.71 135.494C188.99 139.003 190.271 142.56 191.551 146.069C192.5 148.678 193.401 151.239 194.302 153.847C194.729 155.08 195.108 156.361 195.582 157.594C195.582 157.641 195.63 157.689 195.63 157.783V156.977C192.073 163.617 186.524 169.023 179.837 172.485C173.435 175.9 166.226 177.702 159.018 178.508C152.568 179.22 146.071 179.125 139.668 178.271C137.155 177.939 134.688 177.465 132.27 176.801L131.938 176.706C132.222 176.801 131.843 176.659 131.748 176.659L130.989 176.422C130.562 176.279 130.136 176.137 129.709 175.947C129.282 175.758 128.997 175.663 128.618 175.473L128.191 175.236L127.954 175.094C127.67 174.951 128.144 175.236 127.954 175.094C127.764 174.951 127.527 174.809 127.29 174.619C127.053 174.43 127.48 174.857 127.29 174.572C127.148 174.43 127.053 174.24 127.243 174.572C127.1 174.335 127.195 174.525 127.243 174.619C127.243 174.572 127.243 174.572 127.195 174.525C127.1 174.287 127.29 174.619 127.195 174.667C127.195 174.477 127.195 174.335 127.148 174.145C127.148 173.766 127.148 174.335 127.148 174.098C127.148 173.955 127.148 173.813 127.148 173.718C127.195 173.434 127.195 173.149 127.243 172.817C127.338 172.058 127.48 171.347 127.622 170.588C128.049 168.502 128.571 166.462 129.092 164.423C129.472 163.048 129.709 162.052 130.088 160.771C130.468 159.349 130.894 157.973 131.274 156.598C133.171 150.148 135.163 143.746 137.202 137.391C139.336 130.751 141.518 124.159 143.699 117.567C145.549 112.113 147.351 106.659 149.248 101.205C150.197 98.4071 151.145 95.609 152.141 92.7635L152.283 92.3841C152.473 91.815 152.283 91.151 151.762 90.8191C151.572 90.4871 150.908 90.4397 150.718 91.0088Z" fill="#0A0A0F"/>
<path d="M179.126 77.8721C185.528 62.0321 176.47 54.7286 169.403 52.1677C162.337 49.6067 156.836 51.0769 154.654 53.7327C153.042 55.7246 154.796 70.6635 154.796 70.6635L164.187 85.4127C164.139 85.4602 174.241 89.9656 179.126 77.8721Z" fill="#0A0A0F"/>
<path d="M145.975 75.6431C143.035 69.1932 154.274 56.6256 154.274 56.6256C157.025 57.005 162.099 56.009 162.099 56.009C158.116 63.5022 166.605 68.9087 166.605 68.9087C169.925 65.257 174.335 68.4819 172.628 72.6079C170.921 76.7339 166.842 75.7854 166.842 75.7854C166.842 75.7854 165.419 86.8829 164.518 88.4005C164.518 88.4005 156.219 90.8666 153.99 83.3734C153.942 83.3734 148.014 80.0062 145.975 75.6431Z" fill="white"/>
<path d="M147.113 75.2639C146.591 73.9834 146.496 72.608 146.828 71.2801C147.208 69.6203 147.777 68.0552 148.583 66.585C150.101 63.7395 151.855 61.0837 153.895 58.6176C154.084 58.4279 154.227 58.1908 154.416 57.9537L154.511 57.8588L154.701 57.6217L155.08 57.1948L153.942 57.5743C156.598 57.9537 159.443 57.4794 162.052 56.9577L161.056 55.6298C159.68 58.2382 159.396 61.1311 160.629 63.8344C161.577 65.7788 162.905 67.4861 164.613 68.814C164.945 69.0986 165.324 69.3831 165.703 69.6203C166.225 69.9048 166.889 69.8574 167.363 69.4306C167.743 68.9563 168.264 68.5769 168.834 68.3398C169.213 68.1975 169.64 68.1975 170.067 68.2923C170.968 68.6243 171.632 69.4306 171.726 70.3791C171.869 71.6121 171.442 72.8926 170.541 73.7463C170.399 73.8885 170.256 74.0308 170.067 74.1731C169.972 74.2679 169.829 74.3154 169.687 74.4102C169.64 74.4576 169.308 74.5999 169.497 74.5051C169.308 74.5999 169.071 74.6473 168.881 74.6948C168.691 74.7422 169.023 74.6948 168.739 74.7422L168.407 74.7896L168.027 74.837C167.98 74.837 167.695 74.837 167.838 74.837C167.98 74.837 167.743 74.837 167.695 74.837H167.458C167.316 74.837 167.174 74.7896 166.984 74.7896C166.273 74.6948 165.609 75.169 165.514 75.8804C165.087 79.2476 164.613 82.6622 163.901 85.982C163.806 86.4088 163.712 86.883 163.569 87.3099C163.522 87.4996 163.474 87.6418 163.38 87.8316C163.38 87.879 163.332 87.9738 163.332 88.0212C163.332 87.9738 163.427 87.8315 163.332 88.0212L164.044 87.4996C163.996 87.4996 163.949 87.4996 163.901 87.547C163.854 87.5944 163.759 87.5944 163.712 87.5944C163.617 87.6418 164.044 87.547 163.712 87.5944C163.237 87.6893 162.716 87.7367 162.241 87.7841C162.099 87.7841 161.957 87.7841 161.767 87.8316H161.483C161.103 87.8316 160.724 87.7841 160.392 87.7367C159.68 87.6418 158.969 87.4521 158.305 87.1676C157.641 86.8356 157.025 86.4088 156.503 85.8397C155.839 85.0335 155.317 84.1324 155.033 83.1364C154.843 82.6148 154.464 82.4725 154.037 82.1879C153.373 81.7611 152.709 81.3343 152.092 80.86C150.195 79.4373 148.204 77.5877 147.113 75.2639C146.828 74.7896 146.212 74.5525 145.69 74.7896C145.263 74.9319 144.599 75.501 144.884 76.0701C145.975 78.3939 147.824 80.2909 149.816 81.856C150.859 82.7096 151.998 83.4684 153.183 84.1798L152.899 83.8004C153.563 86.3139 155.412 88.3532 157.878 89.2543C159.68 89.8234 161.577 89.9657 163.427 89.6337C163.901 89.5863 164.376 89.4914 164.802 89.3492C165.656 89.0646 165.893 88.1635 166.083 87.4047C166.605 85.2232 167.031 82.9942 167.316 80.7178C167.553 79.0579 167.79 77.398 168.027 75.7381L166.557 76.8289C168.691 77.2083 170.873 76.5443 172.438 74.9793C173.671 73.6514 174.43 71.8492 174.145 70.0471C173.908 68.5295 172.865 67.2016 171.394 66.6799C169.355 65.9685 167.221 66.917 165.798 68.4346L167.458 68.2449C166.605 67.6758 165.798 66.9644 165.087 66.2056C163.664 64.688 162.479 62.8385 162.289 60.7517C162.147 59.2816 162.479 57.8114 163.142 56.4835C163.38 56.0566 163.237 55.535 162.811 55.2504C162.621 55.1081 162.336 55.1081 162.147 55.1556C160.06 55.5824 157.973 55.8195 155.839 55.8195C154.938 55.8195 153.989 55.535 153.325 56.2938C152.946 56.7206 152.567 57.1948 152.187 57.6217C149.389 61.0363 146.733 64.8303 145.216 69.0037C144.41 71.1853 143.888 73.8411 144.884 76.0701C145.168 76.5918 145.785 76.7815 146.307 76.5918C146.733 76.4021 147.35 75.833 147.113 75.2639Z" fill="#0A0A0F"/>
<path d="M154.228 65.6362C152.379 66.3002 150.482 66.6322 148.49 66.727C141.898 67.1064 140.949 69.288 142.799 70.8056C144.648 72.3232 153.564 72.2758 153.564 72.2758" fill="white"/>
<path d="M154.179 64.9725C154.7 64.7828 154.084 65.0199 153.894 65.0674C153.42 65.2096 152.946 65.3519 152.519 65.4468C150.906 65.7313 149.294 65.921 147.682 66.0159C145.547 66.253 142.512 66.7747 141.279 68.814C140.52 70.047 141.327 71.3749 142.56 71.8966C144.362 72.6554 146.448 72.7977 148.393 72.9399C149.958 73.0348 151.523 73.0822 153.135 73.1297C153.705 73.0822 154.274 72.7028 154.558 72.2286C154.795 71.7543 154.558 71.5172 154.084 71.5172H153.989H153.183C152.377 71.5172 151.57 71.4698 150.764 71.4223C148.867 71.3749 146.97 71.1378 145.073 70.711C144.504 70.6161 143.982 70.3316 143.556 69.9522C143.366 69.7625 143.224 69.5253 143.129 69.2882C143.129 69.2408 143.081 69.1934 143.081 69.0985C143.081 69.0511 143.081 69.0037 143.081 68.9088C143.081 68.7191 143.081 68.9562 143.081 68.814C143.081 68.7665 143.129 68.7191 143.129 68.6243C143.034 68.814 143.129 68.6717 143.129 68.6243C143.034 68.814 143.224 68.4346 143.129 68.6243C143.129 68.814 143.224 68.4346 143.129 68.6243C143.129 68.5768 143.461 68.3871 143.129 68.6243L143.366 68.482L143.745 68.2923C144.172 68.15 144.646 68.0077 145.073 67.9129C145.737 67.7706 146.401 67.6757 147.065 67.6283C149.531 67.3912 151.997 67.2015 154.321 66.3004C154.7 66.1581 155.364 65.6365 155.317 65.1622C155.27 64.688 154.463 64.9251 154.179 64.9725Z" fill="#0A0A0F"/>
<path d="M158.213 65.2569C157.739 65.1621 157.265 65.4466 157.122 65.9209C157.122 65.9683 157.122 66.0157 157.122 66.0632C157.028 67.0591 158.261 67.2014 158.593 66.3477C158.782 65.9683 158.687 65.4941 158.308 65.3044C158.308 65.3044 158.261 65.2569 158.213 65.2569Z" fill="#0A0A0F"/>
<path d="M152.141 62.5541C151.667 62.4592 151.192 62.7438 151.05 63.218C151.05 63.2654 151.05 63.3129 151.05 63.3603C150.955 64.3562 152.188 64.4985 152.52 63.6448C152.71 63.2654 152.615 62.7912 152.236 62.6015C152.188 62.6015 152.188 62.5541 152.141 62.5541Z" fill="#0A0A0F"/>
<path d="M172.63 80.291C172.724 81.7137 172.962 83.1839 173.341 84.5592C174.005 86.7408 175.238 89.1595 177.799 89.3018C179.222 89.3966 180.597 88.6378 181.688 87.7367C182.779 86.8357 183.68 85.65 183.68 84.1798C183.727 81.7612 181.166 79.9116 178.842 80.4807C175.523 81.2869 175.855 85.9346 176.518 88.4481C177.372 91.5782 179.269 95.1351 182.257 96.6527C183.443 97.2692 185.008 97.3641 186.098 96.5104C186.999 95.7042 187.521 94.5185 187.474 93.3329C187.426 91.4833 186.098 89.9183 184.581 89.0172C182.968 88.0687 180.692 87.547 179.032 88.6378C177.135 89.9183 177.609 92.669 178.178 94.4711C178.463 95.3722 178.842 96.2733 179.222 97.1269C179.649 98.0754 181.972 97.8857 181.403 96.7001C180.787 95.4196 180.312 94.0917 180.075 92.7164C179.981 92.2896 179.981 91.8627 180.028 91.4359C180.028 91.2462 180.075 91.0565 180.123 90.8668C180.123 90.772 180.17 90.6771 180.218 90.5823C180.17 90.772 180.218 90.5823 180.265 90.4874C180.36 90.3451 180.407 90.2503 180.502 90.108C180.407 90.2029 180.644 89.9183 180.502 90.108L180.692 89.9183C180.739 89.8709 180.787 89.8235 180.834 89.8235C180.597 89.9657 180.787 89.8709 180.882 89.8235L181.071 89.7286C180.834 89.776 181.166 89.6812 181.071 89.7286L181.308 89.6812C181.546 89.6337 181.261 89.6812 181.261 89.6812C181.403 89.6812 181.593 89.6812 181.735 89.6812C181.783 89.6812 181.451 89.6337 181.688 89.6812C181.783 89.6812 181.878 89.7286 181.925 89.7286L182.162 89.776C182.494 89.8235 182.067 89.7286 182.21 89.776C182.352 89.8235 182.541 89.8709 182.684 89.9657L182.921 90.0606C183.205 90.2029 182.779 89.9657 183.016 90.108C183.253 90.2503 183.3 90.2977 183.443 90.3926L183.632 90.5348C183.869 90.7245 183.632 90.5348 183.727 90.5823C184.012 90.8194 184.249 91.0565 184.486 91.3411C184.486 91.3411 184.439 91.2462 184.533 91.3885C184.581 91.4833 184.628 91.5308 184.676 91.6256C184.77 91.7679 184.865 91.9576 184.913 92.0999C185.008 92.2896 184.913 92.0999 184.96 92.1947C185.008 92.2896 185.008 92.337 185.008 92.4318C185.055 92.6215 185.102 92.7638 185.102 92.9535C185.102 93.0484 185.102 93.0958 185.102 93.1906C185.102 93.0009 185.102 93.2855 185.102 93.3329C185.102 93.5226 185.055 93.7123 185.008 93.902C184.913 94.3288 184.676 94.7557 184.391 95.1351L184.201 95.2774C184.154 95.3248 184.107 95.3248 184.059 95.3722C184.107 95.3722 184.201 95.2774 184.059 95.3722C184.012 95.4196 183.964 95.4196 183.917 95.4196H184.012L183.869 95.4671C183.727 95.5145 184.154 95.4671 183.869 95.4671H183.727C183.727 95.4671 183.964 95.5145 183.822 95.4671C183.775 95.4671 183.443 95.3722 183.585 95.4196C183.727 95.4671 183.443 95.3722 183.395 95.3248L183.205 95.2299C183.348 95.3248 183.253 95.2299 183.158 95.1825C182.684 94.898 182.257 94.566 181.878 94.1866C180.882 93.1432 180.075 91.9102 179.506 90.5823C178.842 89.1121 178.463 87.547 178.321 85.982C178.273 84.7964 178.321 83.421 179.079 82.4725C179.032 82.52 179.317 82.2828 179.411 82.188L179.554 82.1406C179.601 82.1406 179.649 82.0931 179.696 82.0931C179.554 82.1406 179.601 82.1406 179.696 82.0931L179.933 82.0457C179.601 82.0931 179.981 82.0931 179.981 82.0457C179.981 81.9983 180.218 82.0931 179.981 82.0457C180.028 82.0457 180.075 82.0931 180.123 82.0931C180.265 82.0931 179.838 81.9509 180.075 82.0931C180.123 82.1406 180.218 82.1406 180.312 82.188C180.312 82.188 180.17 82.0931 180.36 82.188C180.455 82.2354 180.55 82.2828 180.597 82.3777C180.407 82.2354 180.597 82.3777 180.644 82.4725C180.692 82.5674 180.787 82.6148 180.834 82.7097C180.692 82.52 180.882 82.7571 180.882 82.8045C180.882 82.8519 180.976 82.9468 181.024 83.0416C181.024 83.0891 181.071 83.0891 181.071 83.1365C181.166 83.3736 181.024 82.9942 181.119 83.2313C181.356 84.1324 181.119 85.0335 180.502 85.7449C180.075 86.2666 179.601 86.6934 179.032 87.0728C178.842 87.2151 178.605 87.3099 178.415 87.4522C178.273 87.4996 178.178 87.547 178.036 87.5945C177.941 87.6419 178.036 87.5945 178.084 87.5945L177.846 87.6419L177.704 87.6893C177.562 87.7367 177.894 87.6893 177.752 87.6893H177.562C177.894 87.6893 177.609 87.7367 177.514 87.6893C177.42 87.6419 177.752 87.7367 177.467 87.6419C177.182 87.547 177.562 87.7367 177.42 87.6419L177.182 87.4996C176.993 87.3573 177.277 87.5945 177.088 87.4522C176.993 87.3573 176.898 87.3099 176.85 87.2151C176.803 87.1202 176.661 86.9779 176.708 87.0728C176.756 87.1676 176.613 86.9305 176.613 86.8831C176.471 86.6934 176.376 86.5037 176.281 86.314C176.092 85.9346 175.949 85.5552 175.807 85.1758C175.333 83.7056 175.048 82.2354 174.953 80.7178C174.953 80.623 174.953 80.5281 174.953 80.4333C174.906 79.3899 172.582 79.2002 172.63 80.4333V80.291Z" fill="#0A0A0F"/>
<path d="M159.54 72.3707C159.54 72.4182 159.588 72.4656 159.588 72.513L159.493 72.3233C159.54 72.4656 159.54 72.5604 159.54 72.7027V72.4656C159.54 72.6079 159.493 72.7502 159.445 72.8924L159.54 72.7027C159.493 72.845 159.398 72.9398 159.303 73.0821L159.445 72.8924C159.351 72.9873 159.303 73.0821 159.208 73.1296L159.445 72.9873C159.351 73.0347 159.303 73.0821 159.208 73.1296L159.493 72.9873C159.445 73.0347 159.351 73.0347 159.303 73.0347L159.588 72.9398C159.54 72.9398 159.445 72.9873 159.398 72.9873H159.73C159.683 72.9873 159.588 72.9873 159.54 72.9873L159.825 73.0347C159.73 73.0347 159.683 72.9873 159.588 72.9873L159.825 73.0821C159.777 73.0821 159.73 73.0347 159.635 73.0347C159.351 72.8924 159.066 72.8924 158.781 72.9398C158.639 72.9398 158.497 72.9873 158.355 73.0821C158.212 73.1295 158.117 73.2244 158.023 73.3193C157.833 73.4615 157.738 73.6987 157.786 73.9358C157.833 74.1729 158.023 74.3626 158.212 74.4575C158.26 74.5049 158.307 74.5049 158.402 74.5049C158.544 74.5523 158.687 74.5997 158.829 74.6472C159.113 74.6946 159.445 74.6946 159.73 74.6946H159.872C160.015 74.6472 160.157 74.6472 160.299 74.5997C160.489 74.5523 160.678 74.4575 160.821 74.3152C161.153 74.1255 161.39 73.8409 161.627 73.5564C161.722 73.4141 161.769 73.2244 161.864 73.0821C161.912 72.9873 161.912 72.8924 161.912 72.7976C161.959 72.4182 161.912 72.0862 161.722 71.7542C161.58 71.5645 161.342 71.4222 161.105 71.3748C160.963 71.3274 160.821 71.3274 160.631 71.3274C160.489 71.3274 160.299 71.3748 160.157 71.4222C159.92 71.5171 159.683 71.6594 159.493 71.8965C159.445 71.9913 159.445 72.2285 159.54 72.3707Z" fill="#0A0A0F"/>
<path d="M176.517 130.372C173.339 141.801 164.992 137.628 158.685 124.207C155.413 117.235 151.761 95.9413 151.761 95.9413C151.761 95.9413 144.552 97.4589 143.983 94.1865C143.414 90.9142 145.216 90.108 145.216 90.108C142.608 86.7882 147.208 84.4169 147.208 84.4169C140.9 81.2869 140.236 77.2083 144.078 77.4454C147.919 77.6826 156.74 83.8953 159.728 84.7963C162.716 85.6974 169.498 81.7137 171.537 84.4644C173.576 87.215 167.98 89.3492 166.51 90.0605L161.815 97.6012C161.767 97.6486 180.074 117.472 176.517 130.372Z" fill="white"/>
<path d="M175.333 130.419C174.811 132.316 174.052 134.356 172.487 135.636L172.25 135.826L172.013 135.968C171.776 136.11 172.155 135.921 171.966 135.968C171.776 136.016 171.681 136.11 171.491 136.158C171.776 136.063 171.254 136.205 171.159 136.205C170.875 136.253 171.396 136.205 171.112 136.205H170.827C170.543 136.205 170.875 136.253 170.59 136.205C170.258 136.158 169.926 136.11 169.594 135.968C167.887 135.352 166.417 133.976 165.231 132.601C163.429 130.514 161.911 128.19 160.678 125.724C158.924 122.31 157.833 118.61 156.884 114.816C155.888 110.833 154.987 106.754 154.181 102.723C153.707 100.399 153.28 98.0279 152.853 95.7041C152.758 95.1824 151.952 95.135 151.525 95.1824C151.099 95.2298 150.672 95.3247 150.245 95.3721C150.15 95.3721 150.008 95.4195 150.197 95.3721L149.865 95.4195C149.628 95.467 149.391 95.467 149.154 95.467C148.68 95.5144 148.158 95.5144 147.684 95.467C147.874 95.467 147.589 95.467 147.542 95.467L147.21 95.4195C147.067 95.4195 146.973 95.3721 146.83 95.3721C146.783 95.3721 146.498 95.3247 146.641 95.3247C146.261 95.2298 145.929 95.0876 145.597 94.8504C145.36 94.6607 145.17 94.3762 145.123 94.0442C144.981 93.3328 144.981 92.6215 145.123 91.9575C145.17 91.7204 145.265 91.4833 145.36 91.2461C145.407 91.1513 145.455 91.0564 145.502 90.9616L145.597 90.8193C145.502 90.9141 145.692 90.7244 145.597 90.8193C145.692 90.7244 145.692 90.7244 145.739 90.677C145.645 90.7244 145.882 90.4873 145.739 90.677C145.929 90.5347 145.834 90.6296 145.645 90.7244C145.977 90.5347 146.641 90.1079 146.261 89.6811C145.407 88.5429 145.313 87.2624 146.214 86.2665C146.641 85.6974 147.21 85.2705 147.874 84.9386C148.206 84.8437 148.395 84.4643 148.253 84.1323C148.206 83.9426 148.063 83.8004 147.874 83.7529C146.498 83.1364 145.265 82.2828 144.174 81.2394C143.51 80.6703 143.036 79.9115 142.799 79.0578C142.752 78.963 142.752 78.8207 142.799 78.7259C142.799 78.6784 142.799 78.5836 142.847 78.5362C142.894 78.299 142.799 78.6784 142.847 78.4887C142.894 78.4413 142.894 78.3465 142.941 78.299C142.799 78.4887 142.941 78.299 142.989 78.299L142.894 78.3465L143.036 78.2516C142.799 78.2516 142.989 78.2516 143.131 78.2042C142.847 78.299 143.084 78.2042 143.178 78.2042C143.51 78.1568 142.941 78.2042 143.273 78.2042H143.605C143.985 78.2042 143.416 78.2042 143.7 78.2042C144.08 78.2516 144.459 78.299 144.791 78.4413C149.154 79.8166 152.996 82.6147 157.027 84.7014C157.738 85.0808 158.449 85.3654 159.208 85.6025C160.252 85.7922 161.342 85.7922 162.386 85.5551C163.571 85.3654 164.662 85.0334 165.8 84.7489C166.796 84.4643 167.84 84.2746 168.883 84.2746C169.262 84.2746 168.693 84.2272 169.025 84.2746C169.12 84.2746 169.262 84.322 169.357 84.322C169.357 84.322 169.547 84.3695 169.405 84.322C169.499 84.3695 169.594 84.3695 169.689 84.4169C169.831 84.4643 169.974 84.5592 170.069 84.654C170.211 84.7963 170.353 84.986 170.448 85.1757C170.827 85.9345 170.448 86.5985 169.926 87.0727C169.167 87.7367 168.361 88.2583 167.46 88.6852L167.318 88.78L167.033 88.9223L166.512 89.1594C166.037 89.3017 165.658 89.5388 165.326 89.9182C164.472 91.1513 163.714 92.4792 162.955 93.7122L160.631 97.5537C160.536 97.7434 160.536 97.9805 160.631 98.1228C162.765 100.494 164.757 102.96 166.559 105.521C170.021 110.311 173.246 115.575 174.859 121.266C175.76 124.254 176.139 127.384 175.333 130.419C175.048 131.463 177.419 131.32 177.657 130.372C179.222 124.681 176.85 118.516 174.242 113.489C171.681 108.651 168.598 104.098 165.089 99.8775C164.378 98.9764 163.619 98.1228 162.86 97.2691V97.8382L167.555 90.2976L166.939 90.7719C168.409 90.0605 169.974 89.444 171.254 88.4006C172.535 87.3573 173.768 85.7448 172.63 84.1323C171.491 82.5199 169.31 82.6147 167.602 82.8993C165.658 83.1838 163.808 83.8478 161.864 84.1323C161.342 84.2272 160.773 84.2272 160.204 84.0849C159.588 83.8478 158.971 83.5632 158.355 83.2313C156.647 82.3302 154.987 81.3817 153.327 80.4332C151.525 79.3898 149.676 78.4413 147.779 77.6351C146.261 77.0186 144.554 76.4494 142.847 76.8289C141.139 77.2083 140.048 78.5362 140.76 80.2435C141.756 82.6147 144.317 84.0849 146.498 85.1757V83.9901C145.597 84.4643 144.791 85.1283 144.127 85.9819C142.989 87.3098 142.989 89.3017 144.127 90.6296L144.744 89.5862C144.032 89.9182 143.463 90.4873 143.131 91.1987C142.562 92.4318 142.42 94.2813 143.178 95.4195C143.795 96.4155 145.028 96.7949 146.071 96.9846C147.257 97.1743 148.443 97.1743 149.628 97.0794C150.387 97.032 151.146 96.8897 151.905 96.7474L150.577 96.2258C151.668 102.533 152.948 108.841 154.513 115.054C155.509 119.037 156.647 122.926 158.544 126.578C159.825 129.139 161.39 131.51 163.287 133.692C164.662 135.209 166.227 136.679 168.219 137.391C170.116 138.15 172.25 137.865 173.957 136.727C175.997 135.257 177.04 132.743 177.704 130.372C177.941 129.329 175.617 129.471 175.333 130.419Z" fill="#0A0A0F"/>
<path d="M149.959 87.3572C149.248 87.3098 148.584 87.3572 147.92 87.5469C146.545 87.8789 145.312 88.6377 144.316 89.6336C143.984 89.9182 143.984 90.3924 144.268 90.7244C144.316 90.7718 144.411 90.8667 144.505 90.9141C145.027 91.1986 145.691 91.1038 146.165 90.7244C146.308 90.5821 146.45 90.4398 146.64 90.2976L146.829 90.1553C147.019 90.013 146.687 90.2501 146.877 90.1079C147.114 89.9182 147.398 89.7759 147.636 89.6336L147.825 89.5387C148.015 89.4439 147.588 89.6336 147.778 89.5387L148.11 89.3965C148.205 89.349 148.347 89.3016 148.442 89.3016C148.537 89.3016 148.963 89.2068 148.489 89.3016C148.679 89.2542 148.869 89.2542 149.011 89.2068H149.248H149.343C149.533 89.2068 148.963 89.2068 149.153 89.2068C149.295 89.2068 149.39 89.2068 149.533 89.2068C150.007 89.2542 150.813 88.9697 150.908 88.4005C151.003 87.8314 150.481 87.452 149.959 87.3572Z" fill="#0A0A0F"/>
<path d="M151.572 83.5631C150.055 82.662 148.11 82.8043 146.545 83.4208C145.976 83.6579 145.929 84.4167 146.213 84.891C146.498 85.4127 147.162 85.6972 147.731 85.4601C147.92 85.3653 148.11 85.3178 148.3 85.2704L148.063 85.3652C148.3 85.3178 148.537 85.223 148.774 85.223C148.964 85.1756 149.154 85.1755 149.391 85.1755C149.106 85.223 149.248 85.1755 149.343 85.1755H149.486L149.77 85.223C149.912 85.223 150.102 85.2704 150.244 85.3178C150.434 85.3652 149.96 85.223 150.197 85.3178L150.387 85.3652C150.481 85.4127 150.576 85.4127 150.671 85.4601L150.861 85.555C150.861 85.555 150.529 85.3653 150.671 85.4601C151.145 85.7447 151.857 85.7921 152.141 85.223C152.331 84.559 152.141 83.8951 151.572 83.5631Z" fill="#0A0A0F"/>
<path d="M148.82 93.1907C148.82 93.1907 149.247 98.0755 154.843 96.9847L148.82 93.1907Z" fill="white"/>
<path d="M147.777 92.7163C147.824 93.3328 148.014 93.9493 148.299 94.5184C149.105 96.0835 150.86 97.032 152.519 97.5062C153.61 97.7908 154.748 97.8382 155.887 97.6011C156.171 97.5537 155.317 97.032 155.27 96.9846C154.986 96.8423 154.701 96.7 154.416 96.6052C154.227 96.5103 154.037 96.5103 153.847 96.5103C153.373 96.6052 152.899 96.6526 152.425 96.6526C152.235 96.6526 152.045 96.6526 151.855 96.6526L151.571 96.6052C151.523 96.6052 151.239 96.5577 151.429 96.5577L151.191 96.5103C151.002 96.4629 151.334 96.5577 151.239 96.5103L151.144 96.4629C151.002 96.4155 151.381 96.5577 151.239 96.5103C151.049 96.4155 151.192 96.4629 151.239 96.5103C151.286 96.5577 151.429 96.6052 151.239 96.5103C151.097 96.4629 151.523 96.6526 151.334 96.5577C151.144 96.4629 151.571 96.7 151.334 96.5577C151.097 96.4155 151.476 96.6526 151.381 96.6052L151.286 96.5577L151.191 96.5103C151.097 96.4629 151.286 96.6052 151.239 96.5577C151.192 96.5103 151.144 96.4629 151.097 96.4155C150.907 96.2732 150.765 96.0835 150.67 95.8938C150.528 95.7041 150.433 95.5144 150.29 95.2773C150.101 94.9453 150.006 94.5659 149.911 94.1865C149.864 94.0442 149.816 93.8545 149.816 93.7122C149.816 93.5699 149.674 93.4751 149.579 93.4277C149.342 93.2854 149.105 93.1431 148.868 93.0008C148.82 92.9534 147.729 92.5266 147.777 92.7163Z" fill="#0A0A0F"/>
<path d="M147.304 102.296C146.878 103.956 146.071 105.568 145.36 107.133C144.459 109.268 143.463 111.402 142.562 113.536C142.23 114.247 141.898 115.006 141.661 115.765C141.566 116.097 142.04 116.619 142.277 116.808C142.325 116.856 143.226 117.709 143.273 117.472C143.842 115.812 144.649 114.2 145.36 112.54C146.308 110.406 147.257 108.272 148.158 106.09C148.49 105.331 148.775 104.572 148.964 103.814C149.059 103.434 148.348 102.818 148.111 102.628C148.016 102.581 147.399 102.012 147.304 102.296Z" fill="white"/>
</svg>
