<svg width="261" height="261" viewBox="0 0 261 261" fill="none" xmlns="http://www.w3.org/2000/svg">
<path d="M31.8934 54.1836C31.8934 54.1836 29.4922 64.8324 29.4922 67.86C29.4922 70.8876 43.0642 164.534 49.1716 166.831L31.8934 54.1836Z" fill="#000005"/>
<path d="M30.6942 53.9748C30.2766 55.7496 29.9112 57.5766 29.5458 59.4036C29.0238 62.0136 28.3974 64.6758 28.293 67.338C28.293 68.7474 28.4496 70.1568 28.7106 71.5662C29.1282 74.646 29.5458 77.7258 30.0156 80.8056C30.642 85.1382 31.2684 89.4708 31.947 93.8034C32.73 98.8668 33.5652 103.982 34.4004 109.046C35.2878 114.422 36.2274 119.747 37.167 125.123C38.1066 130.239 39.0462 135.355 40.0902 140.418C40.9776 144.751 41.9172 149.135 42.9612 153.416C43.692 156.548 44.5794 159.628 45.6234 162.655C45.9366 163.647 46.3542 164.534 46.8762 165.474C47.1372 166.048 47.607 166.518 48.129 166.831C49.0686 167.301 50.0604 167.562 51 167.927H52.7748L50.0604 166.936L50.3736 167.197L49.9038 164.169L48.651 155.974L46.7718 143.863L44.5272 129.091L42.0738 112.752L39.5682 96.4134L37.2192 81.171L35.2356 68.2776L33.8262 58.986C33.6174 57.5244 33.4086 56.0628 33.1476 54.6012C33.1476 54.549 33.1476 54.4968 33.1476 54.3924C33.0432 53.8704 30.6942 53.8704 30.6942 53.9748L31.164 56.9502L32.4168 65.1456L34.296 77.256L36.5406 92.0808L39.0462 108.263L41.5518 124.601L43.9008 139.896L45.8844 152.789L47.2938 162.029C47.5026 163.49 47.7114 164.952 47.9724 166.414L48.0246 166.622C48.0246 166.727 48.2856 166.831 48.3378 166.883L51.0522 167.875C51.5742 168.084 52.2006 168.241 52.7748 168.241C53.1402 168.241 53.2968 168.084 52.827 167.927L51.9396 167.614L50.6868 167.144L50.1126 166.936C50.0082 166.883 50.2692 166.988 50.217 166.988C50.0604 166.883 50.217 167.04 50.0604 166.831C49.956 166.727 49.8516 166.622 49.7994 166.518C49.3296 165.839 48.912 165.161 48.651 164.378C47.607 161.663 46.7196 158.897 46.041 156.078C44.997 152.006 44.0574 147.883 43.2222 143.759C42.1782 138.8 41.2386 133.893 40.299 128.934C39.3072 123.61 38.3676 118.285 37.4802 112.961C36.5928 107.793 35.7576 102.625 34.9746 97.5096C34.296 92.9682 33.5652 88.479 32.8866 83.9376C32.3646 80.5446 31.8948 77.1516 31.425 73.8108C31.164 72.036 30.903 70.3134 30.7986 68.5386C30.7986 67.077 30.903 65.6154 31.2684 64.1538C31.7382 61.4394 32.2602 58.725 32.8344 56.0106C32.9388 55.4886 33.0432 55.0188 33.1476 54.4968C33.1476 54.1314 30.7464 53.6094 30.6942 53.9748Z" fill="#000005"/>
<path d="M54.2882 177.637C55.0712 181.03 57.0548 184.057 59.8736 186.093C73.6544 196.22 115.519 226.913 117.972 227.592C120.895 228.427 232.29 179.933 231.455 169.807L53.8184 175.705L54.2882 177.637Z" fill="#000005"/>
<path d="M53.0876 177.898C53.8706 181.186 55.6976 184.11 58.3076 186.302C59.6648 187.45 61.1786 188.442 62.6402 189.486C66.1376 192.096 69.6872 194.654 73.2368 197.264C81.5888 203.371 89.9408 209.427 98.345 215.482C104.139 219.658 109.881 223.938 115.936 227.749C116.928 228.375 117.711 228.793 118.86 228.48C120.217 228.114 121.522 227.697 122.775 227.175C127.734 225.348 132.588 223.312 137.443 221.224C144.646 218.196 151.746 215.064 158.845 211.828C166.936 208.174 174.975 204.415 182.961 200.605C190.635 196.899 198.204 193.14 205.72 189.121C211.776 185.884 217.779 182.596 223.521 178.837C225.504 177.585 227.383 176.175 229.158 174.714C230.359 173.67 231.612 172.573 232.342 171.164C232.603 170.642 232.708 170.068 232.656 169.546C232.603 169.076 231.977 168.815 231.559 168.815L226.809 168.972L213.916 169.389L194.758 170.016L171.529 170.799L145.899 171.634L120.217 172.469L96.1004 173.252L75.8468 173.931L61.1786 174.4C58.8818 174.453 56.585 174.505 54.2882 174.609H53.975C53.3486 174.609 52.4612 175.079 52.6178 175.862L53.0876 177.898C53.4008 179.098 55.802 178.576 55.4888 177.324L55.019 175.392L53.6618 176.645L58.4642 176.488L71.3576 176.071L90.5672 175.444L113.796 174.714L139.426 173.878L165.109 173.043L189.225 172.26L209.479 171.582L224.147 171.112C226.444 171.06 228.793 171.112 231.037 170.903H231.351L230.254 170.172C230.254 169.911 230.254 170.068 230.254 170.224C230.254 170.277 230.15 170.642 230.202 170.433C230.254 170.224 230.15 170.538 230.15 170.642C230.15 170.746 230.046 170.851 229.993 171.007C229.941 171.164 229.941 171.112 229.889 171.164C229.837 171.216 230.046 170.903 229.889 171.112C229.732 171.321 229.68 171.373 229.576 171.529C229.367 171.79 229.158 172.051 228.897 172.312L228.48 172.73L228.271 172.939L228.166 173.043C227.801 173.356 227.488 173.67 227.122 173.983C226.287 174.661 225.4 175.34 224.512 175.966C219.501 179.568 214.281 182.491 208.905 185.415C201.753 189.33 194.497 193.036 187.137 196.638C179.255 200.5 171.321 204.259 163.386 207.861C156.078 211.201 148.718 214.49 141.306 217.674C135.825 220.023 130.291 222.372 124.706 224.565C123.036 225.191 121.365 225.87 119.643 226.444L119.486 226.496L119.068 226.6C118.86 226.653 118.651 226.705 118.442 226.809C118.233 226.914 118.129 226.861 117.972 226.914C118.077 226.861 118.181 226.861 118.338 226.914C118.755 226.966 118.546 227.018 118.39 226.914C118.233 226.809 118.181 226.809 118.077 226.757C117.763 226.6 117.45 226.392 117.189 226.235L116.876 226.026L116.772 225.974L116.041 225.504L114.423 224.408C111.395 222.372 108.472 220.232 105.496 218.144C97.3532 212.35 89.2622 206.503 81.2234 200.605C74.3852 195.594 67.4948 190.687 60.7088 185.571C58.0988 183.588 56.2718 180.821 55.4888 177.637C55.2278 176.123 52.7744 176.645 53.0876 177.898Z" fill="#000005"/>
<path d="M51.2614 167.51C51.2614 167.51 30.2248 55.4886 31.8952 54.2358C33.5656 52.983 150.859 31.4244 154.67 33.5646C158.48 35.7048 163.126 124.706 161.403 128.516C159.681 132.327 51.679 169.963 51.2614 167.51Z" fill="white"/>
<path d="M52.4624 167.249L51.9404 164.534L50.531 157.018C49.8524 153.311 49.1216 149.553 48.443 145.847C47.6078 141.253 46.7726 136.66 45.9374 132.066C44.9978 127.003 44.1103 121.939 43.1707 116.876C42.2311 111.656 41.2916 106.436 40.352 101.164C39.4646 96.1523 38.5772 91.1411 37.742 86.1299C36.959 81.6929 36.2282 77.2559 35.4974 72.8189C34.9232 69.3215 34.349 65.8241 33.8792 62.3267C33.566 60.1343 33.2528 57.9419 33.044 55.6973C32.9918 55.1753 33.044 54.6533 32.9918 54.1835C32.9918 54.0791 32.8874 54.4967 32.9918 54.2357C32.8874 54.4445 32.7308 54.6533 32.522 54.8099C32.1566 55.0709 32.2088 54.8621 32.3654 54.9143C32.4176 54.9143 32.4176 54.9143 32.4698 54.8621C32.6786 54.7577 32.3654 54.9143 32.3132 54.9143C32.5742 54.8621 32.783 54.8099 32.9918 54.7055C33.305 54.6011 33.6704 54.5489 33.9836 54.4967C34.9232 54.2879 35.915 54.0791 36.8546 53.8703C39.7778 53.2439 42.701 52.6697 45.6242 52.0955C49.6436 51.3125 53.663 50.5295 57.6824 49.7987C62.4326 48.9113 67.1828 48.0239 71.9329 47.1365C77.153 46.1969 82.3729 45.2573 87.5929 44.3177C92.9173 43.3781 98.2417 42.4385 103.566 41.5511C108.682 40.6637 113.797 39.8285 118.913 38.9933C123.507 38.2625 128.1 37.5317 132.694 36.8009C136.4 36.2267 140.106 35.7047 143.865 35.1827C145.326 34.9739 146.736 34.8173 148.197 34.6607L149.137 34.5563L149.554 34.5041C149.815 34.5041 149.293 34.5041 149.502 34.5041H149.763C150.285 34.4519 150.755 34.3997 151.277 34.3997C152.008 34.3475 152.739 34.2953 153.469 34.3475C153.574 34.3475 153.73 34.3475 153.835 34.3475C153.469 34.3475 153.678 34.2953 153.835 34.3475C154.148 34.5041 153.522 34.0865 153.783 34.2953C154.044 34.5041 153.73 34.1387 153.835 34.3475C153.887 34.4519 153.939 34.6085 153.991 34.7129C154.148 35.0783 154.252 35.3915 154.357 35.7569C154.461 36.2267 154.618 36.6965 154.722 37.1663C154.722 37.3229 154.774 37.4273 154.827 37.5839C154.879 37.7405 154.879 37.7927 154.827 37.6361L154.879 37.8971C154.931 38.2103 154.983 38.5235 155.035 38.8367C155.662 42.2819 156.027 45.7793 156.393 49.2245C156.915 53.9225 157.332 58.6205 157.698 63.3185C158.115 68.6429 158.481 73.9673 158.846 79.2917C159.211 84.7205 159.472 90.0971 159.733 95.5259C159.994 100.433 160.203 105.34 160.36 110.194C160.464 114.005 160.569 117.815 160.621 121.626C160.673 123.766 160.569 125.854 160.412 127.994C160.412 128.255 160.464 127.786 160.412 127.994C160.412 128.047 160.412 128.099 160.36 128.151C160.308 128.203 160.308 128.308 160.308 128.412C160.308 128.464 160.464 128.151 160.36 128.255C160.255 128.36 160.516 128.099 160.464 128.151C160.412 128.203 160.308 128.255 160.255 128.308C160.255 128.308 160.569 128.099 160.36 128.203L160.203 128.308C160.099 128.412 159.942 128.464 159.838 128.516C159.525 128.725 159.211 128.882 158.898 129.038C158.585 129.195 159.211 128.882 158.898 129.038L158.585 129.195C158.376 129.299 158.167 129.404 157.906 129.508C157.384 129.769 156.915 129.978 156.393 130.239C155.14 130.813 153.835 131.335 152.582 131.909C149.189 133.319 145.744 134.676 142.351 136.033C138.07 137.704 133.738 139.322 129.457 140.888C124.603 142.663 119.8 144.437 114.894 146.16C109.83 147.987 104.819 149.762 99.7555 151.484C94.9009 153.207 89.9941 154.877 85.0873 156.496C80.6503 158.009 76.2656 159.471 71.8286 160.88C68.2268 162.029 64.625 163.177 61.0232 164.273C60.8666 164.326 60.7622 164.326 60.971 164.273L60.71 164.326L60.1357 164.482L59.0917 164.795C58.4131 165.004 57.7868 165.161 57.1082 165.37C56.0642 165.683 55.0202 165.944 53.9762 166.205C53.3498 166.361 52.6712 166.466 52.0448 166.57C51.7838 166.622 52.4102 166.622 52.0448 166.57C51.9925 166.57 51.8882 166.57 51.836 166.57C51.836 166.57 52.2013 166.622 52.0448 166.57C51.8881 166.518 52.2536 166.675 52.2014 166.622C52.3058 166.675 52.358 166.779 52.4624 166.883C52.358 166.309 51.3661 166.361 51.0007 166.57C50.4265 166.675 50.009 167.249 50.1134 167.875C50.3744 169.024 53.141 168.188 53.8196 168.084C56.273 167.51 58.622 166.831 61.0232 166.1C64.7294 165.004 68.3833 163.856 72.0373 162.655C76.4743 161.246 80.9113 159.732 85.3483 158.27C90.3073 156.6 95.2663 154.93 100.173 153.207C105.289 151.432 110.352 149.657 115.468 147.83C120.375 146.056 125.281 144.281 130.188 142.506C134.521 140.888 138.853 139.27 143.186 137.599C146.631 136.242 150.076 134.937 153.469 133.475C155.766 132.536 158.063 131.544 160.255 130.396C161.352 129.821 162.5 129.195 162.761 127.89C163.022 125.802 163.074 123.714 163.022 121.574C163.022 117.763 162.918 114.005 162.813 110.194C162.657 105.287 162.448 100.328 162.187 95.4215C161.926 89.9927 161.613 84.5117 161.247 79.0829C160.882 73.7063 160.516 68.2775 160.099 62.9009C159.733 58.1507 159.316 53.4527 158.794 48.7025C158.428 45.2051 158.011 41.7599 157.384 38.2625C157.176 37.1141 156.967 35.9657 156.654 34.8173C156.497 34.1387 156.236 33.5123 155.871 32.9903C155.088 32.1029 153.208 32.4161 152.164 32.5205C149.554 32.6771 146.944 32.9903 144.334 33.3557C140.628 33.8255 136.87 34.3997 133.164 34.9217C128.57 35.6003 123.924 36.3311 119.331 37.1141C114.163 37.9493 108.995 38.8367 103.879 39.7241C98.5027 40.6637 93.1261 41.6033 87.7495 42.5429C82.4773 43.4825 77.2573 44.4743 71.9851 45.4139C67.1305 46.3013 62.3281 47.1887 57.5257 48.0761C53.5063 48.8591 49.4348 49.5899 45.4154 50.3729C42.4922 50.9471 39.5689 51.5213 36.6458 52.1477C35.0276 52.4609 33.4616 52.8263 31.8956 53.2961C31.3214 53.4005 30.8516 53.8181 30.6428 54.3923C30.5384 54.9143 30.5384 55.4363 30.6428 56.0105C30.7994 58.1507 31.1126 60.2909 31.4258 62.4311C31.9478 65.9285 32.4698 69.4259 33.044 72.8711C33.7748 77.3081 34.5056 81.7973 35.2886 86.2343C36.176 91.2977 37.0112 96.3089 37.9508 101.372C38.8904 106.645 39.83 111.917 40.7696 117.189C41.7092 122.305 42.6488 127.472 43.5884 132.588C44.4236 137.234 45.2588 141.827 46.1462 146.473C46.8248 150.232 47.5556 153.938 48.2342 157.696L49.6436 165.213C49.8002 166.1 49.9568 166.936 50.1134 167.823C50.2178 168.293 50.7398 168.606 51.2096 168.502C51.2618 168.502 51.2618 168.502 51.314 168.449C51.7316 168.293 52.5668 167.823 52.4624 167.249Z" fill="#000005"/>
<path d="M55.9581 157.592C55.9581 157.592 41.6031 66.4505 42.0207 64.7279C42.4383 63.0053 144.959 42.8039 147.099 44.4743C149.239 46.1447 156.391 120.425 154.668 123.818C152.946 127.211 60.6039 157.122 55.9581 157.592Z" fill="white"/>
<path d="M57.1589 157.644L56.7935 155.243C56.4281 153.05 56.1149 150.91 55.7495 148.718C55.2275 145.481 54.7577 142.193 54.2357 138.956C53.6093 134.989 52.9829 131.022 52.3565 127.002C51.6779 122.618 50.9993 118.233 50.3207 113.9C49.6421 109.463 48.9635 105.026 48.2849 100.589C47.6585 96.4133 47.0321 92.2373 46.4057 88.0091C45.8837 84.4595 45.3617 80.8577 44.8397 77.3081C44.4743 74.6459 44.0567 72.0359 43.7435 69.4259C43.5869 68.0687 43.3259 66.6593 43.2737 65.3021C43.2737 65.1977 43.2737 65.0933 43.2737 64.9889C43.2737 65.0411 43.1693 65.0933 43.2215 65.0933C43.2737 65.0933 43.4825 64.9889 43.6391 64.9367L43.7957 64.8845C43.5869 64.9367 43.9001 64.8323 43.7957 64.8845L44.1611 64.7801C45.8315 64.2581 47.5541 63.8405 49.2245 63.4751C51.9389 62.7965 54.7055 62.2223 57.4721 61.5959C61.0217 60.8129 64.5713 60.0821 68.1209 59.2991C72.1925 58.4639 76.3163 57.6287 80.3879 56.7935C84.7727 55.9061 89.1575 55.0187 93.5423 54.1835C97.9271 53.3483 102.364 52.4609 106.801 51.6257C110.977 50.8427 115.205 50.0597 119.381 49.2767C123.14 48.5981 126.846 47.9195 130.604 47.2931C132.223 47.0321 133.841 46.7711 135.407 46.5101L137.547 46.1447L138.591 45.9881L139.061 45.9359L139.27 45.8837C139.531 45.8315 139.217 45.8837 139.374 45.8837C141.358 45.5705 143.341 45.3095 145.377 45.1007C145.69 45.1007 146.003 45.0485 146.317 45.0485C146.421 45.0485 146.578 45.0485 146.682 45.0485C146.891 45.0485 146.369 45.0485 146.578 45.0485H146.734C146.786 45.0485 146.943 45.1007 146.995 45.0485C146.891 45.1529 146.578 44.9963 146.786 45.0485C146.995 45.1007 146.421 44.9441 146.578 44.9963C146.369 44.9441 146.212 44.8397 146.003 44.6831C145.951 44.5265 146.108 44.7353 146.003 44.6831C146.473 46.0925 146.786 47.5541 146.995 49.0157C147.517 51.9389 147.883 54.9143 148.248 57.8897C148.77 61.8569 149.24 65.8763 149.657 69.8957C150.179 74.4371 150.597 78.9263 151.067 83.4155C151.537 87.9047 151.902 92.4461 152.267 97.0397C152.633 101.111 152.946 105.183 153.207 109.254C153.416 112.334 153.572 115.466 153.677 118.546C153.677 119.59 153.729 120.634 153.677 121.626C153.677 122.252 153.625 122.826 153.52 123.453C153.52 123.505 153.468 123.609 153.468 123.662C153.468 123.714 153.572 123.557 153.468 123.662L153.311 123.818C153.311 123.87 153.259 123.87 153.207 123.87C153.05 123.975 153.259 123.818 153.207 123.87C152.685 124.184 152.163 124.445 151.641 124.706C149.71 125.645 147.674 126.428 145.69 127.263C142.715 128.412 139.687 129.56 136.66 130.656C132.901 132.014 129.195 133.319 125.437 134.624C121.261 136.085 117.085 137.495 112.909 138.904C108.524 140.366 104.139 141.827 99.7541 143.289C95.4737 144.698 91.1933 146.108 86.8607 147.517C82.9457 148.77 79.0307 150.023 75.1157 151.275C71.8793 152.319 68.5907 153.311 65.3543 154.303C63.0575 154.982 60.7607 155.712 58.4117 156.339C57.7331 156.548 57.0023 156.704 56.3237 156.913C56.1149 156.965 55.8539 157.017 55.6451 157.07L55.3841 157.122C55.1753 157.174 55.6973 157.07 55.4363 157.122C55.0709 157.174 54.5489 157.331 54.8621 157.748C55.1753 158.166 56.0627 158.27 56.5325 158.218C57.7853 158.061 58.9859 157.748 60.1865 157.383C62.5877 156.704 64.9367 156.026 67.2857 155.295C70.5743 154.303 73.9151 153.259 77.2037 152.215C81.1709 150.962 85.1381 149.709 89.1053 148.404C93.4379 146.995 97.8227 145.586 102.155 144.124C106.592 142.662 110.977 141.201 115.414 139.687C119.695 138.225 123.923 136.764 128.203 135.302C131.962 133.997 135.72 132.64 139.426 131.283C142.402 130.187 145.377 129.09 148.352 127.942C150.284 127.159 152.215 126.428 154.042 125.489C154.825 125.123 155.869 124.706 156.078 123.766C156.391 122.096 156.235 120.269 156.182 118.546C156.078 115.362 155.921 112.125 155.66 108.941C155.399 104.817 155.086 100.694 154.721 96.5177C154.355 91.9241 153.938 87.3305 153.468 82.7369C153.05 78.1955 152.581 73.7063 152.059 69.1649C151.641 65.1977 151.171 61.2305 150.649 57.2633C150.284 54.3923 149.866 51.4691 149.344 48.5981C149.188 47.7107 149.031 46.8233 148.822 45.9359C148.77 45.4139 148.561 44.9441 148.3 44.5265C147.465 43.5869 145.586 43.9001 144.49 44.0045C142.506 44.1611 140.522 44.4743 138.539 44.7353C135.511 45.2051 132.484 45.6749 129.456 46.1969C125.698 46.8233 121.991 47.5019 118.233 48.1805C114.005 48.9635 109.777 49.7465 105.548 50.5295C101.059 51.3647 96.6221 52.2521 92.1851 53.0873C87.7481 53.9747 83.3111 54.8099 78.9785 55.6973C74.8547 56.5325 70.6787 57.3677 66.5549 58.2551C62.9009 58.9337 59.2991 59.7167 55.7495 60.4997C52.9829 61.1261 50.2685 61.7003 47.5019 62.3789C45.8315 62.7965 44.1089 63.1619 42.4385 63.6839C41.8643 63.8405 40.8203 64.0493 40.8203 64.7801C40.8725 66.1373 41.1335 67.4945 41.2901 68.8517C41.6555 71.5139 42.0209 74.1239 42.3863 76.7339C42.9083 80.3357 43.4303 83.9375 43.9523 87.5393C44.5787 91.7153 45.2051 95.9435 45.8837 100.119C46.5623 104.609 47.2931 109.098 47.9717 113.587C48.6503 117.972 49.3289 122.357 50.0075 126.741C50.6339 130.761 51.2603 134.728 51.8867 138.747C52.4087 141.984 52.8785 145.272 53.4005 148.509L54.4445 155.138L54.8099 157.435C54.8621 158.166 57.2633 158.427 57.1589 157.644Z" fill="#000005"/>
<path d="M53.8691 175.705C53.8691 175.705 115.048 223.781 120.111 223.781C125.174 223.781 232.759 173.147 231.506 169.754C230.253 166.361 165.525 135.615 161.819 135.615C158.113 135.615 53.8691 175.705 53.8691 175.705Z" fill="white"/>
<path d="M52.8269 176.384C55.8023 178.733 58.7777 181.03 61.8053 183.379C68.5391 188.599 75.2729 193.766 82.0589 198.934C89.3669 204.467 96.6749 209.948 104.139 215.273C107.01 217.309 109.829 219.292 112.805 221.224C114.527 222.424 116.354 223.468 118.233 224.356C119.225 224.773 120.008 224.564 120.948 224.251C122.723 223.677 124.393 222.998 126.116 222.32C132.066 219.919 137.965 217.256 143.811 214.646C151.902 210.992 159.941 207.286 167.928 203.528C176.437 199.508 184.945 195.437 193.402 191.313C200.762 187.711 208.174 184.005 215.43 180.194C220.128 177.741 224.983 175.288 229.42 172.312C230.411 171.686 231.925 170.851 232.499 169.702C232.969 168.763 231.142 167.875 230.516 167.51C228.219 165.996 225.818 164.691 223.417 163.386C219.867 161.455 216.265 159.628 212.663 157.801C204.207 153.52 195.698 149.396 187.085 145.377C180.352 142.245 173.618 139.061 166.727 136.294C165.84 135.929 164.952 135.616 164.065 135.302C163.595 135.094 163.073 134.989 162.603 134.989C161.559 135.041 160.411 135.511 159.419 135.824C154.095 137.547 148.823 139.478 143.55 141.41C135.616 144.333 127.682 147.256 119.799 150.232C110.978 153.52 102.156 156.861 93.3863 160.202C85.7129 163.125 78.0395 166.048 70.3661 168.971L56.1155 174.348L54.1841 175.079C53.7665 175.235 52.9313 175.653 52.8269 176.123C52.7225 176.593 53.1923 176.488 53.5055 176.384C56.0633 175.392 58.5689 174.4 61.1267 173.461C67.4951 171.007 73.9157 168.554 80.2841 166.153C88.6883 162.968 97.0925 159.732 105.444 156.548C113.953 153.311 122.514 150.127 131.022 146.943C137.808 144.385 144.647 141.88 151.485 139.478C152.685 139.061 153.938 138.591 155.139 138.173L156.705 137.651L157.383 137.443L157.749 137.338L157.905 137.286C158.584 137.077 159.263 136.868 159.941 136.66C160.15 136.607 160.411 136.555 160.62 136.503L160.881 136.451C160.672 136.451 161.037 136.399 160.881 136.451C160.985 136.451 161.09 136.451 160.933 136.451C161.037 136.451 161.142 136.503 161.194 136.503C161.455 136.555 161.768 136.66 162.029 136.764C162.917 137.025 163.804 137.39 164.691 137.756C167.562 138.904 170.381 140.157 173.2 141.41C181.343 145.064 189.434 148.874 197.473 152.789C205.303 156.6 213.133 160.463 220.807 164.587C223.312 165.944 225.766 167.249 228.115 168.815C228.741 169.18 229.367 169.65 229.942 170.12C230.098 170.276 230.203 170.433 230.307 170.537C230.307 170.537 230.098 170.746 230.307 170.59L230.098 170.798C229.941 170.955 230.359 170.59 230.15 170.746L229.994 170.903L229.681 171.164L229.367 171.373L229.054 171.581C228.898 171.686 228.689 171.79 228.532 171.947C227.697 172.469 226.862 172.991 226.027 173.513L225.348 173.93L224.93 174.139C224.722 174.244 224.93 174.139 224.983 174.139L224.722 174.296L222.999 175.235C216.892 178.576 210.628 181.813 204.311 184.945C196.273 188.964 188.181 192.931 180.038 196.794C171.738 200.761 163.386 204.728 154.982 208.591C148.04 211.775 141.045 214.96 133.998 218.039C131.492 219.136 128.987 220.18 126.429 221.224C125.489 221.589 124.602 221.954 123.662 222.32C123.297 222.476 122.931 222.581 122.566 222.737L122.096 222.894C121.94 222.946 121.94 222.946 122.096 222.894L121.835 222.946L121.157 223.155L120.896 223.207C121.052 223.155 121.052 223.207 120.896 223.207C120.739 223.207 120.791 223.207 120.843 223.207C120.739 223.207 120.635 223.155 120.53 223.155C120.217 223.051 119.956 222.946 119.695 222.842C117.711 221.85 115.78 220.702 113.953 219.449C107.271 215.064 100.903 210.314 94.4825 205.616C87.0701 200.135 79.7099 194.549 72.4019 188.912C67.2341 184.945 62.1185 180.977 57.0551 177.01L54.8627 175.288C54.3407 174.609 52.5137 176.175 52.8269 176.384Z" fill="#000005"/>
<path d="M98.5007 45.2573C98.5007 45.2573 96.3083 46.1969 96.8303 48.3371C97.3523 50.4773 100.276 49.2767 100.537 47.7629C100.798 46.2491 99.7013 44.3177 98.5007 45.2573Z" fill="#000005"/>
<path d="M195.123 160.724L192.722 161.715L186.145 164.43L176.436 168.501L172.051 170.328L164.899 166.205L160.619 163.751L163.125 162.707L173.408 158.427L180.82 155.347C181.969 154.877 183.169 154.407 184.318 153.885L184.474 153.833C185.049 153.572 184.735 152.998 184.37 152.737C183.9 152.319 183.221 152.215 182.595 152.372L180.194 153.363L173.617 156.13L163.96 160.202L158.374 162.551L153.52 159.784L147.412 156.287L149.814 155.243L159.679 151.014L166.779 147.987C167.927 147.569 169.023 147.099 170.119 146.525C170.172 146.525 170.224 146.473 170.276 146.473C170.798 146.264 169.545 144.02 168.814 144.333L166.518 145.325L160.254 147.987L150.962 152.006L144.594 154.721L143.602 154.146C141.984 153.207 140.417 152.319 138.799 151.38L138.747 151.328C138.173 150.962 137.442 151.014 136.92 151.38C136.555 151.641 136.45 152.111 136.711 152.476C136.763 152.58 136.868 152.633 136.972 152.737L140.887 154.982L142.245 155.765L139.687 156.861L127.315 162.133L120.216 165.161L118.702 164.273L114.057 161.559C113.691 161.35 112.908 160.932 112.595 161.402C112.282 161.872 113.013 162.498 113.326 162.707L118.65 165.839L114.787 167.51L103.147 172.469L98.8141 174.296L97.4047 173.356L94.0117 171.164C93.4897 170.798 92.9677 170.433 92.3935 170.12C92.3935 170.12 92.3413 170.12 92.3413 170.067C91.8193 169.702 89.8357 171.32 90.4099 171.686L94.5337 174.296L96.1519 175.34L93.2809 176.592L86.1817 179.62C85.0333 180.038 83.9371 180.507 82.8409 181.082C82.7887 181.082 82.7365 181.134 82.6843 181.134C82.1623 181.343 83.4151 183.587 84.1459 183.274L86.4427 182.282L92.7067 179.62L98.7619 177.01L104.4 180.664L108.628 183.326L103.669 185.414L96.2563 188.494C95.1079 188.964 93.9073 189.434 92.7589 189.956L92.6023 190.008C92.0281 190.217 92.3935 190.843 92.7067 191.104C93.1765 191.522 93.8551 191.626 94.4815 191.469L96.8827 190.478L103.46 187.711L110.768 184.631L116.353 188.181L121.417 191.417L115.884 193.714L108.419 196.794C107.271 197.264 106.07 197.733 104.869 198.255L104.713 198.308C104.086 198.569 105.809 200.448 106.435 200.187L108.837 199.195L115.414 196.481L123.818 192.983L126.637 194.758L130.03 196.898C130.552 197.316 131.074 197.629 131.648 197.942L131.7 197.994C132.222 198.36 134.206 196.742 133.632 196.376L129.508 193.766L126.48 191.835L136.972 187.45L147.987 182.856L150.91 184.579C151.275 184.788 152.058 185.205 152.371 184.736C152.685 184.266 151.954 183.639 151.641 183.431L149.553 182.178L149.918 182.021L163.02 176.54L172.103 172.782C173.46 173.565 174.87 174.4 176.279 175.183L176.331 175.235C176.905 175.601 177.636 175.548 178.158 175.183C178.523 174.922 178.628 174.452 178.367 174.087C178.315 173.982 178.21 173.93 178.106 173.878L174.504 171.79L175.235 171.477L185.571 167.196L192.983 164.064C194.131 163.595 195.332 163.125 196.533 162.603L196.689 162.551C197.472 162.29 195.75 160.463 195.123 160.724ZM113.274 170.798L121.417 167.301L126.062 170.015L132.013 173.513L126.115 175.966L113.952 181.082L111.342 182.178L107.793 179.933L101.476 175.914L101.998 175.705L113.274 170.798ZM138.173 160.149L145.011 157.226L150.336 160.254L155.973 163.49L152.163 165.056L139.217 170.485L133.579 172.834L122.983 166.622L125.645 165.474L138.173 160.149ZM113.378 183.535L124.862 178.733L134.153 174.818L145.377 181.395L138.33 184.318L126.062 189.434L123.975 190.321L119.538 187.502L113.378 183.535ZM138.956 176.018L135.772 174.139L137.808 173.304L150.91 167.823L158.166 164.795L161.663 166.779L169.597 171.32L164.534 173.408L151.536 178.837L147.047 180.716L138.956 176.018Z" fill="#000005"/>
<path d="M118.755 60.0823L189.956 91.8721L117.189 121.783L57.6289 81.2755L118.755 60.0823Z" fill="white"/>
<path d="M119.224 61.1785L126.324 64.3627L143.288 71.9317L163.908 81.1189L181.656 89.0011L187.554 91.6111C188.494 92.0287 189.381 92.4985 190.321 92.8639L190.425 92.9161L189.277 90.7759L182.021 93.7513L164.586 100.903L143.549 109.568L125.332 117.033L119.381 119.486L117.554 120.217C117.188 120.321 116.875 120.478 116.562 120.634C116.51 120.634 116.51 120.687 116.458 120.687L116.928 120.791L110.977 116.719L96.7783 107.062L79.5523 95.3695L64.7275 85.3471C62.3263 83.7289 59.9773 81.9541 57.5239 80.4403L57.4195 80.3881L58.4113 82.4239L64.5187 80.2837L79.1347 75.2203L96.7783 69.1129L112.021 63.8407L117.084 62.0659L118.65 61.5439C118.911 61.4917 119.224 61.3873 119.485 61.2307C119.537 61.2307 119.538 61.2307 119.59 61.1785C120.06 61.0219 118.859 58.7773 118.128 59.0383L112.021 61.1263L97.4047 66.1897L79.7611 72.2971L64.5187 77.5693L59.4031 79.2919L57.8371 79.8139C57.5761 79.8661 57.2629 79.9705 57.0019 80.1271L56.8975 80.1793C56.6365 80.2837 56.9497 81.0145 57.0019 81.0667C57.2107 81.5365 57.5239 81.9019 57.8893 82.2151L64.3621 86.6521L79.6567 97.0399L97.7179 109.307L112.282 119.225L116.353 121.992C116.771 122.253 117.45 122.931 117.972 122.827C118.807 122.566 119.642 122.2 120.425 121.835L125.854 119.59L142.767 112.648L162.968 104.348L180.716 97.0399L190.321 93.1249L190.79 92.9161C191.104 92.8117 190.686 91.9765 190.634 91.8721C190.425 91.4023 190.06 91.0369 189.642 90.7759L182.543 87.5917L165.474 80.0749L144.854 70.8877L127.106 62.9533C124.235 61.6483 121.365 60.2389 118.441 59.0905L118.337 59.0383C117.815 58.8295 117.972 59.5081 118.076 59.7691C118.285 60.3433 118.65 60.8653 119.224 61.1785Z" fill="#EC4E26"/>
<path d="M134.781 77.4648V59.9778L68.957 88.4268L73.2896 112.439L134.781 77.4648Z" fill="white"/>
<path d="M136.033 77.8302V60.3432C136.033 59.9256 133.945 59.4558 133.58 59.5602L127.055 62.379L111.343 69.165L92.3421 77.4126L75.8991 84.5118L70.4703 86.8608L68.7999 87.5916C68.4867 87.696 68.2257 87.8004 67.9125 87.957C67.8603 87.957 67.8603 88.0092 67.8081 88.0092L67.7559 88.0614L69.2175 96.1524L71.5143 109.098L72.0363 112.073C72.0885 112.491 74.1243 113.013 74.4897 112.856L80.6493 109.359L95.3175 101.007L113.065 90.9324L128.412 82.1628L133.423 79.2918L134.989 78.4044C135.25 78.2478 135.564 78.0912 135.825 77.9346C135.877 77.9346 135.877 77.8824 135.929 77.8824C136.19 77.7258 135.198 77.3604 135.146 77.3604C134.833 77.256 133.893 76.8906 133.58 77.0994L127.42 80.5968L112.752 88.9488L95.0043 99.0234L79.6053 107.793L74.5941 110.664C73.8111 111.134 72.9759 111.551 72.1929 112.021L72.0885 112.073L74.5419 112.856L73.1325 104.974L70.7835 92.133C70.5747 91.089 70.4181 90.045 70.2093 89.001C70.1571 88.7922 70.1049 89.001 70.2093 88.8966C70.3659 88.7922 70.5225 88.74 70.6791 88.6878L76.0035 86.391L85.6083 82.215L97.6665 76.995L110.508 71.4618L122.305 66.3462L131.335 62.4312C132.797 61.8048 134.311 61.1784 135.772 60.4998L135.981 60.3954L133.528 59.6646V77.1516C133.528 77.6736 136.033 77.9868 136.033 77.8302Z" fill="#EC4E26"/>
<path d="M135.982 84.6161V67.0769L74.4902 94.7951V119.538L135.982 84.6161Z" fill="white"/>
<path d="M136.816 85.3993V67.8601C136.816 67.2859 135.929 65.6677 135.198 66.0331L129.091 68.7997L114.37 75.4291L96.6223 83.4157L81.3277 90.3061L76.2643 92.6029C75.4291 92.9161 74.6461 93.2815 73.8631 93.6991C73.8109 93.6991 73.8109 93.7513 73.7587 93.7513C73.6543 93.8035 73.6543 93.9601 73.6543 94.0645V118.807C73.6543 119.329 74.5939 121.052 75.2725 120.634L81.4321 117.137L96.1003 108.785L113.848 98.7103L129.247 89.9407L134.259 87.0697C135.094 86.6521 135.877 86.1823 136.66 85.7125L136.764 85.6603C137.338 85.3471 135.981 83.1547 135.25 83.5201L129.091 87.0175L114.422 95.3695L96.6745 105.444L81.2755 114.214L76.2643 117.085C75.4813 117.555 74.5939 117.92 73.8631 118.442L73.7587 118.494L75.3769 120.321V95.5261L75.2725 95.8393L81.3799 93.0727L96.1003 86.4433L113.848 78.4567L129.195 71.5663L134.259 69.2695C135.042 68.9041 135.877 68.5909 136.66 68.1733L136.764 68.1211L135.146 66.2941V83.7811C135.198 84.4075 135.511 84.9295 136.033 85.3471C136.242 85.6081 136.816 85.9735 136.816 85.3993Z" fill="#EC4E26"/>
<path d="M97.3535 107.271V49.8508L114.11 42.073L124.602 45.8314C124.602 45.8314 146.108 43.3258 147.466 42.073C148.823 40.8202 147.466 82.9978 147.466 82.9978L97.3535 107.271Z" fill="#EC4E26"/>
<path d="M98.6589 107.062V51.9913C98.7111 51.2605 98.7111 50.4775 98.6589 49.7467C98.6589 49.6945 98.6589 49.6945 98.6589 49.6423L97.9803 50.5297L112.648 43.7437L114.736 42.7519L113.484 42.9607L121.053 45.6751C121.992 46.0927 122.984 46.4059 123.976 46.7191C124.602 46.7713 125.281 46.7191 125.907 46.5625C128.935 46.1971 132.015 45.7795 135.042 45.3619C138.383 44.8921 141.776 44.4223 145.065 43.6915C146.109 43.5349 147.1 43.2217 148.04 42.7519C148.144 42.6997 148.301 42.5953 148.405 42.4909C147.936 42.8563 147.309 42.9607 146.735 42.8041C146.839 42.8563 146.474 42.5953 146.578 42.6997C146.422 42.5431 146.526 42.4909 146.526 42.5953C146.526 42.8041 146.578 42.9607 146.631 43.1695C146.578 42.8041 146.631 43.3261 146.631 43.3783C146.631 43.5871 146.683 43.7437 146.683 43.9525C146.735 44.3701 146.735 44.8399 146.735 45.3097C146.787 46.5103 146.787 47.7109 146.839 48.9115C146.944 55.6453 146.787 62.3791 146.631 69.1651C146.578 72.1927 146.474 75.2203 146.422 78.2479C146.37 79.8139 146.265 81.4321 146.265 83.0503C146.265 83.1025 146.265 83.2069 146.265 83.2591L146.944 82.4239L141.985 84.8251L129.979 90.5671L115.467 97.6141L102.939 103.669C100.903 104.661 98.8155 105.548 96.8841 106.592L96.7797 106.645C96.3099 106.853 95.8923 107.48 96.2577 107.897C96.6231 108.315 97.5105 108.106 97.9803 107.897L102.939 105.496L114.893 99.7021L129.405 92.6551L141.933 86.5999C143.968 85.6081 146.056 84.7207 148.04 83.6767L148.144 83.6245C148.51 83.4679 148.719 83.1547 148.823 82.7893C148.875 81.0667 148.927 79.3441 148.98 77.6215C149.084 73.6543 149.188 69.6871 149.241 65.7199C149.345 61.3351 149.397 56.8981 149.397 52.4611C149.397 49.3813 149.449 46.3015 149.188 43.2217C149.136 42.5953 149.188 41.5513 148.562 41.2381C148.04 41.0293 147.466 41.0815 146.996 41.3947C146.892 41.4469 146.787 41.4991 146.735 41.6035C146.631 41.6557 146.683 41.6035 146.787 41.5513C146.892 41.4991 146.892 41.4469 146.839 41.4991C146.683 41.6035 147.048 41.3947 146.996 41.4469C146.787 41.4991 146.578 41.6035 146.37 41.6557L146.161 41.7079C145.952 41.7601 146.474 41.6557 146.213 41.7079C145.952 41.7601 145.848 41.8123 145.691 41.8123C141.515 42.7519 137.287 43.2739 133.059 43.8481C131.127 44.1091 129.144 44.3701 127.16 44.6311L125.385 44.8399C125.229 44.8399 125.072 44.8921 124.915 44.8921C124.498 44.9965 125.333 44.8399 125.385 44.8921C125.333 44.7355 124.237 44.4745 124.08 44.4223L121.314 43.4305L115.624 41.3947C114.893 41.1337 114.423 40.9771 113.588 41.3425L112.753 41.7601L108.107 43.9003L97.4583 48.8593L96.7797 49.1725C96.4143 49.3291 96.2055 49.6423 96.1011 50.0599V100.381C96.1011 102.73 95.9967 105.079 96.1011 107.375C96.1011 107.428 96.1011 107.428 96.1011 107.48C96.1011 108.733 98.6589 108.158 98.6589 107.062Z" fill="#EC4E26"/>
<path d="M149.501 94.2211V76.7341L88.0098 104.4V129.195L149.501 94.2211Z" fill="white"/>
<path d="M150.233 95.1085V77.6215C150.233 77.2039 149.397 75.3769 148.823 75.6379L142.716 78.4045L127.995 85.0339L110.247 93.0205L94.9006 99.9109L89.8372 102.208L88.2712 102.939C88.0102 103.043 87.697 103.147 87.436 103.304C87.3838 103.304 87.3838 103.356 87.3316 103.356C87.2794 103.408 87.2272 103.513 87.2794 103.617V128.36C87.2794 128.725 88.1668 130.657 88.6888 130.344L94.8484 126.898L109.517 118.546L127.265 108.472L142.664 99.7021L147.675 96.8311L149.241 95.9437C149.502 95.7871 149.815 95.6305 150.076 95.4739L150.18 95.4217C150.65 95.1607 149.345 92.9161 148.875 93.1771L142.716 96.6745L128.048 105.027L110.3 115.101L94.9528 123.819L89.9416 126.69C89.1586 127.159 88.2712 127.525 87.5404 128.047L87.436 128.099L88.8454 130.083V105.34L88.7932 105.601L94.9006 102.834L109.621 96.2047L127.369 88.2181L142.716 81.3278L147.779 79.0309C148.562 78.6655 149.397 78.3523 150.18 77.9869L150.285 77.9348L148.875 75.8989V93.3859C148.98 94.0123 149.241 94.5343 149.658 95.0041C149.763 95.1607 150.233 95.6827 150.233 95.1085Z" fill="#EC4E26"/>
<path d="M154.828 96.2048V78.7178L93.3359 106.384V131.127L154.828 96.2048Z" fill="white"/>
<path d="M156.027 96.6744V79.1874C156.027 78.3522 154.513 77.6214 153.834 77.9346L147.727 80.7012L133.006 87.3306L115.258 95.3172L99.9639 102.208L94.9005 104.504C94.0653 104.818 93.2823 105.183 92.4993 105.601L92.3949 105.653C92.2905 105.705 92.2383 105.809 92.2383 105.966V130.709C92.2383 131.492 93.7521 132.327 94.4307 131.962L100.59 128.464L115.258 120.112L133.006 110.038L148.405 101.32L153.417 98.4492C154.2 97.9794 155.087 97.614 155.818 97.092L155.922 97.0398C156.705 96.57 154.669 95.0562 153.886 95.526L147.727 99.0234L133.059 107.375L115.311 117.45L99.9117 126.22L94.9005 129.038C94.1175 129.508 93.2823 129.874 92.4993 130.396L92.3949 130.448L94.5873 131.701V106.958L94.4307 107.271L100.538 104.557L115.258 97.9272L133.006 89.9406L148.301 83.0502L153.364 80.7534C154.147 80.388 154.983 80.0748 155.766 79.7094L155.87 79.6572L153.678 78.4044V95.8914C153.625 96.57 156.027 97.614 156.027 96.6744Z" fill="#EC4E26"/>
<path d="M157.488 100.537V83.0503L95.9961 110.716V135.459L157.488 100.537Z" fill="white"/>
<path d="M158.741 100.903V83.4157C158.741 82.8937 156.653 82.4761 156.288 82.6327L150.181 85.3993L135.46 92.0287L117.712 100.015L102.365 106.906L97.3019 109.202C96.4667 109.516 95.6837 109.829 94.9007 110.299C94.8485 110.299 94.8485 110.351 94.7963 110.351L94.7441 110.403V135.146C94.7441 135.668 96.8321 136.138 97.1975 135.929L103.357 132.431L118.025 124.079L135.773 114.005L151.12 105.287L156.184 102.416L157.75 101.529C158.011 101.372 158.324 101.268 158.585 101.059C158.637 101.059 158.637 101.007 158.689 101.007C159.002 100.798 158.011 100.433 157.906 100.433C157.541 100.328 156.706 99.9631 156.288 100.172L150.128 103.669L135.46 112.021L117.712 122.096L102.365 130.813L97.3019 133.684C96.5189 134.154 95.6837 134.572 94.9007 135.042L94.7963 135.094L97.2497 135.877V111.708C97.2497 111.499 97.2497 111.343 97.1975 111.134C97.1453 111.186 97.3019 111.082 97.3541 111.082C98.8157 110.455 100.277 109.777 101.739 109.098L110.509 105.131L121.836 100.015L134.103 94.4821L145.483 89.3665L154.2 85.4515C155.662 84.8251 157.123 84.1987 158.533 83.5201L158.741 83.4157L156.288 82.6327V100.12C156.236 100.746 158.741 101.111 158.741 100.903Z" fill="#EC4E26"/>
<path d="M162.812 102.469V84.9817L101.32 112.648V137.443L162.812 102.469Z" fill="white"/>
<path d="M164.065 102.782V85.2947C164.065 84.5639 162.238 84.3029 161.768 84.5117L155.609 87.2783L140.888 93.9077L123.14 101.894L107.793 108.785C105.288 109.881 102.782 110.977 100.329 112.126L100.224 112.178C100.12 112.178 100.016 112.282 100.016 112.387V137.129C100.016 137.912 101.999 138.121 102.469 137.86L108.629 134.363L123.297 126.011L141.045 115.936L156.444 107.167L161.455 104.296L163.021 103.408C163.282 103.252 163.595 103.095 163.856 102.938L163.961 102.886C164.378 102.625 163.334 102.155 163.23 102.103C162.708 101.842 162.134 101.842 161.612 102.051L155.452 105.548L140.784 113.9L123.036 123.975L107.637 132.745L102.626 135.616C101.843 136.085 101.007 136.503 100.224 136.973L100.12 137.025L102.573 137.756V113.013L102.365 113.222L108.472 110.455L123.245 103.826L140.993 95.8391L156.339 88.9487L161.403 86.6519C162.186 86.2865 163.021 85.9733 163.804 85.5557L163.908 85.5035L161.612 84.7205V102.208C161.507 102.938 164.065 103.304 164.065 102.782Z" fill="#EC4E26"/>
<path d="M171.636 105.914V88.427L110.145 116.093V140.888L171.636 105.914Z" fill="white"/>
<path d="M172.781 106.227V88.7401C172.781 87.8005 171.476 87.1741 170.693 87.5395L164.586 90.3061L149.866 96.9355L132.118 104.922L116.771 111.813L111.707 114.109C110.924 114.475 110.089 114.736 109.306 115.206C109.254 115.206 109.254 115.258 109.202 115.258C108.993 115.362 108.889 115.675 108.889 115.884V140.627C108.889 141.514 110.194 142.245 110.977 141.828L117.136 138.33L131.804 129.978L149.552 119.904L164.899 111.186L169.963 108.315C170.746 107.845 171.581 107.48 172.364 106.958L172.468 106.906C173.564 106.279 171.685 104.505 170.693 105.079L164.534 108.576L149.866 116.928L132.118 127.003L116.771 135.72L111.76 138.591C110.977 139.061 110.141 139.426 109.358 139.948L109.254 140.001L111.342 141.201V116.406L111.029 117.033L117.188 114.266L131.909 107.637L149.657 99.6499L164.951 92.7595L170.015 90.4627C170.798 90.0973 171.633 89.7841 172.416 89.3665L172.52 89.3143L170.432 88.1137V105.601C170.432 106.801 172.781 107.689 172.781 106.227Z" fill="#EC4E26"/>
<path d="M176.958 107.897V90.4104L115.467 118.076V142.819L176.958 107.897Z" fill="white"/>
<path d="M178.053 108.367V90.8803C178.053 90.0973 176.957 89.0533 176.174 89.4187L170.067 92.1853L155.346 98.8147L137.598 106.801L122.251 113.692L117.188 115.988C116.405 116.354 115.57 116.667 114.787 117.085L114.682 117.137C114.474 117.241 114.369 117.45 114.369 117.711V142.454C114.369 143.185 115.465 144.333 116.248 143.915L122.408 140.418L137.076 132.066L154.824 121.991L170.223 113.274C172.729 111.865 175.234 110.507 177.688 109.046L177.792 108.994C178.836 108.367 177.166 106.436 176.226 106.958L170.067 110.455L155.398 118.807L137.65 128.882L122.251 137.599L117.24 140.47C116.457 140.94 115.57 141.305 114.839 141.827C114.787 141.827 114.787 141.88 114.735 141.88L116.614 143.341V118.546L116.301 119.12L122.408 116.354L137.128 109.724L154.876 101.738L170.223 94.8475L175.287 92.5507C176.07 92.1853 176.905 91.8721 177.688 91.4545L177.792 91.4023L175.913 89.9407V107.428C175.965 108.054 176.435 108.628 177.009 108.837C177.427 109.046 178.053 108.994 178.053 108.367Z" fill="#EC4E26"/>
<path d="M189.956 132.64L114.109 164.9L117.189 121.782L189.956 91.8718V132.64Z" fill="#EC4E26"/>
<path d="M189.015 131.701L181.498 134.885L163.384 142.61L141.46 151.954L122.512 159.993L116.248 162.655C115.256 163.073 114.264 163.438 113.325 163.908L113.22 163.96L115.152 165.631L115.726 157.592L116.926 140.731L117.97 125.959C118.023 124.862 118.231 123.766 118.179 122.67C118.179 122.409 118.127 122.618 118.231 122.566C118.44 122.513 118.649 122.409 118.806 122.305L126.27 119.225L139.581 113.744L155.659 107.167L171.528 100.642L184.212 95.4216L190.685 92.7594L190.946 92.655L189.015 90.9846V131.753C189.015 132.223 189.693 132.745 190.006 133.058C190.111 133.162 190.998 133.789 190.998 133.371V92.655C190.998 92.0808 189.641 90.7236 189.067 90.9846L181.811 93.96L164.428 101.111L143.444 109.777L125.226 117.241L119.275 119.695L117.396 120.478C117.031 120.582 116.718 120.686 116.404 120.895C116.352 120.895 116.3 120.947 116.3 120.947L116.248 121.052L115.204 135.616L113.586 158.845L113.22 164.169C113.168 164.691 114.577 166.1 115.152 165.839L122.668 162.655L140.782 154.93L162.706 145.586L181.654 137.495L187.918 134.833L189.85 133.997C190.215 133.893 190.528 133.736 190.842 133.58C190.894 133.58 190.946 133.528 190.998 133.528C191.103 133.423 189.693 131.44 189.015 131.701Z" fill="#EC4E26"/>
<path d="M117.189 121.783L57.6289 81.2756C57.6289 81.2756 63.9451 133.841 64.2583 135.72C64.5715 137.599 111.186 163.752 114.109 164.9C117.033 166.048 117.189 121.783 117.189 121.783Z" fill="#EC4E26"/>
<path d="M117.452 121.365L111.501 117.293L97.3029 107.636L80.1291 95.9436L65.2521 85.8168C62.8509 84.1986 60.4497 82.476 58.0485 80.91L57.9441 80.8578C57.8397 80.7534 56.4825 80.127 56.5347 80.7534L57.7353 90.8802C58.5705 97.9272 59.4579 104.974 60.2931 112.021C61.0761 118.285 61.8069 124.549 62.5899 130.813C62.7465 132.17 62.9031 133.58 63.1119 134.989C63.3207 136.085 64.6257 136.816 65.5131 137.443C70.2111 140.679 75.1701 143.55 80.1291 146.421C86.6019 150.232 93.1269 153.938 99.7041 157.644C104.193 160.15 108.682 162.76 113.276 165.056C113.746 165.37 114.268 165.578 114.842 165.735C115.416 165.839 115.782 165.474 115.938 164.952C116.669 163.177 116.773 161.037 116.982 159.158C117.713 152.424 117.87 145.586 118.078 138.8C118.235 133.58 118.287 128.36 118.339 123.14C118.339 122.879 118.339 122.618 118.339 122.305C118.339 121.574 116.043 120.53 116.043 121.208C116.043 124.967 115.99 128.673 115.886 132.431C115.729 139.374 115.573 146.317 115.103 153.259C114.894 155.921 114.738 158.584 114.268 161.194C114.163 161.924 114.007 162.707 113.746 163.386C113.694 163.595 113.589 163.804 113.433 163.96C113.328 164.117 113.433 163.908 113.38 164.012C113.328 164.117 113.119 163.96 113.433 164.012L113.798 164.065C113.902 164.117 114.163 164.221 113.902 164.117L113.641 164.012L112.911 163.647C112.18 163.282 111.397 162.864 110.666 162.446C110.457 162.342 110.196 162.185 109.987 162.081L109.622 161.872C109.361 161.716 109.883 162.029 109.622 161.872L109.413 161.768L107.743 160.828C106.49 160.15 105.185 159.419 103.932 158.74C97.6161 155.243 91.2999 151.641 85.0359 148.039C79.5027 144.855 74.0217 141.671 68.6451 138.226C68.1753 137.912 67.7577 137.651 67.2879 137.338L66.7659 136.973C66.5571 136.816 66.6093 136.868 66.7659 136.973L66.5049 136.764C66.2439 136.555 65.9307 136.346 65.6697 136.19C65.5653 136.138 65.4609 136.033 65.3565 135.929C65.1477 135.772 65.5653 136.19 65.4609 135.981C65.4087 135.929 65.3565 135.929 65.3565 135.877C65.1477 135.616 65.5131 136.085 65.3565 135.877C65.3565 135.877 65.4609 136.033 65.4609 136.085C65.4609 135.981 65.4609 135.824 65.4087 135.72C65.3043 135.146 65.2521 134.572 65.1999 133.945C64.5213 128.516 63.8427 123.035 63.1641 117.607C62.2767 110.455 61.4415 103.252 60.5541 96.1003C59.9799 91.5066 59.4579 86.9652 58.8837 82.3716C58.8837 82.1628 58.8315 81.9018 58.7793 81.693L57.3699 81.5886L63.3207 85.6602L77.5191 95.3173L94.6929 107.01L109.57 117.137C111.971 118.755 114.372 120.478 116.826 122.044L116.93 122.096C117.191 122.252 118.078 122.722 118.287 122.357C118.496 121.991 117.661 121.522 117.452 121.365Z" fill="#EC4E26"/>
<path d="M139.061 135.094C139.061 135.094 137.495 120.791 151.015 112.543C164.535 104.296 172.156 116.197 172.156 123.818C172.156 123.818 143.916 135.772 139.061 135.094Z" fill="white"/>
<path d="M140.262 135.302C140.157 133.788 140.21 132.222 140.418 130.709C140.888 127.055 142.193 123.557 144.229 120.477C147.048 116.249 151.433 112.7 156.235 111.081C158.219 110.403 160.307 110.246 162.342 110.716C163.125 110.925 163.856 111.238 164.587 111.656C165.266 112.073 165.944 112.595 166.518 113.169C169.285 115.936 170.851 119.694 170.903 123.609L171.164 123.192C167.98 124.549 164.744 125.854 161.507 127.159C155.87 129.404 150.232 131.596 144.438 133.319C143.342 133.632 142.089 133.997 140.94 134.206C140.471 134.31 140.001 134.363 139.531 134.415C139.427 134.415 139.218 134.415 139.479 134.415H139.218H138.957C138.644 134.415 139.061 134.415 139.009 134.415C138.644 134.363 137.913 134.363 137.913 134.937C137.913 135.511 138.8 135.824 139.218 135.876C141.045 136.137 143.028 135.563 144.751 135.093C147.57 134.31 150.284 133.371 153.051 132.431C158.584 130.448 164.065 128.307 169.494 126.063C170.694 125.593 171.895 125.071 173.096 124.549C173.252 124.497 173.409 124.288 173.357 124.079C173.252 120.321 171.895 116.667 169.442 113.796C166.571 110.351 162.134 108.628 157.697 109.098C154.93 109.463 152.32 110.455 149.971 112.021C147.622 113.483 145.482 115.257 143.707 117.398C141.045 120.582 139.218 124.392 138.435 128.464C137.965 130.604 137.808 132.744 137.965 134.937C137.965 135.772 140.366 136.294 140.262 135.302Z" fill="#000005"/>
<path d="M144.072 131.805C144.072 131.805 143.55 122.827 152.424 116.719C161.298 110.612 167.092 116.928 167.98 122.983L144.072 131.805Z" fill="white"/>
<path d="M145.065 132.223C145.065 131.962 145.065 131.701 145.065 131.492C145.065 131.387 145.117 131.022 145.065 131.283C145.065 131.126 145.065 130.97 145.117 130.813C145.169 130.396 145.221 130.03 145.273 129.613C145.691 127.42 146.526 125.332 147.727 123.401C149.502 120.53 152.059 118.233 155.035 116.667C157.488 115.414 160.568 114.84 163.074 116.302C165.318 117.554 166.623 119.956 167.041 122.566L167.511 121.835L159.42 124.81L146.578 129.56L143.603 130.657C142.455 131.074 143.707 133.319 144.699 132.953L152.79 129.978L165.631 125.28L168.607 124.184C168.92 124.079 169.129 123.766 169.077 123.453C168.711 120.478 167.302 117.711 165.109 115.623C162.813 113.483 159.576 112.648 156.549 113.431C152.895 114.37 149.606 116.98 147.257 119.903C145.534 122.044 144.334 124.549 143.655 127.211C143.29 128.569 143.133 129.978 143.185 131.387C143.238 132.066 143.655 132.64 144.229 132.901C144.543 133.11 144.908 133.006 145.117 132.692C145.065 132.588 145.117 132.431 145.065 132.223Z" fill="#EC4E26"/>
<path d="M116.405 122.096C116.405 123.61 116.301 125.124 116.196 126.585C116.04 129.874 115.883 133.11 115.726 136.347C115.361 143.602 114.996 150.858 114.63 158.114C114.526 159.941 114.369 161.768 114.369 163.595C114.369 164.221 114.682 164.848 115.152 165.265C115.57 165.579 115.935 165.422 115.935 164.9C115.935 163.386 116.04 161.872 116.144 160.411C116.301 157.174 116.457 153.886 116.614 150.649C116.979 143.394 117.345 136.138 117.71 128.934C117.814 127.107 117.971 125.28 117.971 123.401C117.971 122.775 117.658 122.148 117.188 121.731C116.77 121.417 116.405 121.574 116.405 122.096Z" fill="white"/>
<path d="M156.862 123.035L162.552 123.244C163.179 123.296 163.753 123.192 164.327 122.879C164.745 122.513 164.066 122.305 163.805 122.305L158.115 122.096C157.489 122.044 156.915 122.148 156.34 122.461C155.871 122.827 156.549 123.035 156.862 123.035Z" fill="#000005"/>
<path d="M85.0333 98.2405C85.0333 98.2405 84.9289 95.0563 82.6843 93.3859C80.4397 91.7155 76.9423 90.6715 73.9669 91.5589C70.9915 92.4463 69.2167 97.8751 70.1041 101.947C70.9915 106.018 73.3927 105.235 73.6015 103.774C73.6015 103.774 74.2801 106.958 76.7857 106.958C79.2913 106.958 77.6731 102.782 77.6731 102.782C77.6731 102.782 78.1429 105.862 80.1787 105.862C82.2145 105.862 80.6485 96.2569 80.6485 96.2569" fill="white"/>
<path d="M86.286 98.606C86.2338 96.6224 85.2942 94.7954 83.7282 93.5948C82.371 92.6552 80.8572 91.9766 79.2912 91.559C77.6208 91.037 75.8982 90.8282 74.1756 90.9326C72.975 90.9848 71.8788 91.5068 71.0436 92.342C70.2084 93.3338 69.582 94.4822 69.2166 95.735C68.799 97.0922 68.5902 98.5538 68.6946 100.015C68.7468 101.32 69.0078 102.782 69.843 103.826C70.1562 104.191 70.5216 104.505 70.9914 104.661C71.7744 104.974 72.6096 105.183 73.4448 105.235C74.1756 105.288 74.802 104.766 74.9586 104.035L72.453 103.356C72.6096 104.139 72.975 104.818 73.4448 105.444C73.8624 105.914 74.3844 106.332 74.9586 106.54C75.9504 106.958 76.9422 107.167 77.9862 107.219C80.1786 107.219 79.5 104.348 79.0302 102.991C78.9258 102.73 78.0384 102.573 77.7774 102.521C77.3598 102.417 76.9422 102.364 76.4724 102.312C76.5768 103.304 77.0466 104.244 77.7252 104.922C78.456 105.601 79.7088 105.81 80.7006 106.018C81.1182 106.071 81.6402 106.175 81.9534 105.81C82.5798 105.131 82.5276 103.774 82.5276 102.939C82.5276 101.581 82.4232 100.224 82.2666 98.867C82.1622 98.084 82.0578 97.2488 81.9534 96.4658C81.9012 96.257 80.9094 96.0482 80.7006 95.996C80.283 95.8916 79.8654 95.8394 79.3956 95.7872C79.6566 97.4054 79.8132 99.0236 79.9176 100.642C80.022 101.738 79.9698 102.886 79.8132 103.983C79.761 104.348 79.6566 104.713 79.5 105.027C79.4478 105.131 79.3434 105.235 79.239 105.288C79.1868 105.34 79.1346 105.34 79.0824 105.34C78.6126 105.601 80.9094 106.175 80.283 105.601C79.5522 104.922 79.0824 103.983 78.978 102.991L76.4724 102.312C76.8378 103.356 77.4642 105.288 76.5246 106.175C76.368 106.332 76.2114 106.384 76.0026 106.436C75.8982 106.436 75.7416 106.436 75.6372 106.488C76.629 106.332 77.2554 107.115 76.629 106.697C76.2114 106.436 75.846 106.018 75.6372 105.601C75.324 105.131 75.1152 104.609 75.0108 104.035C74.9586 103.669 72.5052 103.252 72.5052 103.356C72.453 103.878 72.0876 104.296 71.6178 104.452C71.5134 104.505 71.3568 104.452 71.3046 104.505L72.1398 104.713C72.975 105.027 73.236 105.079 72.9228 104.922C72.8706 104.87 72.8184 104.818 72.7662 104.818C72.453 104.505 72.1398 104.139 71.9832 103.722C70.9914 101.634 71.0958 99.0236 71.67 96.8312C72.1398 95.0042 73.1316 92.8118 74.9586 92.0288C76.2114 91.559 77.5164 91.4546 78.8214 91.6634C79.1346 91.7156 78.9258 91.6634 79.1868 91.7678C79.4478 91.8722 79.761 91.9766 80.022 92.1332C80.6484 92.3942 81.1704 92.7596 81.6924 93.1772C83.0496 94.3778 83.8326 96.1004 83.8848 97.8752C83.8848 98.084 84.9288 98.2928 85.1376 98.345C85.4508 98.5538 85.8684 98.606 86.286 98.606Z" fill="#000005"/>
<path d="M72.1409 98.4493C72.0365 99.4933 72.0887 100.537 72.1931 101.529C72.2975 102.678 72.4541 103.878 72.6629 105.027C72.7673 105.601 73.6547 105.705 74.1245 105.601C74.5943 105.496 75.3251 105.079 75.2207 104.452C75.0119 103.356 74.8553 102.208 74.7509 101.059C74.6987 100.537 74.6465 99.9631 74.6465 99.4411C74.6465 99.3889 74.6465 99.2845 74.6465 99.3889C74.6465 99.3367 74.6465 99.2845 74.6465 99.1801C74.6465 99.0757 74.6465 98.9713 74.6465 98.8669C74.6465 98.6581 74.6465 98.5015 74.6987 98.2927C74.8553 97.0921 72.2453 97.3531 72.1409 98.4493Z" fill="#000005"/>
<path d="M76.0039 97.7184C76.0561 99.8064 76.4215 101.842 77.1523 103.774C77.2567 104.035 77.4655 104.243 77.6221 104.4C77.8309 104.661 78.0919 104.87 78.3529 105.079C78.5095 105.183 79.1881 105.601 78.9793 105.131C78.6139 104.243 78.4051 103.304 78.2485 102.312C78.0919 101.32 77.9875 100.328 77.9353 99.3366C77.8831 99.1278 77.7787 98.9712 77.6221 98.8146C77.4133 98.5536 77.1523 98.2926 76.8913 98.0838C76.8391 98.0316 76.0039 97.4052 76.0039 97.7184Z" fill="#000005"/>
<path d="M96.8328 75.168C90.1512 75.951 84.096 79.5528 80.2332 85.086C79.137 86.652 78.2496 88.3224 77.571 90.0972C77.31 90.7758 79.0848 92.5506 79.3458 91.9242C81.747 85.8168 86.6538 80.9622 92.8134 78.6132C94.536 77.9346 96.363 77.517 98.2422 77.3082C98.8686 77.2038 97.5636 75.0636 96.8328 75.168Z" fill="#000005"/>
<path d="M125.332 75.2726C125.489 74.9072 125.75 74.5418 126.011 74.2286C126.167 74.072 126.324 73.9676 126.481 73.8632C126.533 73.811 126.637 73.7588 126.742 73.7066C126.95 73.55 127.107 73.7066 126.481 73.55L125.541 73.1324L125.645 73.1846L125.28 72.8192C125.593 73.3934 125.959 73.9154 126.376 74.333C126.95 74.9072 128.047 75.4292 128.882 75.116C129.404 74.9072 129.717 74.1764 130.082 73.7588C130.291 73.4978 130.552 73.2368 130.813 72.9758C131.074 72.7148 131.179 72.5582 131.44 72.506H130.918C130.813 72.506 130.03 72.0362 130.448 72.4016L130.709 72.6104C130.918 72.767 131.179 72.9236 131.44 73.0802C131.962 73.3412 132.588 73.4978 133.214 73.4978C134.05 73.4978 134.833 73.028 135.198 72.2972C135.511 71.5664 133.11 70.5746 132.797 71.3054C132.692 71.5664 132.484 71.723 132.275 71.8796C132.17 71.9318 132.014 71.984 131.909 72.0362C131.648 72.1406 131.857 71.984 131.857 72.0362C131.857 71.9318 132.536 72.4016 132.223 72.0884C132.118 71.984 132.014 71.8796 131.909 71.8274C131.492 71.5142 131.022 71.3054 130.552 71.1488C129.56 70.8878 129.038 71.3054 128.36 71.984C128.099 72.2972 127.786 72.5582 127.577 72.9236L127.264 73.3412C127.211 73.3934 126.95 73.7066 127.055 73.7066L127.994 73.9154C128.621 74.1764 128.464 74.2808 128.203 73.9676C128.151 73.9154 128.099 73.811 128.047 73.7588C127.942 73.4978 127.786 73.2368 127.629 73.028C127.055 72.3494 126.115 72.0362 125.228 72.1928C124.236 72.506 123.401 73.289 122.983 74.2808C122.67 75.0116 125.071 76.0034 125.384 75.2726H125.332Z" fill="#000005"/>
<path d="M121.471 67.4424C121.889 67.599 122.306 67.7556 122.724 67.9122L122.411 67.8078C122.724 67.9644 123.037 68.121 123.298 68.2776C123.611 68.4342 123.925 68.5386 124.29 68.5386C124.603 68.5908 124.864 68.4864 125.125 68.382C125.334 68.2776 125.438 68.0688 125.386 67.86C125.282 67.6512 125.073 67.4424 124.864 67.338C124.081 66.8682 123.246 66.5028 122.411 66.2418C122.098 66.1374 121.732 66.0852 121.419 66.0852C121.158 66.0852 120.949 66.1896 120.74 66.3984C120.636 66.555 120.636 66.816 120.74 66.9726C120.897 67.1814 121.158 67.338 121.471 67.4424Z" fill="#000005"/>
<path d="M133.736 66.6594C133.841 66.4506 133.945 66.2418 134.102 66.033L133.997 66.1896C134.206 65.8764 134.467 65.5632 134.728 65.25C134.885 65.0934 134.937 64.8846 134.937 64.6758C134.885 64.467 134.728 64.2582 134.572 64.206C134.102 63.9972 133.58 64.1016 133.214 64.467C132.745 64.989 132.327 65.5632 132.014 66.1896C131.909 66.3984 131.909 66.6072 132.014 66.816C132.118 67.0248 132.327 67.1292 132.536 67.1814C132.953 67.2858 133.475 67.077 133.736 66.6594Z" fill="#000005"/>
</svg>
