<svg width="198" height="233" viewBox="0 0 198 233" fill="none" xmlns="http://www.w3.org/2000/svg">
<path d="M149.177 50.0346C150.068 46.7481 151.182 43.5172 152.519 40.3978C152.686 40.0079 152.909 39.6179 153.187 39.2837C153.521 38.9495 154.023 38.8938 154.413 39.1166C154.58 39.228 154.691 39.3951 154.803 39.5622C156.864 42.6817 158.423 46.191 159.37 49.8118C159.538 50.2017 159.538 50.7031 159.259 51.093C158.98 51.3158 158.646 51.3715 158.312 51.3158C157.309 51.2044 156.362 50.9259 155.471 50.536C152.24 49.4219 149.121 48.0293 146.113 46.4138C145.89 46.3024 145.723 46.1353 145.556 45.9125C145.389 45.4669 145.946 45.0212 146.391 44.7984C149.065 43.5172 151.962 42.7374 154.914 42.4031C156.362 42.236 157.978 42.236 159.259 43.0159C159.37 43.0716 159.482 43.183 159.482 43.2944C159.482 43.4058 159.426 43.5172 159.315 43.6286C157.031 46.2467 154.413 48.5863 151.572 50.5917C150.792 51.1487 149.734 51.7057 148.842 51.2601" fill="#EC4E26"/>
<path d="M168.117 50.0346C169.009 46.7481 170.123 43.5172 171.46 40.3978C171.627 39.9522 171.85 39.6179 172.128 39.2837C172.462 38.9495 172.964 38.8938 173.354 39.1166C173.521 39.228 173.632 39.3951 173.744 39.5622C175.805 42.6817 177.364 46.191 178.311 49.8118C178.478 50.2017 178.423 50.7031 178.2 51.093C177.921 51.3158 177.587 51.3715 177.253 51.3158C176.25 51.2044 175.303 50.9259 174.356 50.536C171.125 49.4219 168.006 48.0293 164.998 46.4138C164.775 46.3024 164.552 46.1353 164.441 45.9125C164.274 45.4669 164.775 45.0212 165.277 44.7984C167.95 43.5172 170.847 42.7374 173.799 42.4031C175.248 42.236 176.863 42.236 178.144 43.0159C178.311 43.0716 178.367 43.2387 178.311 43.4058C178.311 43.4615 178.256 43.5172 178.2 43.5729C175.916 46.191 173.298 48.5306 170.457 50.536C169.677 51.093 168.619 51.65 167.728 51.2044" fill="#EC4E26"/>
<path d="M187.166 49.8117C188.058 46.5252 189.172 43.2943 190.509 40.1749C190.676 39.785 190.898 39.395 191.177 39.0608C191.511 38.7266 192.013 38.6709 192.402 38.8937C192.57 39.0051 192.681 39.1722 192.792 39.3393C194.853 42.4588 196.413 45.9681 197.416 49.5889C197.583 49.9788 197.527 50.4802 197.304 50.8701C197.026 51.0929 196.692 51.1486 196.357 51.0929C195.355 50.9815 194.408 50.703 193.461 50.3131C190.23 49.199 187.055 47.8064 184.047 46.1352C183.824 46.0238 183.601 45.8567 183.49 45.6339C183.323 45.1883 183.824 44.7426 184.325 44.5198C186.999 43.2386 189.896 42.4588 192.848 42.1245C194.296 41.9574 195.912 41.9574 197.193 42.7373C197.304 42.793 197.36 42.9044 197.416 43.0158C197.416 43.1272 197.36 43.2386 197.249 43.35C194.965 45.9681 192.347 48.3077 189.506 50.3131C188.726 50.8701 187.668 51.4271 186.776 50.9815" fill="#EC4E26"/>
<path d="M149.178 31.4295C150.571 31.9866 152.186 31.708 153.356 30.7611C154.47 29.7027 154.915 28.0873 154.581 26.5833C154.414 25.9148 153.801 25.4135 153.133 25.3021C151.796 25.0792 150.793 26.3047 150.793 27.5859C150.96 29.0342 151.963 30.3154 153.356 30.7611C155.918 31.6523 158.592 29.3685 160.207 27.5859C161.099 26.5833 161.878 25.4692 162.658 24.3551C163.327 23.2967 164.274 22.1269 164.497 20.9014C164.719 19.3974 163.94 17.9491 162.603 17.2807C161.377 16.7236 160.263 17.4478 159.706 18.6176C159.093 20.0102 158.703 21.4585 158.592 22.9625C158.369 24.4108 158.313 25.8591 158.481 27.3074C158.592 28.6443 159.205 29.8698 160.152 30.8168C161.266 31.7637 162.714 31.8751 164.107 31.7637C166.669 31.5409 169.064 30.3711 170.791 28.4772C171.293 28.0316 171.627 27.4745 171.794 26.8061C171.85 26.1376 171.627 25.4692 171.237 24.9678C170.513 24.0766 169.12 23.6309 168.117 24.2437C166.78 25.0235 167.059 26.9732 167.616 28.1987C168.229 29.4242 169.176 30.4825 170.401 31.151C172.629 32.4322 175.359 32.3765 177.587 31.0953C178.645 30.4825 176.974 28.2544 175.86 28.9228C174.022 30.0369 170.234 29.9255 169.51 27.5859C169.399 27.196 169.399 26.5833 169.956 26.4718C169.788 26.4718 170.401 26.4718 170.234 26.4718C169.956 26.5833 169.956 25.5249 169.621 25.692C169.51 25.7477 169.343 26.1376 169.231 26.249C169.12 26.3604 168.897 26.5833 168.73 26.7504C167.56 27.9202 166.056 28.7557 164.441 29.0899C163.717 29.2571 162.937 29.3128 162.157 29.3128C161.489 29.2571 161.154 29.2571 160.932 28.5886C160.764 27.8645 160.709 27.0846 160.709 26.3047C160.709 25.2464 160.82 24.1323 161.043 23.0739C161.21 22.1269 161.433 21.2356 161.823 20.4001C161.934 20.1216 162.101 19.8988 162.324 19.6759C162.268 19.7316 162.658 19.4531 162.658 19.5088C162.547 19.4531 162.436 19.3417 162.38 19.2303C162.38 19.2303 162.436 19.286 162.436 19.3417C162.38 19.4531 162.38 19.7316 162.324 19.8988C162.268 20.0102 162.213 20.1216 162.157 20.2887C161.934 20.6786 161.711 21.0685 161.433 21.4028C160.932 22.1826 160.486 22.9068 159.985 23.6309C158.926 25.1906 157.589 26.5833 156.03 27.6416C155.361 28.0873 154.247 28.7 153.411 28.3658C153.356 28.3101 153.244 28.2544 153.189 28.1987C153.467 28.3658 153.133 28.4772 153.3 28.1987C153.467 27.9202 153.634 27.6973 154.08 27.753L152.632 26.4718C153.022 28.3658 150.849 29.647 149.234 29.0899C148.844 28.9228 148.398 29.1456 148.231 29.5356C148.175 29.647 148.175 29.8141 148.175 29.9255C148.064 30.594 148.509 31.2067 149.178 31.4295Z" fill="#EC4E26"/>
<path d="M179.258 27.6418C179.592 27.6418 180.149 27.6418 179.815 27.2518C179.48 26.8619 178.422 26.7505 177.976 26.7505C177.531 26.7505 177.085 26.7505 177.419 27.1404C177.754 27.5303 178.868 27.6418 179.258 27.6418Z" fill="#EC4E26"/>
<path d="M3.45329 215.198L1.33654 19.8989C1.22513 11.2091 16.6552 0.235356 25.2893 0.458173L96.2008 6.52993C104.501 6.75274 111.129 13.5487 111.074 21.8486L120.878 211.076C120.878 219.153 104.445 225.002 96.4236 225.503L19.6632 230.294C11.2519 230.795 3.95463 224.389 3.45329 215.978C3.45329 215.699 3.45329 215.476 3.45329 215.198Z" fill="#000005"/>
<path d="M4.79118 215.365L4.67978 203.778L4.34555 174.255L3.89992 134.092L3.45428 91.2557L3.06436 53.0426L2.78583 26.9731L2.73013 20.957C2.67443 16.8349 4.73548 13.4927 7.52069 10.5403C10.7515 7.08667 14.6508 4.35717 18.9958 2.46323C20.8897 1.57196 22.895 1.01492 25.0118 0.736399C25.4017 0.736399 25.736 0.736398 26.1259 0.680693C26.1259 0.680693 25.5688 0.624989 25.736 0.680693H26.0145C29.4124 0.959214 32.7547 1.23774 36.1526 1.57196L76.3711 5.02562L92.2468 6.47393L96.0904 6.80815C98.7642 6.97527 101.382 7.92224 103.555 9.48195C107.565 12.4343 109.571 16.9463 109.738 21.7926C109.738 22.0711 109.794 22.3496 109.794 22.6281L110.128 28.8113L111.52 55.2151L113.526 93.8181L115.754 136.822L117.759 175.815L119.152 203.165L119.486 209.683C119.486 210.073 119.542 210.463 119.542 210.853C119.542 213.526 117.704 215.81 115.754 217.481C112.412 220.322 108.122 222.161 103.945 223.497C101.104 224.444 98.1514 225.057 95.1434 225.28C92.2468 225.447 89.3501 225.614 86.4535 225.837L47.015 228.288C37.6009 228.845 28.2426 229.458 18.8286 230.071C10.9744 230.516 4.9583 222.662 4.79118 215.365C4.79118 215.03 2.00598 214.919 2.00598 215.03C2.11738 219.932 4.45696 224.5 8.41196 227.341C11.9213 229.848 16.5448 230.739 20.834 230.516C23.4521 230.405 26.0702 230.182 28.6883 230.015L68.1825 227.564L97.2044 225.781C103.889 225.336 110.295 223.219 115.977 219.654C119.263 217.537 122.438 214.585 122.216 210.407L121.324 192.86L119.542 158.769L117.369 116.434L115.197 73.9874L113.414 39.9521L112.523 22.6838C112.523 22.2382 112.467 21.7369 112.467 21.2912C112.245 16.3893 109.738 11.9329 105.671 9.20343C101.716 6.52963 97.093 6.41823 92.5253 6.0283L55.9833 2.90886L25.4574 0.290764C18.7729 -0.266278 12.1441 3.57731 7.24217 7.81083C3.6214 10.9303 -0.0550791 15.1638 0.000625138 20.2329L0.167739 36.4985L0.501964 69.364L0.947595 111.309L1.39323 154.313L1.78316 190.409L2.00598 212.078V214.975C2.06168 215.365 4.79118 215.476 4.79118 215.365Z" fill="#000005"/>
<path d="M14.8163 210.964L12.7553 15.6652C12.6438 7.19813 19.4398 0.290812 27.9068 0.235107C28.0739 0.235107 28.2967 0.235107 28.4638 0.235107L107.675 2.29616C115.975 2.51898 122.548 9.31489 122.548 17.6148L122.214 206.062C122.214 214.139 115.919 220.824 107.898 221.325L31.0819 226.116C22.6706 226.617 15.3734 220.211 14.872 211.8C14.8163 211.521 14.8163 211.243 14.8163 210.964Z" fill="white"/>
<path d="M16.2106 211.242L16.0992 199.934L15.765 170.857L15.3194 131.585L14.8737 89.0275L14.4838 50.9258L14.2053 24.0764C14.1496 18.5617 13.3697 12.4899 16.4892 7.58795C19.163 3.35443 23.7307 0.736335 28.6884 0.513519C29.4682 0.513519 30.2481 0.513518 31.028 0.569222L43.1715 0.903448L83.4456 1.96183C91.8012 2.18464 100.157 2.35176 108.512 2.63028C112.523 2.74169 116.311 5.5826 118.484 8.81344C120.266 11.3758 121.157 14.3839 121.157 17.5033C121.157 18.8959 121.157 20.2885 121.157 21.7368L121.102 45.0212L121.046 81.8416L120.99 124.01L120.935 164.117L120.879 193.918C120.879 197.873 120.879 201.884 120.879 205.839C120.767 213.916 114.473 220.545 106.451 221.046C103.332 221.269 100.268 221.436 97.1488 221.603L57.766 224.054C48.5748 224.611 39.4393 225.224 30.2481 225.781C22.3381 226.227 16.3778 218.595 16.2106 211.242C16.2106 210.797 13.4811 210.685 13.4811 210.741C13.5368 215.532 15.8207 219.988 19.6086 222.885C23.118 225.558 27.9085 226.617 32.2534 226.394C34.7601 226.283 37.2668 226.06 39.7735 225.948L78.5993 223.497L108.345 221.659C110.574 221.603 112.746 221.046 114.807 220.155C119.152 218.094 122.216 214.139 123.218 209.46C123.497 207.566 123.608 205.728 123.553 203.834L123.608 182.61L123.664 146.626L123.72 104.012L123.775 62.9579L123.831 31.5407C123.831 27.0287 123.887 22.5167 123.831 18.0046C123.831 14.6067 122.717 11.2644 120.656 8.59062C117.704 4.69133 113.247 2.79739 108.457 2.24035C105.783 1.90612 103.109 2.01753 100.435 1.96183L62.7793 0.959152L29.5796 0.0678856L27.3515 0.0121801C23.1737 -0.154932 19.0516 1.40479 15.9878 4.2457C12.5342 7.47654 11.1973 11.8772 11.1973 16.5006L11.3644 33.8803L11.6986 67.1914L12.1442 108.858L12.5899 151.249L12.9798 186.733L13.2026 207.9L13.2583 210.741C13.4811 211.131 16.2106 211.354 16.2106 211.242Z" fill="#000005"/>
<path d="M23.1177 204.224L21.6137 20.6229C21.558 13.1585 27.5183 7.03109 35.0384 6.91968C35.2055 6.91968 35.3726 6.91968 35.5397 6.91968L105.783 8.75792C113.136 8.92503 118.985 14.9968 118.985 22.3497L118.316 199.879C118.316 207.009 112.746 212.914 105.616 213.359L37.5451 217.593C30.0807 218.039 23.619 212.357 23.1734 204.892C23.1177 204.725 23.1177 204.447 23.1177 204.224Z" fill="white"/>
<path d="M24.3436 204.558L24.2322 194.253L24.0094 167.905L23.7308 131.753L23.3966 92.6485L23.1181 56.8864L22.8953 30.7054L22.8396 23.3525C22.8396 22.1827 22.7839 20.9572 22.8396 19.7317C23.2295 15.3311 25.8476 11.4875 29.8026 9.53783C31.8637 8.59086 34.0918 8.14523 36.32 8.25664L45.8454 8.53516L82.4431 9.48213C90.2973 9.70494 98.1516 9.81635 106.006 10.0949C112.579 10.262 117.759 15.6653 117.759 22.1827C117.759 23.4639 117.759 24.7451 117.759 26.0263L117.704 47.1939L117.592 80.8392L117.481 119.665L117.314 157.043L117.202 185.897C117.202 190.354 117.202 194.81 117.147 199.322C117.091 205.839 112.189 211.521 105.616 212.078C103.332 212.301 101.048 212.357 98.8201 212.524L63.615 214.696C54.9252 215.253 46.2353 215.81 37.5455 216.312C30.471 216.757 24.455 211.688 24.3436 204.558C24.3436 203.221 21.8926 202.219 21.9483 203.945C22.1154 212.468 29.4127 219.376 37.9354 218.93C40.6092 218.763 43.2273 218.596 45.9011 218.429L82.4988 216.145C90.2973 215.643 98.1516 215.253 106.006 214.696C113.637 214.139 119.598 207.789 119.598 200.158C119.598 198.932 119.598 197.707 119.598 196.425L119.653 174.979L119.765 140.888L119.932 101.394L120.043 63.9051L120.155 35.2175C120.155 31.0954 120.21 26.9175 120.21 22.7954C120.155 14.8297 114.027 8.25664 106.117 7.58819C103.833 7.42107 101.494 7.47678 99.1543 7.42107L63.8379 6.4741L35.9858 5.74995C33.9247 5.63854 31.9194 5.91706 29.9697 6.58551C25.8476 8.14523 22.6725 11.4318 21.2242 15.5539C20.5 17.7263 20.5 19.9545 20.5 22.2384L20.6671 40.3422L20.9456 71.9265L21.2799 110.697L21.6141 149.69L21.8926 182.165L22.0597 201.327V203.945C21.9483 205.282 24.3436 206.285 24.3436 204.558Z" fill="#000005"/>
<path d="M62.5564 18.0605C68.3496 17.8934 74.0871 17.6706 79.8804 17.3364C81.1616 17.2807 81.1616 15.7209 80.6602 14.8854C79.9918 13.7713 78.7106 12.8243 77.3737 12.88C71.6362 13.2142 65.8429 13.4371 60.0497 13.6042C58.7128 13.6599 58.8242 15.2196 59.2698 16.0552C59.8826 17.2807 61.1638 18.0048 62.5564 18.0605Z" fill="#000005"/>
<path d="M5.85059 42.849C5.46066 45.5228 5.46066 48.2523 5.79489 50.9261C5.85059 51.5389 6.51904 51.9845 7.07608 52.1516C7.2989 52.263 8.41299 52.5415 8.30158 51.9288C7.96735 49.255 8.02306 46.5255 8.35728 43.8517C8.41299 43.6289 8.13447 43.2947 8.02306 43.1832C7.74454 42.9047 7.46602 42.7376 7.13179 42.5705C6.74186 42.5148 5.962 42.292 5.85059 42.849Z" fill="#EC4E26"/>
<path d="M5.17847 58.7803L5.01135 60.1172C4.95565 60.2286 5.01135 60.34 5.06706 60.4514C5.06706 60.5628 5.17847 60.6742 5.28988 60.7299C5.40128 60.7857 5.51269 60.8414 5.6798 60.8414C5.84692 60.8414 5.95833 60.8413 6.12544 60.7856C6.45966 60.6742 6.79389 60.5071 7.07241 60.2286C7.29522 60.0058 7.46234 59.7273 7.57375 59.4487L7.74086 58.1118C7.79657 58.0004 7.74086 57.889 7.68516 57.7776C7.68516 57.6662 7.57375 57.5548 7.46234 57.4991C7.35093 57.4434 7.23952 57.3877 7.07241 57.3877C6.9053 57.3877 6.79389 57.3877 6.62678 57.4434C6.29255 57.5548 5.95832 57.7219 5.6798 57.9447C5.45699 58.1676 5.28988 58.4461 5.17847 58.7803Z" fill="#EC4E26"/>
<path d="M111.799 37.6128H30.582V69.03H111.799V37.6128Z" fill="white"/>
<path d="M112.3 68.1942H34.3699C33.3115 68.1385 32.2531 68.1385 31.1947 68.1942H31.0833L31.9189 68.8627V37.4455L30.0806 38.4482H108.011C109.069 38.5039 110.128 38.5039 111.186 38.4482C111.242 38.4482 111.297 38.4482 111.297 38.4482L110.462 37.7797V69.1969C110.462 70.4224 113.191 69.8653 113.191 68.9184V37.5012C113.191 37.0556 112.801 36.8328 112.356 36.8328H41.1101C37.8235 36.8328 34.537 36.8328 31.2504 36.8328H31.139C30.6377 36.8328 29.3008 37.0556 29.3008 37.8354V69.2526C29.3008 69.6982 29.6907 69.9211 30.1363 69.9211H101.326C104.613 69.9211 107.899 69.9211 111.186 69.9211H111.297C111.91 69.9211 112.746 69.7539 113.08 69.1412C113.414 68.5284 112.801 68.1942 112.3 68.1942Z" fill="#000005"/>
<path d="M88.2913 51.6499C88.2913 51.6499 86.1189 45.5225 91.2437 43.1829C96.3684 40.8433 103.164 44.854 103.554 51.6499C103.944 58.4458 95.7 59.3371 95.7 59.3371L88.2913 51.6499Z" fill="#000005"/>
<path d="M88.5142 57.2205C86.5646 54.8809 88.2914 46.4139 88.2914 46.4139C89.6283 44.2414 96.8142 45.5783 96.8142 45.5783C95.8115 47.7508 96.1457 51.3159 96.1457 51.3159C96.9813 49.3662 99.2652 50.2018 99.1537 52.0957C99.0423 53.9897 96.8142 54.5467 96.8142 54.5467C96.8142 54.5467 97.4269 58.5574 97.2598 59.3373C97.0927 60.1171 93.5276 61.1755 91.6894 59.0588C91.6894 59.0588 90.1854 59.2816 88.5142 57.2205Z" fill="#000005"/>
<path d="M90.6878 55.2152C90.6878 55.2152 86.1757 55.6609 85.4516 53.3213C84.7274 50.9817 88.014 49.979 90.4649 52.0401" fill="#000005"/>
<path d="M83.166 66.746C83.166 66.746 89.4606 57.4434 94.3626 57.4434C99.2645 57.4434 103.832 66.9688 103.832 66.9688L83.166 66.746Z" fill="#000005"/>
<path d="M34.8164 41.512C34.5935 41.6234 34.4264 41.7348 34.2593 41.9019C34.0922 42.069 33.9251 42.2362 33.8137 42.459C33.758 42.5704 33.6466 42.7375 33.5909 42.9046C33.5352 43.0717 33.5352 43.1831 33.5352 43.3502C33.5352 43.5731 33.6466 43.7402 33.758 43.9073C33.8137 44.0187 33.9251 44.1301 34.0365 44.1858C34.3707 44.4643 34.7049 44.6314 35.0949 44.7428C35.3177 44.7986 35.5405 44.7986 35.7633 44.7986C36.0418 44.7986 36.3204 44.7428 36.5432 44.5757C36.6546 44.52 36.766 44.4086 36.8774 44.3529C36.9888 44.2415 37.0445 44.1301 37.1559 44.0187C37.2116 43.963 37.2116 43.9073 37.2116 43.8516C37.2116 43.7402 37.2673 43.6288 37.2673 43.5174C37.2673 43.4059 37.2116 43.2945 37.2116 43.1831C37.1559 43.016 37.1002 42.9046 36.9888 42.7375C36.8774 42.5704 36.766 42.459 36.6546 42.3476C36.0976 41.9019 35.4291 41.6791 34.7049 41.7348C34.5935 41.7348 34.4264 41.7905 34.315 41.9019C34.2036 41.9576 34.1479 42.069 34.0922 42.1805C34.0365 42.2919 34.0365 42.4033 34.0922 42.5147C34.0922 42.6261 34.1479 42.7932 34.2593 42.9046C34.4821 43.1831 34.7606 43.4059 35.0949 43.5174C35.4291 43.6288 35.7633 43.6845 36.0976 43.6845H36.1533H35.819H35.8747L35.5405 43.6288H35.5962L35.262 43.5174L35.3177 43.5731L34.9835 43.4059L35.0392 43.4616L34.7606 43.2388L34.8164 43.2945L34.5935 43.0717C34.6492 43.1274 34.6492 43.1274 34.6492 43.1831L34.5378 42.9603C34.5935 43.016 34.5935 43.0717 34.5935 43.1274L34.5378 42.9046C34.5378 42.9603 34.5378 43.016 34.5378 43.0717L34.5935 42.8489C34.5935 42.9603 34.5378 43.016 34.4821 43.0717L34.5935 42.9046C34.5378 42.9603 34.4821 43.0717 34.3707 43.1274L34.5935 43.016C34.5378 43.0717 34.4264 43.0717 34.3707 43.1274L34.6492 43.0717L34.4821 43.1274H34.8164L35.1506 43.1831H35.0392L35.3734 43.2945L35.7076 43.4616H35.6519L35.9304 43.6845L36.1533 43.9073C36.1533 43.9073 36.1533 43.8516 36.0976 43.8516L36.209 44.0744V44.0187L36.2647 44.2415C36.2647 44.1858 36.2647 44.1858 36.2647 44.1301L36.209 44.3529C36.2647 44.1301 36.3761 43.963 36.4875 43.7959L36.3761 43.963C36.4875 43.7959 36.6546 43.6288 36.8774 43.4616L36.6546 43.5731L36.766 43.5174C36.8774 43.4616 36.9888 43.4059 37.0445 43.2945C37.1559 43.1831 37.1559 43.0717 37.1559 42.9603C37.1559 42.8489 37.1002 42.6818 37.0445 42.5704C36.9888 42.459 36.8774 42.2919 36.766 42.2362C36.4875 42.0133 36.1533 41.8462 35.819 41.7348L35.3734 41.4563C35.1506 41.4563 34.9835 41.4563 34.8164 41.512Z" fill="#000005"/>
<path d="M42.1131 54.8252C43.8399 54.3238 45.2883 53.0983 46.0124 51.4829C46.1238 51.2044 46.0124 50.8702 45.7896 50.6474C45.2883 49.9789 44.2299 49.0876 43.3386 49.4219C42.503 49.7004 42.5587 50.7031 42.7259 51.3715C43.0044 53.0426 44.0071 54.6581 45.6782 55.2151C47.2379 55.7721 48.8533 54.6024 50.0231 53.7111C51.3043 52.7641 52.3627 51.5943 53.1982 50.2017C53.8667 49.0319 54.9808 47.1937 54.2009 45.8568C53.6996 44.9655 52.8083 44.4085 51.8056 44.3528C50.9144 44.4085 50.5244 45.1883 50.3573 45.9682C49.9117 47.8064 49.7446 49.7004 50.0231 51.5386C50.3573 53.3769 51.5271 55.3265 53.5882 55.4936C55.4264 55.605 57.2647 54.9366 58.6016 53.6554C59.27 53.0426 59.9385 52.2628 59.7156 51.3158C59.3257 50.2017 58.323 49.3662 57.1532 49.199C56.9861 49.1433 56.819 49.2547 56.7633 49.4776C55.872 52.7084 60.9968 56.2178 63.2807 53.2655C63.782 52.597 61.6096 50.8702 61.1082 51.4829C60.8297 51.8171 60.4955 52.0957 60.1056 52.2628C59.9385 52.3185 59.7156 52.3742 59.5485 52.3742C59.3814 52.3742 59.1586 52.3185 58.9915 52.3185L58.8801 52.2628C59.1586 52.4856 59.2143 52.5413 59.1586 52.4299L58.9915 52.0957C58.8801 51.7057 58.8801 51.2601 58.9915 50.8702L58.6016 51.1487L57.4318 50.3131V50.536C57.3204 50.7031 57.2647 50.8702 57.1532 51.0373C56.9861 51.2601 56.819 51.4829 56.5962 51.7057C56.1506 52.1514 55.6492 52.5413 55.0922 52.8198C54.5351 53.0983 53.9781 53.3212 53.3654 53.4326C53.0311 53.4883 52.6969 53.544 52.4184 53.544C52.307 53.544 52.1399 53.544 52.0285 53.544C51.4714 53.5997 52.8083 54.5467 52.6412 54.0453C52.4184 53.4326 52.2513 52.7641 52.1399 52.0957C52.0842 51.4272 52.1399 50.7031 52.1956 50.0346C52.2513 49.3105 52.4184 48.642 52.5298 47.9179C52.5855 47.6393 52.6412 47.3051 52.7526 47.0266C52.8083 46.8595 52.9197 46.6924 53.0868 46.5252C53.1425 46.4695 53.4211 46.3581 53.3097 46.3024L52.4184 45.6897L52.1956 45.3555C52.1956 45.4112 52.1956 45.5226 52.1956 45.5783C52.1399 45.6897 52.1956 45.8011 52.1399 45.9125C52.0842 46.191 51.9728 46.5252 51.8614 46.8038C51.6385 47.4165 51.3043 47.9736 50.9701 48.5306C50.3016 49.6447 49.4661 50.5917 48.4634 51.4272C47.5164 52.3185 46.4023 52.9869 45.1768 53.3212C44.8426 53.3769 44.6198 53.2655 45.0654 53.544C45.5111 53.8225 45.2883 53.7668 45.2325 53.544C45.1768 53.3212 45.0654 53.0426 45.0097 52.8198C44.8983 52.5413 44.8426 52.2071 44.8426 51.8728C44.8426 51.7057 44.8426 51.5386 44.954 51.4272C45.1768 51.093 45.3997 51.4272 44.7869 50.9816L44.0071 50.2574L44.1185 50.3688L43.8957 49.5333C43.2272 51.093 41.8903 52.2628 40.2749 52.7084C39.495 53.0983 41.2776 55.1037 42.1131 54.8252Z" fill="#000005"/>
<path d="M41.7231 64.9079C43.0043 64.7965 44.3969 65.2422 45.5667 64.518C46.6808 63.961 47.1821 62.6241 46.7365 61.4543C46.5137 60.7858 45.8452 60.3402 45.121 60.3402C44.2855 60.4516 43.617 61.1758 43.5613 62.0113C43.5056 63.0697 44.0627 64.1281 45.0096 64.6294C45.9566 65.1865 47.0707 65.1865 48.1291 65.2422C49.2989 65.2979 50.4687 65.1865 51.5827 64.8522C52.5297 64.5737 53.3653 63.961 54.0337 63.1811C54.7579 62.3455 54.6465 61.0644 53.8109 60.3402C53.7552 60.2845 53.7552 60.2845 53.6995 60.2288C52.5854 59.4489 51.4713 60.2845 51.527 61.51C51.5827 62.6798 52.3069 63.6824 53.421 64.1281C54.6465 64.5737 55.9277 64.7408 57.2646 64.6294C58.6015 64.5737 59.8827 64.2952 61.1081 63.7939C62.5008 63.2368 60.941 60.9529 59.6598 61.4543C58.4901 61.8999 57.2646 62.1784 55.9834 62.1784C55.4263 62.1784 54.8136 62.1227 54.2565 62.0113C54.1451 62.0113 54.0337 61.9556 53.9223 61.9556C53.6995 61.8442 53.6995 61.8442 53.8109 61.9556C53.8109 62.067 53.978 62.1784 53.9223 62.1784L53.421 62.4013H53.5324L52.9196 62.2898L53.031 62.3455L52.1955 61.6214C51.5827 60.7858 52.3069 61.1758 52.0284 61.2872C51.917 61.3429 51.7499 61.5657 51.6941 61.6771C51.4156 61.8999 51.1371 62.1227 50.8029 62.2341C50.023 62.5684 49.1875 62.7355 48.3519 62.6798C47.962 62.6798 47.5163 62.6798 47.1264 62.6798C46.9036 62.6798 46.7365 62.6798 46.5137 62.6241C46.2908 62.5684 46.0123 62.5127 45.9566 62.5127C45.9009 62.5127 45.7338 62.4013 46.0123 62.7355C45.9009 62.6241 46.1237 62.6798 46.0123 62.6798L44.4526 61.5657C44.6197 61.8999 44.5083 61.5657 44.5083 61.6214C44.4526 61.7328 44.3969 61.7885 44.2855 61.8999C44.0627 62.1227 43.7842 62.2341 43.5056 62.2898C42.6144 62.4013 41.7231 62.1784 40.8318 62.2898C39.2164 62.457 40.3862 64.9079 41.7231 64.7408V64.9079Z" fill="#000005"/>
<path d="M72.8066 42.2916V66.0216C72.8066 66.6344 73.4751 67.1357 73.9764 67.3585C74.1992 67.4699 75.2019 67.9156 75.2019 67.3585V43.5728C75.2019 43.0158 74.5335 42.4587 74.0878 42.2359C73.8093 42.1245 72.8066 41.7346 72.8066 42.2916Z" fill="#000005"/>
<path d="M111.408 80.7275H30.1914V112.145H111.408V80.7275Z" fill="white"/>
<path d="M112.356 111.365H32.3648C31.9748 111.309 31.6406 111.309 31.2507 111.365C31.195 111.365 31.1393 111.365 31.1393 111.365L31.4735 111.643V80.2263L29.2453 81.5075H109.292C109.682 81.5632 110.016 81.5632 110.406 81.5075H110.518L110.239 81.2289V112.646C110.239 113.37 112.746 112.423 112.746 111.643V80.2263C112.746 80.0592 112.634 79.9478 112.467 79.9478C112.467 79.9478 112.467 79.9478 112.412 79.9478H41.166C37.8795 79.9478 34.5929 79.9478 31.3064 79.9478H31.195C30.6936 79.9478 30.248 80.1149 29.8581 80.3934C29.6352 80.5605 28.9668 80.8947 28.9668 81.2289V112.646C28.9668 112.813 29.0782 112.925 29.2453 112.925H29.301H100.547C103.833 112.925 107.12 112.925 110.406 112.925H110.518C111.186 112.869 111.799 112.646 112.3 112.2C112.467 112.033 113.024 111.365 112.356 111.365Z" fill="#000005"/>
<path d="M87.9007 94.7652C87.9007 94.7652 85.7282 88.6377 90.853 86.2981C95.9778 83.9586 102.774 87.9136 103.164 94.7652C103.554 101.617 95.3094 102.452 95.3094 102.452L87.9007 94.7652Z" fill="#000005"/>
<path d="M88.1256 100.335C86.1759 97.9959 87.9028 89.5289 87.9028 89.5289C89.2397 87.3564 96.4255 88.6933 96.4255 88.6933C95.4228 90.8658 95.757 94.4309 95.757 94.4309C96.5926 92.4812 98.8765 93.3168 98.7651 95.2107C98.6537 97.1047 96.4255 97.6617 96.4255 97.6617C96.4255 97.6617 97.0382 101.672 96.8711 102.452C96.704 103.232 93.1389 104.29 91.3007 102.174C91.3007 102.174 89.7967 102.397 88.1256 100.335Z" fill="#000005"/>
<path d="M90.2971 98.3302C90.2971 98.3302 85.7851 98.7759 85.0609 96.4363C84.3368 94.0967 87.6233 93.094 90.0743 95.1551" fill="#000005"/>
<path d="M82.7773 109.861C82.7773 109.861 89.0719 100.558 93.9739 100.558C98.8758 100.558 103.444 110.084 103.444 110.084L82.7773 109.861Z" fill="#000005"/>
<path d="M34.6476 84.4041C34.4248 84.5155 34.202 84.6827 34.0349 84.8498C33.9235 84.9612 33.812 85.0726 33.7006 85.2397C33.6449 85.2954 33.5892 85.3511 33.5335 85.4625C33.4221 85.6853 33.3107 85.9081 33.1993 86.131C33.1993 86.1867 33.1993 86.1867 33.1436 86.2424C33.1436 86.3538 33.1436 86.4652 33.0879 86.5766V86.688L33.1436 87.0222C33.1993 87.1336 33.255 87.245 33.3107 87.3565C33.3664 87.4679 33.4778 87.5793 33.5892 87.6907C33.8121 87.9135 34.0349 88.0249 34.3691 88.1363C34.6476 88.192 34.9261 88.2477 35.2047 88.2477C35.3718 88.2477 35.5389 88.192 35.706 88.1363C35.7617 88.1363 35.8731 88.0806 35.9288 88.0249C36.0959 87.9692 36.2073 87.8578 36.3187 87.7464C36.4301 87.635 36.4858 87.5793 36.5973 87.4679L36.653 87.3565C36.8201 87.0779 36.8758 86.7437 36.8758 86.4095C36.8201 86.131 36.7644 85.8524 36.5973 85.6296C36.4858 85.4625 36.3744 85.3511 36.263 85.184C36.1516 85.0726 36.0402 84.9612 35.8731 84.9055L35.6503 84.7941C35.5946 84.7384 35.4832 84.7384 35.4275 84.6827C35.149 84.5713 34.8704 84.5712 34.5919 84.5712C34.4248 84.5712 34.2577 84.627 34.1463 84.7384C33.8678 84.9055 33.7006 85.184 33.7006 85.4625C33.6449 85.6296 33.7006 85.7967 33.7563 85.9082C33.8678 86.2424 34.0906 86.5209 34.4248 86.688C34.7033 86.8551 35.0932 86.9665 35.4275 86.9108H35.149H35.2604L34.9261 86.8551C34.9818 86.8551 34.9818 86.8551 35.0375 86.9108L34.7033 86.7437C34.759 86.7437 34.759 86.7994 34.8147 86.7994L34.5362 86.5766L34.5919 86.6323L34.3691 86.3538C34.4248 86.4095 34.4248 86.4095 34.4248 86.4652L34.2577 86.1867C34.2577 86.2424 34.3134 86.2981 34.3134 86.2981L34.2577 85.9639C34.2577 86.0196 34.2577 86.0753 34.2577 86.0753V85.741C34.2577 85.7967 34.2577 85.8524 34.202 85.9082L34.3134 85.6296C34.3134 85.6853 34.2577 85.741 34.202 85.7967L34.4248 85.5739C34.3691 85.6296 34.3134 85.6853 34.2577 85.741L34.5362 85.5739C34.4805 85.6296 34.4248 85.6296 34.3134 85.6853L34.6476 85.6296C34.5919 85.6296 34.5362 85.6296 34.4805 85.6853H34.8147C34.759 85.6853 34.759 85.6853 34.7033 85.6853L35.0375 85.741H34.9261L35.2604 85.9082L35.2047 85.8524L35.4832 86.0753L35.4275 86.0196L35.6503 86.2981V86.2424L35.8174 86.5209C35.8174 86.5209 35.8174 86.5209 35.8174 86.4652L35.8731 86.7994C35.8731 86.7437 35.8731 86.7437 35.8731 86.688V87.0222C35.8731 86.9108 35.9288 86.8551 35.9288 86.7994L35.8174 87.0779C35.8731 86.9108 35.9845 86.7437 36.1516 86.5766L35.9288 86.7994C36.0402 86.6323 36.2073 86.5209 36.3744 86.4652L36.0959 86.6323L36.1516 86.5766C36.3187 86.5209 36.4301 86.4095 36.4858 86.2981C36.5973 86.1867 36.653 86.0753 36.7087 85.9082C36.7644 85.741 36.7644 85.5739 36.7087 85.4625C36.7087 85.2954 36.653 85.1283 36.5416 85.0169C36.3187 84.6827 36.0402 84.4598 35.706 84.3484L35.3718 84.2927C35.0932 84.3484 34.8704 84.3484 34.6476 84.4041Z" fill="#000005"/>
<path d="M39.9958 97.5503C42.3354 96.8819 44.7864 95.545 45.7891 93.2054V93.1497C45.3434 92.537 44.2851 93.094 43.7837 93.3725C43.0039 93.7068 42.1126 94.0967 42.0569 95.0437C42.0012 96.2134 42.6139 98.1631 44.0623 98.2188C44.9535 98.2188 45.8448 97.7732 46.6246 97.3832C47.4602 96.9933 48.2958 96.5477 49.0756 95.9906C50.3568 95.1551 51.4709 94.041 52.3622 92.8155C52.8078 92.2027 53.142 91.59 53.4763 90.9216C53.8662 90.2531 54.089 89.5289 54.1447 88.8048C54.1447 86.8551 50.7468 88.7491 50.1897 89.4175C49.6884 90.0303 49.6884 90.9773 49.577 91.7014C49.4099 92.6484 49.2984 93.6511 49.2984 94.6537C49.3541 96.102 49.577 98.3302 51.4709 98.3302C53.4763 98.3302 55.5373 97.4389 57.1527 96.3249C57.9326 95.8792 58.601 95.2108 59.1581 94.4866C59.548 93.8739 59.6037 92.8712 58.6567 92.7598C58.1554 92.8155 57.6541 92.9826 57.2084 93.2611C56.9299 93.3725 56.3172 93.5954 56.2058 93.9296C55.8158 95.2665 56.5957 96.6591 57.9326 97.049C58.044 97.1047 58.1554 97.1047 58.3225 97.1047C59.1581 97.1604 59.9937 96.9376 60.7735 96.5477C61.6648 96.2134 62.4446 95.7121 63.0574 94.988C63.2245 94.7651 62.1104 95.1551 62.0547 95.1551C61.4977 95.3222 60.9963 95.6007 60.5507 95.9906C60.495 96.102 60.3836 96.2134 60.2722 96.2692C61.3863 95.8792 61.6648 95.7121 61.1077 95.8235C60.9406 95.8235 60.7178 95.8235 60.5507 95.8235C60.0494 95.7678 59.6037 95.4893 59.2695 95.1551C58.6567 94.4866 58.4339 93.5396 58.7124 92.7041L56.2615 93.9296C56.9856 94.041 56.9856 94.8766 56.7071 95.3779C56.3172 95.9349 55.8715 96.3806 55.3145 96.7705C55.3145 96.7705 55.0917 96.9376 55.3145 96.8262C55.5373 96.7148 55.0917 96.8819 55.0917 96.8819C54.8132 96.9376 54.4789 96.9933 54.2004 96.9933C53.532 97.049 52.9192 96.9376 52.5293 96.3249C51.8608 95.2108 51.8051 93.6511 51.8608 92.3699C51.9165 91.6457 52.028 90.8658 52.1394 90.1417C52.1951 89.8075 52.2508 89.5289 52.3065 89.1947C52.3622 88.9719 52.4179 88.7491 52.5293 88.5263C52.7521 88.0806 53.0306 88.192 52.0279 88.6377L50.9139 89.0833C52.5293 88.6934 51.1367 91.7571 50.8582 92.2028C50.2454 93.4282 49.4099 94.5423 48.4072 95.4893C47.9058 95.9349 47.4045 96.3249 46.8475 96.6591C46.4575 96.9376 45.9005 96.8819 45.622 96.5477C45.232 96.1577 44.9535 95.6564 44.7864 95.0994C44.6193 94.598 44.2851 93.4839 44.7864 93.094L43.728 93.7068L43.8951 93.6511L42.7811 94.0967C43.6723 93.8739 42.6696 95.3222 42.4468 95.545C42.224 95.8235 42.0012 96.0463 41.7784 96.2692C41.667 96.3249 41.5556 96.4363 41.4442 96.492C41.1656 96.7705 42.1683 96.2692 41.5556 96.4363C40.9428 96.6034 40.3301 96.8819 39.773 97.2718C39.4945 97.5503 39.4945 97.7175 39.9958 97.5503Z" fill="#000005"/>
<path d="M42.0003 107.354C43.1701 107.243 44.3956 107.633 45.5097 107.131C46.2895 106.742 46.958 105.906 46.5681 105.015C46.2338 104.291 44.8412 104.068 44.1728 104.123C43.56 104.179 43.0587 104.736 43.1701 105.405C43.1701 105.46 43.1701 105.516 43.1701 105.516C43.2815 106.519 44.3956 107.02 45.2312 107.299C46.2895 107.633 47.4036 107.744 48.5177 107.744C49.6318 107.8 50.8016 107.688 51.9157 107.354C52.8069 107.076 53.5868 106.519 54.1438 105.739C54.8123 104.792 53.8096 104.179 52.974 103.901C52.5284 103.733 51.7485 103.566 51.3586 103.956C51.1358 104.235 51.0244 104.625 51.1358 104.959C51.3586 106.017 52.6398 106.519 53.5311 106.797C56.0935 107.521 58.823 107.354 61.3297 106.352C61.7753 106.184 60.6612 105.572 60.5498 105.516C60.0485 105.237 59.38 105.182 58.823 105.293C57.6532 105.739 56.4277 105.962 55.1465 106.017C55.0351 106.017 53.6425 105.906 53.6425 105.906C53.9767 106.073 54.0881 106.073 53.8653 105.906C53.8096 105.795 53.7539 105.683 53.7539 105.572C53.6982 105.349 53.8096 105.07 53.921 104.903L53.5311 104.959H53.6425L52.0271 104.513C51.5257 104.235 51.7485 104.291 51.6371 104.625C51.5257 104.792 51.4143 105.015 51.3029 105.126C51.0244 105.405 50.6902 105.683 50.3559 105.906C49.5761 106.352 48.6848 106.574 47.7378 106.574C47.2922 106.574 46.7909 106.574 46.3452 106.574H45.7882C45.1755 106.574 46.1224 106.574 46.011 106.686C45.8996 106.797 45.8439 105.906 45.8996 105.85C45.9553 105.572 46.1224 105.349 46.4009 105.349L44.0057 104.458C44.3399 105.237 43.6714 106.017 42.9473 106.184C42.056 106.463 40.9419 106.129 39.9393 106.24C39.3265 106.296 40.0507 106.853 40.2178 106.964C40.7191 107.299 41.3319 107.41 42.0003 107.354Z" fill="#000005"/>
<path d="M72.1934 85.9639V109.694C72.1934 110.808 74.9786 110.975 74.9786 109.917V86.1868C74.9786 85.0727 72.1934 84.9056 72.1934 85.9639Z" fill="#000005"/>
<path d="M111.463 123.063H30.2461V154.48H111.463V123.063Z" fill="white"/>
<path d="M111.799 154.146H33.8688C32.8105 154.146 31.7521 154.09 30.6937 154.146H30.5823L31.6407 154.424V123.007L29.9138 123.453H107.788C108.847 123.453 109.905 123.508 110.963 123.453H111.075L110.016 123.174V154.536C110.016 155.037 112.802 154.981 112.802 154.424V123.007C112.802 122.729 111.91 122.729 111.743 122.729H30.5823C30.4152 122.729 28.8555 122.729 28.8555 123.118V154.536C28.8555 154.814 29.7467 154.814 29.9138 154.814H111.131C111.52 154.814 112.579 154.87 112.857 154.48C113.136 154.09 111.966 154.146 111.799 154.146Z" fill="#000005"/>
<path d="M87.9554 137.156C87.9554 137.156 85.7829 131.029 90.9077 128.689C96.0325 126.349 102.828 130.36 103.218 137.156C103.608 143.952 95.364 144.843 95.364 144.843L87.9554 137.156Z" fill="#000005"/>
<path d="M88.1256 142.671C86.1759 140.331 87.9028 131.864 87.9028 131.864C89.2397 129.692 96.4255 131.029 96.4255 131.029C95.4228 133.201 95.757 136.766 95.757 136.766C96.5926 134.816 98.8765 135.652 98.7651 137.546C98.6537 139.44 96.4255 139.997 96.4255 139.997C96.4255 139.997 97.0382 144.008 96.8711 144.787C96.704 145.567 93.1389 146.626 91.245 144.509C91.3564 144.509 89.8524 144.732 88.1256 142.671Z" fill="#000005"/>
<path d="M90.2971 140.665C90.2971 140.665 85.7851 141.111 85.0609 138.772C84.3368 136.432 87.6233 135.429 90.0743 137.49" fill="#000005"/>
<path d="M82.7773 152.196C82.7773 152.196 89.0719 142.894 93.9739 142.894C98.8758 142.894 103.444 152.419 103.444 152.419L82.7773 152.196Z" fill="#000005"/>
<path d="M34.4248 127.129C34.202 127.241 34.0349 127.408 33.8678 127.575C33.7006 127.742 33.5335 127.909 33.4221 128.132C33.3664 128.243 33.255 128.41 33.1993 128.522C33.1436 128.633 33.1436 128.745 33.0879 128.856C33.0879 128.912 33.0879 129.023 33.0879 129.135C33.0879 129.19 33.0879 129.302 33.1436 129.357C33.255 129.58 33.3664 129.747 33.5335 129.859H33.5892C33.7006 129.914 33.7563 129.97 33.8678 130.026H33.9235C34.0349 130.082 34.1463 130.137 34.2577 130.137C34.5362 130.193 34.8704 130.249 35.149 130.193C35.4832 130.137 35.8174 130.026 36.1516 129.859C36.4301 129.692 36.653 129.469 36.7644 129.19C36.8201 129.079 36.8758 128.912 36.8758 128.745C36.8758 128.578 36.8758 128.41 36.8201 128.299C36.7644 128.132 36.7087 127.965 36.5973 127.853C36.4858 127.742 36.3744 127.575 36.263 127.519L36.2073 127.463C36.0959 127.408 35.9845 127.352 35.8731 127.296C35.7617 127.241 35.5946 127.185 35.4832 127.129C35.2047 127.074 34.8704 127.018 34.5362 127.074C34.3691 127.074 34.202 127.129 34.0349 127.241C33.8678 127.296 33.7563 127.408 33.6449 127.519C33.5335 127.631 33.4778 127.742 33.4778 127.853C33.4221 127.965 33.4221 128.132 33.4778 128.243C33.5892 128.522 33.812 128.745 34.0906 128.856C34.4248 129.023 34.8147 129.023 35.149 129.023H35.2047H34.8147H34.8704L34.4805 128.968H34.5919L34.2577 128.856L34.3134 128.912L34.0349 128.745C34.0906 128.745 34.0906 128.8 34.1463 128.8L33.9235 128.578C33.9792 128.633 33.9792 128.633 34.0349 128.689L33.9235 128.466C33.9792 128.522 33.9792 128.578 33.9792 128.633L33.9235 128.355C33.9235 128.41 33.9235 128.466 33.9235 128.522L33.9792 128.243C33.9792 128.299 33.9235 128.355 33.9235 128.41L34.0906 128.188C34.0349 128.243 34.0349 128.299 33.9792 128.355L34.202 128.188C34.1463 128.243 34.0906 128.243 34.0349 128.299L34.3134 128.132L34.1463 128.188L34.4805 128.076H34.3134H34.7033H34.8147L35.2047 128.132H35.0932L35.4275 128.243H35.3718L35.6503 128.41L35.5946 128.355L35.8174 128.578L35.7617 128.522L35.8731 128.745V128.689L35.9288 128.968C35.9288 128.912 35.9288 128.856 35.9288 128.856L35.8731 129.135C35.9288 128.968 35.9845 128.8 36.0959 128.633L35.9288 128.856C36.0402 128.689 36.1516 128.578 36.263 128.466L36.0402 128.633C36.1516 128.578 36.2073 128.466 36.3187 128.41C36.4301 128.355 36.5416 128.243 36.5973 128.076C36.7087 127.965 36.7087 127.853 36.7087 127.686C36.7087 127.575 36.7087 127.408 36.5973 127.296C36.5416 127.185 36.4301 127.018 36.3187 126.962C36.0402 126.739 35.706 126.628 35.3718 126.628H34.9818C34.8704 126.851 34.6476 126.962 34.4248 127.129Z" fill="#000005"/>
<path d="M41.2791 139.718C43.2844 139.217 45.0112 137.769 45.9025 135.875C45.9582 135.763 45.9025 135.652 45.8468 135.596C45.3455 134.928 44.12 135.206 43.4515 135.429C42.5603 135.708 42.0032 136.265 42.0032 137.212C42.0589 138.549 42.6717 140.164 44.1757 140.387C46.0139 140.665 47.9636 139.607 49.4119 138.549C50.7488 137.602 51.8629 136.488 52.7541 135.151C53.1998 134.538 53.534 133.869 53.8125 133.145C54.091 132.533 54.481 131.697 54.3138 131.029C54.091 130.249 53.1441 130.193 52.4199 130.249C51.4729 130.36 50.3588 130.75 49.9689 131.697C49.6904 132.533 49.5233 133.368 49.4676 134.259C49.3562 135.095 49.3005 135.986 49.3005 136.877C49.3005 137.769 49.5233 138.604 49.8575 139.44C50.2474 140.164 51.0273 140.61 51.8072 140.61C53.8682 140.721 55.9293 140.108 57.6561 138.883C58.4359 138.381 59.1044 137.657 59.4943 136.822C59.7729 136.209 59.4386 135.485 58.8259 135.206C58.6588 135.151 58.5474 135.095 58.3802 135.095C57.8789 135.039 56.3192 135.151 56.1521 135.819C55.7064 137.267 56.542 138.827 58.046 139.273C59.6614 139.774 62.001 139.217 63.0594 137.824C63.3936 137.379 62.7809 137.267 62.4467 137.212C61.9453 137.212 60.9983 137.323 60.6084 137.769C60.497 137.936 60.2185 138.103 60.1071 138.214C59.9957 138.326 60.3856 138.047 60.3299 138.159C60.2742 138.27 59.4943 137.769 59.4386 137.713C58.8259 137.1 58.5474 136.209 58.7702 135.373L56.542 136.098C56.7091 136.098 56.7648 136.488 56.7648 136.599C56.7648 136.822 56.7091 137.045 56.542 137.212C56.2635 137.657 55.8736 138.047 55.4279 138.381C54.8152 138.883 54.091 139.161 53.3112 139.273C52.3085 139.328 52.0857 137.88 51.9743 137.1C51.8072 135.93 51.8071 134.761 52.03 133.591C52.0857 133.09 52.1971 132.533 52.3085 132.031C52.3642 131.753 52.4756 131.53 52.5313 131.307C52.587 131.084 53.0883 131.029 52.03 131.251C50.8602 131.474 51.5286 131.196 51.4729 131.641C51.3615 132.533 51.083 133.424 50.6374 134.259C49.7461 135.93 48.4649 137.379 46.9052 138.437C46.5153 138.716 46.0696 138.883 45.624 139.161C45.5683 139.161 45.4569 139.217 45.4012 139.273L45.8468 139.217C45.7911 139.217 45.7354 139.161 45.6797 139.161C45.5683 138.994 45.4012 138.939 45.2898 138.771C45.0112 138.326 44.8441 137.88 44.7327 137.379C44.677 137.156 44.6213 136.933 44.6213 136.71C44.6213 136.543 44.6213 136.376 44.6213 136.265C44.7327 135.93 44.4542 135.875 43.8414 136.209C43.1173 136.042 42.8945 136.153 43.1173 136.432L43.0616 136.153C42.5603 137.434 41.5576 138.381 40.2764 138.883C39.9979 138.939 39.1623 139.273 39.4408 139.718C39.7193 140.164 41.0005 139.83 41.2791 139.718Z" fill="#000005"/>
<path d="M41.7228 150.246C42.8369 150.135 44.1181 150.581 45.1208 150.024C45.9007 149.689 46.2906 148.798 45.9564 148.018C45.9564 148.018 45.9564 148.018 45.9564 147.962C45.7335 147.517 45.455 147.071 45.1208 146.626C45.0094 146.458 44.6195 145.846 44.3966 145.846C43.6725 145.901 43.5054 146.737 43.6725 147.294C43.8396 147.74 44.0624 148.185 44.3409 148.575C44.6752 149.132 45.0651 149.578 45.5107 150.024C46.2349 150.581 47.2376 150.581 48.1288 150.581C49.2429 150.636 50.357 150.525 51.4154 150.246C52.2509 149.968 53.3093 149.411 53.6435 148.52C53.9778 147.628 52.9194 146.514 52.418 145.901C52.1952 145.679 51.9724 145.289 51.6939 145.623C51.4711 145.957 51.4711 146.347 51.6382 146.681C51.861 147.183 52.0838 147.684 52.418 148.074C52.7523 148.631 53.1422 149.077 53.6435 149.467C54.5348 150.079 55.9274 150.079 56.9301 150.024C58.2113 149.968 59.5482 149.745 60.7737 149.244C60.7737 149.244 59.6039 146.793 59.1583 146.96C57.7656 147.517 56.3173 147.74 54.869 147.74C54.2006 147.74 53.4764 147.684 52.808 147.461C52.6966 147.405 52.3623 147.238 52.2509 147.238L53.1422 148.575V148.408C53.1979 148.297 53.1979 147.573 53.5878 147.795L52.7523 146.737L52.808 146.848L52.1395 145.679C52.418 146.514 51.1926 147.35 50.5798 147.628C49.6328 148.074 48.6302 148.297 47.6275 148.241C46.6805 148.241 45.5107 148.352 44.6195 147.962C44.5081 147.907 44.3966 147.851 44.2852 147.795C45.0094 149.355 45.3436 149.801 45.2879 149.188C45.2879 149.021 45.2879 148.798 45.3436 148.631C45.455 148.297 45.7335 148.074 46.0121 148.074L44.4523 145.957C44.7866 146.737 43.8396 147.573 43.1712 147.74C42.1685 148.018 41.1101 147.74 40.1074 147.795C40.2745 148.241 40.4973 148.631 40.7759 149.021C40.9987 149.411 41.4443 150.302 41.7228 150.246Z" fill="#000005"/>
<path d="M72.4727 127.686V151.416C72.4727 151.862 73.4196 152.419 73.6981 152.586C73.8096 152.642 74.7008 153.255 74.7008 152.865V129.135C74.7008 128.689 73.7538 128.132 73.4753 127.965C73.3639 127.909 72.4727 127.296 72.4727 127.686Z" fill="#000005"/>
<path d="M111.463 197.651L30.2461 200.993V166.234H111.463V197.651Z" fill="white"/>
<path d="M111.464 196.648L103.387 196.983L84.0016 197.762L60.5501 198.709L40.2738 199.545L33.5893 199.823C32.5309 199.879 31.4725 199.823 30.4142 199.935H30.3028L31.7511 200.826V166.067L30.4142 167.125H108.344C109.403 167.125 110.461 167.181 111.464 167.125H111.575L110.127 166.234V197.651C110.127 198.932 112.912 198.821 112.912 197.54V166.122C112.912 165.454 112.021 165.231 111.464 165.231H40.2181C36.9316 165.231 33.645 165.12 30.3585 165.231H30.2471C29.69 165.231 28.9102 165.621 28.9102 166.29V201.049C28.9102 201.717 29.8014 201.996 30.3585 201.94L38.4356 201.606L57.8206 200.826L81.2721 199.879L101.548 199.044C104.835 198.932 108.122 198.821 111.408 198.654H111.519C112.077 198.654 112.912 198.264 112.856 197.595C112.801 196.927 111.965 196.648 111.464 196.648Z" fill="#000005"/>
<path d="M87.9554 180.271C87.9554 180.271 85.7829 174.144 90.9077 171.804C96.0325 169.464 102.828 173.475 103.218 180.271C103.608 187.067 95.364 187.958 95.364 187.958L87.9554 180.271Z" fill="#000005"/>
<path d="M88.1803 185.841C86.2306 183.502 87.9574 175.035 87.9574 175.035C89.2943 172.862 96.4802 174.199 96.4802 174.199C95.4775 176.372 95.8117 179.937 95.8117 179.937C96.6473 177.987 98.9312 178.823 98.8198 180.717C98.7083 182.611 96.4802 183.168 96.4802 183.168C96.4802 183.168 97.0929 187.178 96.9815 187.958C96.8701 188.738 93.2493 189.796 91.3554 187.68C91.3554 187.68 89.8514 187.902 88.1803 185.841Z" fill="#000005"/>
<path d="M90.3518 183.836C90.3518 183.836 85.8398 184.282 85.1156 181.942C84.3915 179.603 87.678 178.6 90.129 180.661" fill="#000005"/>
<path d="M82.832 196.481C82.832 196.481 89.1266 186.064 94.0286 186.064C98.9305 186.064 103.498 195.59 103.498 195.59L82.832 196.481Z" fill="#000005"/>
<path d="M34.4276 170.077C34.3162 170.133 34.1491 170.244 34.0377 170.356C33.8706 170.523 33.7034 170.69 33.592 170.857C33.4806 171.08 33.3692 171.247 33.3135 171.47C33.3135 171.525 33.3135 171.581 33.2578 171.581C33.2578 171.693 33.2578 171.748 33.2578 171.86V171.915C33.3135 172.305 33.5363 172.584 33.8149 172.862C34.2605 173.252 34.7618 173.475 35.3746 173.475C35.7088 173.475 35.9873 173.364 36.2658 173.252C36.3215 173.197 36.3772 173.197 36.4329 173.141C36.5444 173.029 36.6558 172.918 36.7115 172.807C36.8786 172.528 36.9343 172.25 36.8786 171.971C36.8229 171.693 36.7115 171.47 36.5444 171.247C36.433 171.08 36.3215 170.968 36.2101 170.857C35.9873 170.69 35.7645 170.523 35.5417 170.411C35.4303 170.356 35.2632 170.3 35.1518 170.244C34.8732 170.189 34.6504 170.189 34.3719 170.244C34.2605 170.244 34.1491 170.356 34.0377 170.411C33.9263 170.467 33.8706 170.578 33.8706 170.746C33.8706 170.857 33.8706 171.024 33.9263 171.135C33.982 171.303 34.0377 171.414 34.1491 171.525C34.3719 171.804 34.6504 172.027 34.9846 172.194L35.3189 172.305C35.5417 172.361 35.7088 172.361 35.9316 172.305L35.6531 172.361H35.7645L35.4303 172.305H35.486L35.1518 172.194L35.2075 172.25L34.8732 172.082L34.9289 172.138L34.6504 171.915L34.7061 171.971L34.4833 171.693C34.4833 171.693 34.539 171.748 34.539 171.804L34.3719 171.525C34.3719 171.581 34.4276 171.581 34.4276 171.637L34.3719 171.358C34.3719 171.414 34.3719 171.47 34.3719 171.525V171.247C34.3719 171.303 34.3719 171.358 34.3162 171.47L34.4276 171.247C34.3719 171.303 34.3719 171.414 34.2605 171.47L34.4276 171.303C34.3719 171.358 34.2605 171.414 34.1491 171.47L34.3719 171.358C34.3162 171.414 34.2048 171.414 34.1491 171.414L34.4276 171.358H34.3162L34.6504 171.414H34.539L34.8732 171.525H34.8175L35.1518 171.693L35.0961 171.637L35.3746 171.86V171.748L35.5974 172.027L35.7645 172.305V172.25L35.8202 172.528V172.472V172.751C35.8202 172.64 35.8759 172.584 35.8759 172.472L35.7645 172.695C35.8759 172.472 35.9873 172.25 36.2101 172.082L36.043 172.25C36.1544 172.138 36.3215 172.027 36.4329 171.971C36.5444 171.915 36.6001 171.804 36.6558 171.693C36.7115 171.581 36.7115 171.47 36.7115 171.303C36.7115 171.135 36.6558 171.024 36.5444 170.913C36.4887 170.746 36.3772 170.634 36.2101 170.523C35.9316 170.244 35.5974 170.077 35.2632 170.021L34.9289 169.966C34.8175 169.91 34.6504 169.966 34.4276 170.077Z" fill="#000005"/>
<path d="M41.5564 183.669C43.3946 183.112 44.9544 181.775 45.7342 180.048C45.957 179.491 45.8456 178.934 45.4 178.489C44.8429 177.764 43.896 177.542 43.1161 177.876C42.2248 178.321 42.1134 179.435 42.2248 180.327C42.5034 181.942 43.2275 183.836 45.0101 184.226C46.6255 184.616 48.4637 183.335 49.6335 182.444C50.9147 181.441 51.9731 180.215 52.8643 178.823C53.5885 177.597 54.5912 175.759 54.0898 174.311C53.7556 173.364 52.8086 172.751 51.806 172.751C50.8033 172.862 50.2462 173.698 49.9677 174.645C49.4664 176.483 49.2993 178.377 49.4664 180.271C49.7449 182.221 50.5805 184.337 52.8086 184.449C54.7026 184.505 56.5965 183.836 57.9891 182.499C58.7133 181.831 59.4374 180.995 59.4374 179.937C59.3817 178.767 58.5462 177.82 57.4321 177.597C56.9308 177.486 56.4294 177.82 56.318 178.321C55.8724 180.16 56.7636 182.054 58.4348 182.889C59.9945 183.669 61.8884 183.223 62.9468 181.831C63.3924 181.274 62.8354 180.382 62.3898 180.048C61.9441 179.658 61.22 179.658 60.83 180.104L60.7743 180.16C60.3844 180.661 59.716 180.828 59.1032 180.605C58.6576 180.382 58.6576 179.77 58.769 179.324L57.6549 180.048L57.0422 179.324L56.9865 179.435C56.875 179.547 56.8193 179.658 56.7636 179.77C56.5965 179.993 56.4294 180.16 56.2066 180.327C55.8167 180.717 55.371 180.995 54.8697 181.218C54.3684 181.441 53.867 181.608 53.31 181.719C53.0315 181.775 52.7529 181.775 52.4744 181.775C52.363 181.775 52.3073 181.775 52.1959 181.775C52.3073 181.719 52.363 182.109 52.363 181.831C52.3073 181.552 52.1959 181.329 52.0845 181.051C52.0288 180.772 51.9731 180.494 51.9731 180.215C51.9174 179.603 51.9174 178.934 51.9731 178.321C52.0288 177.653 52.1402 176.984 52.2516 176.372C52.3073 176.093 52.363 175.815 52.4187 175.536C52.4187 175.425 52.5301 175.313 52.5858 175.258C52.6415 175.035 52.92 175.425 52.4744 175.202L51.9174 174.756L51.806 174.366C51.806 174.422 51.806 174.478 51.806 174.478C51.7503 174.589 51.7503 174.701 51.7503 174.812C51.6946 175.091 51.5831 175.313 51.4717 175.592C51.2489 176.149 50.9704 176.706 50.6362 177.263C49.9677 178.266 49.1879 179.213 48.2409 179.993C47.7953 180.327 47.3496 180.661 46.8483 180.939C46.347 181.329 45.7899 181.552 45.1772 181.664C45.0658 181.664 45.0658 181.664 45.1772 181.719C45.0658 181.664 44.9544 181.274 44.8986 181.107C44.8429 180.884 44.7872 180.661 44.7315 180.382C44.6758 180.048 44.7315 180.104 44.5644 180.104L43.9517 179.825L43.896 179.77L43.6174 178.21C43.0047 179.603 41.7792 180.661 40.3309 181.107C39.6624 181.329 39.7182 182.221 39.9967 182.722C40.2195 183.502 40.8879 183.836 41.5564 183.669Z" fill="#000005"/>
<path d="M40.9999 193.473C42.4482 193.306 43.8408 193.751 45.1777 192.972C46.2918 192.303 47.1273 190.966 46.5703 189.741C46.3475 189.239 45.7904 188.905 45.2334 189.017C43.9522 189.128 43.0609 190.298 43.1723 191.579C43.228 192.303 43.6737 192.972 44.2864 193.306C45.2334 193.863 46.3475 193.863 47.4059 193.863C48.6313 193.919 49.8568 193.807 51.0823 193.473C52.1407 193.139 53.032 192.582 53.7561 191.746C54.3689 190.966 54.8702 189.685 53.9232 188.961C52.8092 188.125 51.4165 189.128 51.1937 190.298C51.0266 191.412 51.6951 192.47 52.7534 192.86C53.9232 193.417 55.4272 193.417 56.6527 193.362C57.9896 193.306 59.3265 192.972 60.6077 192.526C61.2762 192.415 61.7218 191.746 61.5547 191.078C61.4433 190.409 60.7748 189.964 60.1064 190.131C59.995 190.131 59.8836 190.186 59.7722 190.242C58.6581 190.688 57.4326 190.911 56.2071 190.966C55.5944 190.966 55.0373 190.911 54.4803 190.799C54.2575 190.743 54.146 190.576 53.9789 190.521C53.8118 190.465 54.3132 190.186 53.9232 190.632L52.9763 191.133H53.0877L52.1407 190.911C51.9179 190.743 51.8622 190.576 51.9179 190.409C51.9736 190.242 51.9736 190.298 51.9179 190.354C51.8622 190.354 51.6394 190.632 51.6394 190.688C51.4165 190.911 51.138 191.022 50.8595 191.189C50.1354 191.468 49.3555 191.579 48.5756 191.579C47.8515 191.635 47.1273 191.579 46.4589 191.468C46.3475 191.412 46.2361 191.356 46.1247 191.245V191.133C45.9018 191.245 45.9018 191.468 45.5676 191.523L44.2307 190.799C44.3421 191.078 44.0079 191.189 43.7294 191.245C42.8938 191.356 42.0582 191.133 41.167 191.245C40.4428 191.301 39.8858 191.913 39.8301 192.637C39.8858 193.306 40.4985 193.751 41.167 193.696C40.9442 193.529 40.9999 193.473 40.9999 193.473Z" fill="#000005"/>
<path d="M72.4727 170.801V194.531C72.4727 194.865 73.3082 195.311 73.531 195.423C73.921 195.645 74.3666 195.868 74.7565 196.035V172.361C74.7565 172.027 73.921 171.581 73.6981 171.47C73.3082 171.247 72.9183 171.024 72.4727 170.801Z" fill="#000005"/>
<path d="M149.621 223.33C149.621 223.33 144.385 230.349 146.223 230.683C148.062 231.018 162.099 231.018 162.099 231.018C162.099 231.018 161.486 223.163 160.316 222.829C159.147 222.495 149.621 223.33 149.621 223.33Z" fill="#000005"/>
<path d="M149.288 223.219C148.341 224.445 147.506 225.726 146.726 227.063C146.336 227.731 144.553 230.349 146.002 230.906C146.559 231.018 147.116 231.073 147.728 231.073C148.675 231.129 149.622 231.129 150.514 231.185C152.909 231.241 155.304 231.241 157.699 231.296C159.148 231.296 160.652 231.296 162.1 231.296C162.211 231.296 162.379 231.241 162.379 231.073C162.323 229.959 162.156 228.901 162.044 227.787C161.822 226.339 161.71 224.612 160.986 223.275C160.485 222.384 159.315 222.551 158.424 222.551C156.641 222.606 154.858 222.718 153.132 222.829C151.906 222.885 150.681 222.996 149.511 223.108C149.065 223.164 149.511 223.553 149.789 223.553C152.352 223.331 154.914 223.108 157.532 223.052C158.201 223.052 158.869 222.996 159.538 222.996C160.039 222.996 160.15 222.941 160.373 223.275C161.097 224.445 161.209 226.116 161.376 227.453C161.543 228.623 161.654 229.792 161.766 231.018L162.044 230.795C158.813 230.795 155.527 230.795 152.296 230.739C150.458 230.739 148.675 230.684 146.837 230.572C146.336 230.516 146.169 230.572 146.224 229.959C146.447 229.124 146.781 228.344 147.227 227.676C148.063 226.227 148.954 224.835 149.957 223.498C150.124 223.163 149.511 222.996 149.288 223.219Z" fill="#000005"/>
<path d="M151.016 109.917C151.016 109.917 176.64 126.851 176.64 132.087C176.64 137.323 159.594 147.016 159.594 147.016L151.016 109.917Z" fill="white"/>
<path d="M149.956 110.362C152.017 111.699 154.022 113.148 156.083 114.54C160.094 117.381 163.993 120.278 167.781 123.397C169.452 124.79 171.068 126.294 172.572 127.854C173.184 128.466 173.741 129.135 174.243 129.803C174.633 130.249 174.911 130.806 175.134 131.363L175.245 131.697C175.245 131.809 175.245 131.864 175.245 131.697C175.245 131.753 175.245 131.809 175.245 131.864C175.245 132.198 175.19 132.477 175.078 132.811C174.744 133.647 174.298 134.371 173.686 135.039C172.126 136.822 170.399 138.437 168.45 139.774C166.5 141.278 164.439 142.671 162.322 144.008C161.542 144.509 160.762 145.01 159.983 145.456L159.704 145.623L159.314 145.846C159.147 145.957 158.98 146.069 158.813 146.124L158.646 146.236L160.929 146.793L158.033 134.26L153.465 114.262L152.407 109.75C152.184 108.747 149.399 108.747 149.677 109.917L152.574 122.45L157.142 142.448L158.2 147.016C158.367 147.796 159.927 147.907 160.484 147.573C163.492 145.846 166.444 143.952 169.229 141.947C171.346 140.498 173.296 138.827 175.134 136.989C176.36 135.764 177.975 134.037 177.975 132.143C177.975 130.806 176.972 129.525 176.192 128.522C174.8 126.907 173.296 125.403 171.68 124.01C167.837 120.668 163.882 117.548 159.704 114.652C157.197 112.869 154.691 111.031 152.128 109.415L152.017 109.36C151.46 108.97 150.68 108.914 150.067 109.193C149.566 109.471 149.454 110.028 149.956 110.362Z" fill="#000005"/>
<path d="M135.195 123.509C135.195 123.509 130.683 139.663 114.306 141.222L112.523 150.414H121.715C121.715 150.414 136.309 141.668 137.646 123.954L135.195 123.509Z" fill="#EC4E26"/>
<path d="M121.826 150.748H112.189L114.083 141H114.306C130.293 139.44 134.917 123.62 134.917 123.453L134.972 123.23L137.925 123.787V124.066C136.588 141.724 121.993 150.692 121.826 150.748ZM112.858 150.191H121.659C122.718 149.522 135.975 140.833 137.368 124.233L135.418 123.898C134.75 125.904 129.681 139.997 114.585 141.557L112.858 150.191Z" fill="#EC4E26"/>
<path d="M126.672 153.255L129.234 222.885L163.325 223.442L163.047 152.698L126.672 153.255Z" fill="#000005"/>
<path d="M163.603 223.72L128.955 223.163L126.393 153.032L163.324 152.475L163.603 223.72ZM129.512 222.606L163.046 223.163L162.767 152.976L126.95 153.533L129.512 222.606Z" fill="#000005"/>
<path d="M144.053 167.014L144.108 172.64L144.331 186.12L144.554 202.497L144.777 216.646L144.833 221.325C144.833 222.049 144.777 222.829 144.888 223.553C144.888 223.609 144.888 223.609 144.888 223.665C144.888 224.723 147.674 224.556 147.674 223.442L147.562 217.816L147.339 204.335L147.116 187.958L146.894 173.865L146.838 169.186C146.838 168.462 146.894 167.682 146.782 166.958C146.782 166.902 146.782 166.902 146.782 166.847C146.838 165.788 144.053 165.955 144.053 167.014Z" fill="white"/>
<path d="M100.602 70.1438L106.116 94.6536C106.116 94.6536 103.554 95.6006 103.108 95.155C102.663 94.7093 97.5938 72.2606 97.5938 72.2606L100.602 70.1438Z" fill="#EC4E26"/>
<path d="M103.61 95.4893C103.332 95.4893 103.109 95.4336 102.886 95.2665C102.385 94.8209 98.8195 79.0009 97.3155 72.205L97.2598 72.0379L100.713 69.6426L106.395 94.7652L106.172 94.8209C105.393 95.2108 104.501 95.4336 103.61 95.4893ZM97.9282 72.3164C99.8779 81.1176 102.942 94.2638 103.332 94.9323C103.499 95.0437 104.668 94.8209 105.782 94.4309L100.379 70.5895L97.9282 72.3164Z" fill="#EC4E26"/>
<path d="M111.966 99.1098L106.953 88.916C109.46 87.9133 112.245 81.2845 109.181 77.608C106.118 73.9316 103.555 72.539 102.33 74.6557C101.104 76.7725 102.664 77.051 103.722 79.2792C104.781 81.5073 104.057 83.7355 100.157 83.9583C96.2579 84.1811 95.0324 79.6691 96.9264 78.1094C98.7089 76.7168 99.3773 73.3188 96.3136 73.1517C91.9687 72.9289 90.6318 77.4966 90.6318 77.4966C85.5627 79.5577 88.0137 83.7912 88.0137 83.7912C86.454 82.2315 80.9393 81.006 80.7164 83.9026C80.4936 86.7992 83.5574 86.6878 88.905 90.2529C94.2526 93.818 98.8203 104.179 98.8203 104.179L111.966 99.1098Z" fill="white"/>
<path d="M113.08 99.6114L108.067 89.4176L107.955 89.8075C110.072 88.9163 111.186 86.0753 111.521 84.0143C111.799 82.6217 111.688 81.1734 111.242 79.7808C110.685 78.1653 109.404 76.8841 108.234 75.7144C106.897 74.3775 103.388 71.258 101.494 73.3748C100.658 74.2661 100.491 75.6587 101.215 76.717C101.939 77.7754 102.886 78.7781 102.942 80.115C103.053 82.6217 99.5441 83.4572 97.8173 82.6774C97.7059 82.5103 98.0401 82.7888 97.8173 82.6774C97.5388 82.3432 97.9287 82.9002 97.7059 82.5103C97.3159 81.9532 97.1488 81.2848 97.1488 80.6163C97.1488 80.1707 97.2602 79.7808 97.4831 79.3908C97.7616 79.0009 98.1515 78.611 98.4857 78.3325C99.2099 77.5526 99.5998 76.4942 99.5441 75.4358C99.377 74.0432 98.1515 72.9292 96.926 72.4278C94.5307 71.4251 91.9126 72.5949 90.4643 74.6003C90.1858 74.9902 89.963 75.3801 89.7959 75.7701C89.7402 75.9929 89.6288 76.2714 89.5174 76.4942C89.4616 76.6056 89.3502 76.6056 89.1831 76.6613C88.7932 76.8284 88.4033 77.0513 88.0133 77.3298C87.4563 77.7197 87.0107 78.221 86.6764 78.7781C86.008 80.2821 86.1194 82.0089 86.955 83.3458L88.5704 83.4572C86.8436 81.7304 83.557 80.5606 81.106 81.2291C80.0476 81.4519 79.3792 82.4546 79.4906 83.5129C79.5463 84.7384 80.3819 85.7411 81.3845 86.4653C82.5543 87.3008 83.8355 87.9693 85.1724 88.582C86.6764 89.3062 88.1248 90.1974 89.4617 91.2558C91.7455 93.2612 93.4724 95.8793 94.9764 98.4417C95.979 100.113 96.8703 101.784 97.6502 103.566C97.873 104.123 99.0428 105.238 99.7669 104.959L111.298 100.558L112.969 99.9457C113.637 99.6672 111.743 97.8289 110.963 98.1074L99.4327 102.508L97.7616 103.121L99.8783 104.513C98.1515 100.503 95.8676 96.7705 93.0824 93.3726C90.8543 90.8659 88.1804 88.8048 85.1724 87.3565C84.504 87.0223 83.8355 86.6881 83.1114 86.2982L82.4986 85.9639L82.1644 85.7411C81.9973 85.6297 82.053 85.6297 82.1644 85.7411L81.9973 85.6297C82.2758 85.9082 81.9973 85.6297 81.9416 85.574C82.1644 85.8525 81.9416 85.4069 82.053 85.6854C81.9973 85.4626 81.9416 85.574 81.8859 85.2955C81.7745 84.8498 81.7745 84.4042 81.8859 83.9586C82.3315 82.8445 83.7798 82.8445 84.7268 82.9002C85.3395 82.9559 85.8966 83.123 86.4536 83.3458C86.6764 83.4015 86.8993 83.5129 87.1221 83.6801C87.4563 83.9029 86.8993 83.5129 87.2335 83.7358C87.4563 83.9029 87.0664 83.5687 87.3449 83.8472C87.7348 84.2371 88.2362 84.5156 88.7375 84.5713C89.1831 84.5713 89.1274 84.2371 88.9603 83.9029C88.9046 83.8472 88.9046 83.6801 89.016 84.0143C88.9603 83.9586 88.9603 83.8472 88.9046 83.7915C88.7932 83.5129 88.6818 83.2901 88.6261 83.0116C88.4033 82.2875 88.459 81.5076 88.7375 80.7277C89.1831 79.5579 90.2415 78.8338 91.3556 78.2768C91.8569 78.0539 91.8569 77.6083 92.0797 77.1627C92.971 75.4358 94.475 73.9875 96.5361 73.8761C96.8703 73.8761 97.2045 73.9875 97.5388 73.9318C97.5945 73.9318 97.6502 73.9875 97.6502 73.9875C97.6502 73.9875 96.9817 73.5976 97.0931 73.5419C97.2045 73.9318 97.2045 74.2661 97.2045 74.656C96.9817 75.6587 96.4804 76.5499 95.7005 77.1627C94.1965 78.611 94.9207 81.062 96.1462 82.4546C97.9844 84.5156 101.048 85.3512 103.611 84.1257C105.95 82.9559 105.504 80.4492 104.279 78.611C103.945 78.1096 103.499 77.664 103.221 77.107C102.998 76.6056 102.998 75.9929 103.332 75.4915C103.722 74.7674 104.39 74.2103 105.17 74.4332C106.284 74.8231 107.566 76.3271 108.345 77.3298C109.181 78.4996 109.515 79.9479 109.348 81.3405C109.237 82.7331 108.847 84.1257 108.178 85.3512C107.677 86.2982 106.953 87.3565 105.95 87.7465C105.783 87.8022 105.727 87.9693 105.783 88.1364L110.796 98.3303C111.131 98.8873 111.632 99.3886 112.189 99.6114C112.467 100.001 113.359 100.168 113.08 99.6114Z" fill="#000005"/>
<path d="M93.5266 84.8498C93.4152 84.4599 93.2481 84.1256 93.0253 83.7914C92.6911 83.2344 92.4125 82.6216 92.134 82.0089C91.577 80.7834 91.0199 79.168 91.4656 77.8868C91.577 77.4411 91.3541 76.9398 90.9085 76.717C90.5743 76.5499 89.7944 76.4384 89.6273 76.9398C89.0703 78.6109 89.5159 80.3934 90.1844 81.9532C90.4629 82.6216 90.7414 83.2344 91.0756 83.8471C91.187 84.0699 91.2984 84.2927 91.4099 84.4599L91.5213 84.6827C91.6327 84.9055 91.5213 84.5713 91.5213 84.627C91.6884 85.1283 92.134 85.5182 92.691 85.5182C93.1367 85.6296 93.5823 85.3511 93.5266 84.8498Z" fill="#000005"/>
<path d="M90.9662 86.2425L89.5178 84.1258L89.295 83.8472C89.1279 83.6801 88.9608 83.513 88.6823 83.4573C88.3481 83.3459 87.9581 83.2902 87.6239 83.2345C87.3454 83.1788 87.0669 83.2345 86.7883 83.3459C86.6769 83.4016 86.4541 83.5687 86.5655 83.7358L88.0138 85.8526L88.2366 86.1868C88.4038 86.3539 88.6266 86.521 88.8494 86.5768C89.1836 86.6882 89.5178 86.7439 89.9078 86.7996C90.1863 86.8553 90.5205 86.7996 90.7433 86.6882C90.9104 86.521 91.0776 86.4096 90.9662 86.2425Z" fill="#000005"/>
<path d="M109.726 59.6508C110.993 51.8463 105.693 44.4928 97.8881 43.2261C90.0836 41.9595 82.73 47.2595 81.4633 55.064C80.1967 62.8685 85.4967 70.2221 93.3012 71.4887C101.106 72.7554 108.459 67.4553 109.726 59.6508Z" fill="white"/>
<path d="M108.067 53.934C109.515 59.5044 107.51 65.3534 102.942 68.8627C100.881 70.4225 98.4301 71.258 95.8677 71.1466C93.1382 71.0352 90.5201 70.0882 88.3477 68.4171C83.7242 64.9634 81.6632 59.0031 83.1115 53.4327C84.5041 48.3636 88.9047 43.7959 94.3637 43.5173C100.77 43.2388 106.396 47.918 108.067 53.934C108.234 54.6025 110.964 53.934 110.796 53.377C109.07 47.3052 103.722 42.9603 97.4274 42.5704C90.91 42.1247 84.2255 45.2999 81.3289 51.3159C78.5994 57.0535 79.9363 63.9051 84.5598 68.25C89.406 72.6506 96.6476 73.2077 102.441 70.5339C109.014 67.5815 112.523 60.34 110.796 53.377C110.629 52.7085 107.9 53.3213 108.067 53.934Z" fill="#EC4E26"/>
<path d="M97.6504 71.8708C97.6504 72.1493 98.9873 77.3855 98.9873 77.3855L100.881 70.9238L97.6504 71.8708Z" fill="#EC4E26"/>
<path d="M98.9308 78.4438L98.708 77.4411C98.3181 75.8814 97.3711 72.1492 97.3711 71.815V71.5922L101.27 70.4224L98.9308 78.4438ZM97.9281 72.0935C98.0395 72.7619 98.5409 74.7116 98.9865 76.3827L100.435 71.3693L97.9281 72.0935Z" fill="#EC4E26"/>
<path d="M149.119 82.9002C149.119 82.9002 144.663 85.7411 141.042 84.5713C137.422 83.4015 130.793 80.0593 129.01 83.4015C127.228 86.7438 131.628 89.4733 134.915 89.7518C134.915 89.7518 131.35 98.9987 136.14 103.232C140.931 107.466 144.05 106.63 143.326 110.641C143.326 110.641 148.34 119.331 151.181 112.256C151.626 111.142 158.478 97.8846 151.181 90.8659C151.181 90.9216 146.891 87.2451 149.119 82.9002Z" fill="white"/>
<path d="M148.005 82.2317C146.557 83.1787 144.942 83.7914 143.271 84.0142C142.324 84.1257 141.321 83.9585 140.43 83.5686C139.26 83.123 138.09 82.6773 136.92 82.2874C134.692 81.5633 132.074 80.7277 129.734 81.3962C127.896 81.9532 126.838 83.8471 127.339 85.6854C127.395 85.9639 127.506 86.2424 127.673 86.4652C129.066 88.9162 132.408 90.1974 135.026 90.5316L133.467 89.4176C132.91 90.8659 132.575 92.3699 132.353 93.9296C131.963 96.6591 132.074 99.6114 133.634 101.951C134.636 103.455 136.252 104.569 137.756 105.572C138.814 106.24 140.318 106.964 141.154 107.633C141.989 108.301 142.101 109.025 141.934 110.084C141.878 110.697 142.212 111.142 142.546 111.644C143.772 113.37 145.332 115.097 147.448 115.654C148.618 116.044 149.899 115.766 150.902 114.986C151.738 114.317 152.128 113.259 152.573 112.312C154.467 108.134 155.971 103.678 155.804 99.0544C155.748 95.9906 154.579 93.094 152.462 90.9216C151.96 90.4759 151.515 89.9746 151.125 89.4176C150.289 88.3592 149.844 87.0223 149.788 85.6854C149.788 84.8498 150.011 83.9585 150.401 83.2344C150.791 82.4545 148.173 81.619 147.671 82.5659C146.167 85.6854 147.671 88.9162 149.955 91.1444C152.406 93.5397 153.242 96.9376 153.074 100.224C152.852 103.399 152.072 106.574 150.846 109.527C150.512 110.307 150.178 111.086 149.844 111.811C149.621 112.423 149.287 112.98 148.952 113.537C148.785 113.76 148.562 113.983 148.284 114.15C148.228 114.206 148.005 114.317 148.005 114.262C148.005 114.206 147.56 114.373 147.838 114.317C147.671 114.373 147.783 114.317 147.894 114.317C147.671 114.317 148.005 114.429 147.894 114.317C147.838 114.317 147.615 114.262 147.838 114.317C148.061 114.373 147.783 114.262 147.727 114.262C147.504 114.15 147.671 114.262 147.727 114.262L147.504 114.15L147.337 114.039C147.226 113.983 147.448 114.095 147.281 113.983C146.78 113.593 146.334 113.148 145.889 112.646C145.387 112.033 144.886 111.365 144.496 110.641L144.607 111.031C144.775 110.251 144.775 109.415 144.496 108.636C144.162 107.911 143.605 107.299 142.881 106.853C141.098 105.627 139.148 104.681 137.422 103.288C134.414 100.781 134.581 96.5477 135.305 93.0383C135.528 92.0357 135.806 91.0887 136.14 90.1417C136.419 89.4733 134.971 89.0833 134.581 89.0276C132.965 88.8605 130.793 87.9692 130.013 86.2424C129.623 85.3511 129.79 84.3485 130.347 83.5686C130.793 83.0116 131.461 82.6774 132.185 82.7331C133.077 82.7331 134.024 82.9002 134.859 83.1787C135.918 83.4572 136.976 83.8471 137.979 84.2371C138.981 84.627 139.928 85.0169 140.931 85.2954C142.268 85.6297 143.66 85.6854 144.997 85.4068C146.78 85.0726 148.507 84.4599 150.066 83.4572C151.236 82.8445 148.785 81.7861 148.005 82.2317Z" fill="#000005"/>
<path d="M156.698 105.683C156.698 105.683 160.541 109.36 162.658 107.354C164.775 105.349 161.544 104.291 161.544 104.291C161.544 104.291 167.671 101.115 163.549 97.6618C163.549 97.6618 169.454 95.9907 168.396 90.7545C167.337 85.5183 160.04 84.5156 160.04 84.5156C160.04 84.5156 163.215 79.168 158.146 77.2184C153.077 75.2687 152.409 79.2237 152.409 79.2237C152.409 79.2237 149.178 77.9425 148.064 79.7808C146.95 81.619 148.788 83.6244 148.788 83.6244C148.788 83.6244 146.671 89.4733 151.239 90.9216L151.462 99.8343C149.79 100.948 148.788 102.842 148.843 104.903C148.899 108.301 154.971 109.304 156.698 105.683Z" fill="#000005"/>
<path d="M155.752 106.352C157.423 107.967 160.153 109.861 162.604 108.914C164.163 108.357 165.166 106.519 164.33 105.015C163.773 104.124 162.882 103.455 161.824 103.121L162.158 105.405C163.383 104.792 164.497 103.901 165.333 102.842C165.946 102.062 166.28 101.116 166.224 100.169C166.113 98.7202 165.222 97.6062 164.163 96.7149V98.8317C166.614 98.1075 169.121 96.1579 169.678 93.5955C170.625 89.1391 167.116 85.7412 163.272 84.2372C162.214 83.7915 161.1 83.513 159.985 83.3459L161.155 85.3512C162.269 83.4573 162.771 80.8949 161.712 78.8896C160.765 77.0513 158.649 76.0486 156.699 75.6587C155.195 75.3802 153.468 75.5473 152.354 76.6057C151.741 77.1627 151.296 77.9426 151.128 78.7782L152.744 78.1654C151.184 77.5527 149.012 77.2184 147.563 78.3325C145.614 79.8922 146.394 82.7889 147.842 84.3486L147.508 83.1231C147.118 84.2929 146.895 85.5184 147.006 86.7996C147.062 89.1948 148.622 91.3116 150.906 92.0914L149.903 90.7546L150.126 99.6672L150.516 98.8874C148.343 100.28 147.229 102.842 147.563 105.349C148.12 108.19 151.463 109.527 154.025 109.137C155.641 108.914 157.089 107.967 157.869 106.519C158.203 105.906 157.98 105.126 157.367 104.792C156.922 104.458 155.919 104.291 155.585 104.903C155.195 105.739 154.526 106.296 153.635 106.575C153.245 106.686 152.855 106.742 152.465 106.742C152.354 106.742 151.63 106.63 151.518 106.575C151.296 106.519 151.128 106.407 150.906 106.352C151.128 106.463 150.683 106.185 150.571 106.129C150.794 106.296 150.404 105.962 150.349 105.85C150.516 106.073 150.293 105.795 150.293 105.739C150.181 105.516 150.293 105.906 150.237 105.628C150.126 105.182 150.07 104.736 150.182 104.291C150.293 103.734 150.46 103.177 150.739 102.731C151.073 102.118 151.574 101.561 152.187 101.116C152.577 100.837 152.8 100.391 152.8 99.9457C152.8 98.4417 152.744 96.9377 152.688 95.4337L152.577 91.2559C152.521 90.6431 152.131 90.1418 151.574 89.919C151.184 89.8076 150.794 89.6405 150.516 89.3619C150.683 89.4734 150.46 89.3062 150.46 89.2505C150.46 89.1948 150.293 89.0834 150.237 88.972C150.349 89.1391 150.07 88.6935 150.07 88.6378C149.959 88.3593 149.847 88.0251 149.792 87.7465C149.792 87.7465 149.736 87.5237 149.736 87.3566C149.736 87.1338 149.736 86.9667 149.736 86.7439C149.736 86.5767 149.736 86.4096 149.736 86.1868C149.736 86.1311 149.792 85.6855 149.736 85.8526C149.792 85.5741 149.847 85.2955 149.903 85.017C149.959 84.7385 150.07 84.46 150.126 84.1815C150.237 83.7358 150.07 83.2902 149.792 82.956L149.736 82.8446C149.513 82.566 149.847 83.0117 149.68 82.7332C149.513 82.5103 149.402 82.2318 149.29 82.009C149.067 81.3405 149.179 80.505 149.736 80.2265C150.237 80.0036 150.794 80.0036 151.351 80.115L151.797 80.1708C152.187 80.2265 151.741 80.1708 151.908 80.2265C152.02 80.2822 152.131 80.2822 152.243 80.3379C152.8 80.5607 153.691 80.4493 153.858 79.7251C153.858 79.6137 153.914 79.5023 153.969 79.3352C154.025 79.2238 154.192 78.8339 154.025 79.1681C154.081 79.0567 154.192 78.8896 154.304 78.7782L154.471 78.5553C154.582 78.3882 154.359 78.6667 154.526 78.4996C154.694 78.3325 154.861 78.2211 155.083 78.1097C154.916 78.2211 155.139 78.1097 155.195 78.054C155.251 77.9983 155.529 77.9426 155.473 77.9426C155.752 77.8869 156.03 77.8869 156.253 77.8869C157.033 77.9426 157.757 78.1654 158.426 78.4996C159.317 78.8339 159.874 79.7251 159.874 80.6721C159.874 81.1177 159.818 81.5634 159.707 82.009C159.596 82.4546 159.428 82.9003 159.261 83.3459C159.15 83.6244 159.373 83.1788 159.261 83.3459C159.261 83.4016 159.206 83.4573 159.206 83.513L159.15 83.6801C158.649 84.5157 159.428 85.5741 160.32 85.6855C160.542 85.7412 160.71 85.7412 160.932 85.7969L161.545 85.964C161.657 85.964 161.935 86.0754 161.657 86.0197L162.158 86.1868C162.826 86.4096 163.439 86.6881 164.108 86.9667L164.219 87.0224L164.442 87.1338C164.609 87.2452 164.776 87.3566 164.943 87.4123C165.11 87.468 165.277 87.6351 165.389 87.7465L165.612 87.9136C165.779 88.0807 165.612 87.9136 165.723 87.9693C166.948 89.0277 167.617 90.5874 167.45 92.1472C167.227 93.4841 166.447 94.6538 165.333 95.378C165.055 95.5451 164.776 95.7122 164.497 95.8793C164.72 95.7679 164.33 95.935 164.275 95.9907C164.219 96.0464 164.052 96.1022 163.94 96.1579C163.718 96.2693 163.439 96.3807 163.161 96.4364C162.046 96.7706 162.604 98.0518 163.161 98.5531C163.439 98.776 163.662 99.0545 163.829 99.3887C163.94 99.6115 163.996 99.9457 163.94 100.169C163.94 100.057 163.885 100.391 163.885 100.447C163.885 100.558 163.829 100.67 163.718 100.781C163.551 101.06 163.328 101.394 163.105 101.617C162.938 101.84 162.715 102.007 162.548 102.174C162.325 102.397 162.046 102.564 161.824 102.731C161.601 102.898 161.434 102.954 161.267 103.065C160.877 103.288 161.1 103.177 161.267 103.065C160.264 103.567 160.542 105.015 161.601 105.349C161.768 105.405 161.935 105.46 162.102 105.572C162.269 105.683 161.935 105.46 162.046 105.572L162.269 105.683C162.325 105.739 162.604 105.906 162.325 105.683C162.381 105.739 162.548 105.795 162.436 105.795C162.325 105.795 162.436 105.683 162.436 105.795C162.436 105.683 162.325 106.017 162.269 106.073C162.046 106.407 161.712 106.63 161.378 106.686C161.044 106.686 160.654 106.63 160.375 106.463C159.985 106.296 159.596 106.129 159.261 105.85C158.927 105.628 158.593 105.349 158.259 105.071C158.203 105.015 158.147 104.959 158.091 104.959C157.924 104.848 158.314 105.238 158.203 105.071C158.147 105.015 158.147 105.015 158.091 104.959C157.59 104.513 156.81 104.179 156.253 104.625C155.752 105.071 155.752 105.795 156.142 106.24C155.696 106.352 155.752 106.352 155.752 106.352Z" fill="#000005"/>
<path d="M149.901 91.59C149.901 91.59 152.575 88.2477 154.803 90.4759C157.031 92.7041 153.466 101.505 148.898 98.6644" fill="white"/>
<path d="M151.015 92.4256C151.572 91.7015 152.352 91.0887 153.243 90.7545C153.522 90.6431 153.856 90.5874 154.134 90.5874H154.302C154.58 90.6431 154.134 90.5317 154.413 90.6431C154.134 90.5874 154.58 90.7545 154.302 90.5874C154.19 90.5317 154.134 90.476 154.023 90.4203C153.912 90.3646 153.912 90.3089 153.967 90.3646C153.689 90.0861 153.856 90.2532 153.912 90.3089C153.8 90.086 154.023 90.476 153.912 90.3089C153.967 90.3646 154.023 90.476 154.023 90.5317C154.023 90.5874 154.079 90.6431 154.079 90.6988C154.023 90.5874 154.079 90.7545 154.079 90.7545C154.134 90.8659 154.134 91.033 154.19 91.2001C154.302 92.3142 154.134 93.484 153.689 94.5424C153.243 95.7122 152.575 96.7706 151.628 97.6061C151.182 97.996 150.569 98.2746 150.012 98.3303C149.734 98.386 149.455 98.386 149.233 98.3303C149.177 98.3303 148.954 98.2746 149.177 98.3303L148.898 98.2189C148.898 98.2189 148.787 98.1632 148.954 98.2746L148.787 98.1632C148.62 98.0518 147.729 97.5504 147.729 97.996C147.729 98.4417 148.62 99.0544 148.954 99.2215C150.347 100.057 151.906 100.503 153.41 99.6115C154.58 98.8316 155.471 97.7175 155.973 96.3806C156.53 95.1551 156.753 93.8182 156.585 92.4813C156.474 91.8129 156.14 91.2001 155.638 90.6988C154.803 89.8075 153.522 88.9163 152.241 88.9163C150.959 88.9163 149.622 89.8632 148.787 90.8659C148.508 91.2001 149.511 91.8686 149.678 92.0357C149.845 92.2028 150.792 92.8713 151.071 92.537L151.015 92.4256Z" fill="#000005"/>
<path d="M138.593 93.2613C138.203 93.7626 137.702 94.2082 137.145 94.5982C136.643 94.9324 136.086 95.1552 135.473 95.2109C135.139 95.2666 134.861 95.2666 134.527 95.2109C134.471 95.2109 134.415 95.2109 134.359 95.1552L134.137 95.0995C134.304 95.1552 133.969 95.0438 133.969 95.0438C134.192 95.0995 133.858 94.9881 133.802 94.9324C133.691 94.8767 132.967 94.4868 132.967 94.8767C132.967 95.0438 133.19 95.2109 133.245 95.3223C133.468 95.4894 133.691 95.6565 133.914 95.768C134.749 96.2693 135.696 96.5478 136.699 96.5478C137.367 96.4921 137.98 96.325 138.593 95.9908C139.261 95.6008 139.874 95.0995 140.375 94.4868C140.543 94.2639 139.818 93.7626 139.651 93.6512C139.484 93.5398 138.76 93.0385 138.593 93.2613Z" fill="#000005"/>
<path d="M144.439 87.7463C144.05 87.6906 143.715 87.9134 143.604 88.2477C143.604 88.3034 143.604 88.3034 143.604 88.3591C143.548 89.1389 144.495 89.1946 144.718 88.5819C144.885 88.3034 144.774 87.9691 144.495 87.802C144.495 87.7463 144.495 87.7463 144.439 87.7463Z" fill="#000005"/>
<path d="M143.662 110.084C143.662 110.084 153.299 102.898 158.702 121.28C164.106 139.663 165.554 161.165 165.554 161.165L125.28 157.934C125.224 157.934 129.736 126.962 143.662 110.084Z" fill="white"/>
<path d="M144.998 110.084C145.109 110.028 145.165 109.972 145.276 109.917C145.499 109.805 145.722 109.638 145.945 109.583C146.112 109.527 146.279 109.415 146.446 109.36L146.725 109.248L146.892 109.193C147.003 109.137 146.725 109.248 147.003 109.137L147.337 109.081C147.616 109.025 147.17 109.025 147.449 109.025C147.839 109.025 147.337 109.025 147.56 109.025C147.671 109.025 147.894 109.025 147.449 109.025C147.17 109.025 147.839 108.97 147.449 109.025C147.783 109.025 147.226 108.97 147.56 109.025C147.894 109.081 147.337 109.025 147.616 109.025H147.783C148.061 109.081 148.34 109.137 148.618 109.193C149.287 109.36 149.9 109.638 150.457 110.028C152.072 111.142 153.465 112.646 154.356 114.429C155.971 117.158 156.918 120.222 157.754 123.286C158.701 126.684 159.481 130.137 160.205 133.591C161.43 139.718 162.433 145.902 163.157 152.085C163.547 155.149 163.881 158.268 164.049 161.332L166.388 160.997L152.796 159.883L131.127 158.157L126.114 157.767L126.56 157.878C127.117 154.034 127.952 150.191 128.899 146.459C130.793 138.326 133.578 130.416 137.088 122.84C139.204 118.217 141.878 113.983 144.998 110.084C145.22 109.861 144.106 109.861 143.995 109.861C143.661 109.861 142.602 109.805 142.324 110.14C136.698 116.991 132.966 125.291 130.013 133.591C127.674 140.276 125.891 147.127 124.554 154.034C124.276 155.371 124.053 156.708 123.83 158.045C123.83 158.157 124.276 158.157 124.276 158.157L137.868 159.271L159.536 160.997L164.55 161.387C164.828 161.387 166.945 161.443 166.889 161.053C166.221 151.862 164.995 142.782 163.102 133.758C162.377 130.137 161.542 126.572 160.539 123.007C159.648 119.832 158.701 116.713 156.974 113.872C155.971 112.089 154.579 110.641 152.908 109.527C151.515 108.747 149.955 108.357 148.34 108.468C146.335 108.468 143.939 108.914 142.268 110.14C141.99 110.307 143.215 110.362 143.271 110.362C143.884 110.418 144.496 110.307 144.998 110.084Z" fill="#000005"/>
<path d="M148.844 126.461C148.844 126.461 117.649 132.087 113.861 130.026C110.073 127.965 94.9219 98.0516 94.9219 98.0516L111.8 92.5369C111.8 92.5369 121.771 112.256 122.774 113.482C123.777 114.707 145.724 110.529 145.724 110.529" fill="white"/>
<path d="M149.121 125.403C145.389 126.071 141.601 126.684 137.869 127.241C131.686 128.188 125.502 129.135 119.264 129.357C118.706 129.357 118.094 129.413 117.537 129.413C117.202 129.413 117.704 129.413 117.425 129.413H117.091C116.868 129.413 116.59 129.413 116.367 129.357C115.977 129.357 115.643 129.246 115.253 129.19C114.863 129.135 115.364 129.246 115.253 129.19C115.141 129.135 115.141 129.135 115.086 129.135C115.03 129.135 114.696 128.968 114.863 129.079C115.03 129.19 114.751 128.968 114.64 128.912C114.529 128.856 114.417 128.689 114.306 128.578C114.027 128.299 113.805 128.021 113.526 127.742C113.47 127.686 113.415 127.575 113.303 127.519L113.192 127.408C113.025 127.185 112.858 126.962 112.69 126.739C112.356 126.294 112.022 125.792 111.688 125.347C108.234 120.166 105.226 114.652 102.274 109.193C100.937 106.686 99.5999 104.179 98.263 101.617C97.5946 100.28 96.9261 98.8873 96.202 97.6061C96.1463 97.5504 96.1463 97.4947 96.0906 97.439L94.9208 99.0544L109.738 94.2082L111.799 93.5397L110.462 93.2055C113.526 99.2772 116.59 105.349 119.821 111.365C120.266 112.312 120.823 113.203 121.38 114.095C122.049 114.986 123.553 114.763 124.5 114.763C128.455 114.596 132.354 113.872 136.253 113.203C139.317 112.702 142.325 112.145 145.333 111.588C145.946 111.476 146.726 111.142 146.893 110.418C146.949 109.972 146.67 109.527 146.224 109.471C146.113 109.471 146.002 109.471 145.89 109.471C139.428 110.697 132.911 111.978 126.394 112.535C125.725 112.591 125.057 112.646 124.333 112.646C123.998 112.646 124.555 112.646 124.221 112.646H123.887C123.831 112.646 123.72 112.646 123.664 112.591C123.33 112.591 123.887 112.702 123.664 112.591C123.441 112.479 123.887 112.758 123.776 112.646C123.943 112.758 123.887 112.869 123.831 112.702C123.776 112.535 123.608 112.423 123.553 112.256C123.274 111.755 122.996 111.254 122.717 110.752C120.768 107.187 118.929 103.622 117.091 100.001C115.698 97.3276 114.362 94.5981 112.969 91.9243C112.746 91.4787 112.078 91.423 111.632 91.5901L96.8147 96.4363L94.7537 97.1048C94.1966 97.2719 93.194 97.9961 93.5839 98.7202C95.255 102.007 96.9818 105.293 98.7087 108.58C101.717 114.262 104.836 119.944 108.29 125.347C109.404 127.074 110.574 128.968 112.078 130.416C113.247 131.53 114.974 131.53 116.534 131.586C119.319 131.586 122.104 131.419 124.834 131.084C128.176 130.75 131.463 130.304 134.749 129.803C139.261 129.135 143.773 128.411 148.285 127.631L148.508 127.575C149.121 127.464 149.901 127.129 150.068 126.405C150.124 125.96 149.845 125.514 149.399 125.458C149.344 125.403 149.232 125.403 149.121 125.403Z" fill="#000005"/>
<path d="M101.157 104.959L109.958 101.728C110.515 101.506 110.459 100.837 110.181 100.336C109.902 99.8344 109.29 99.0546 108.733 99.2774L99.9313 102.508C99.3186 102.731 99.43 103.4 99.7085 103.901C99.987 104.402 100.6 105.182 101.157 104.959Z" fill="#000005"/>
<path d="M107.454 97.6618L107.732 98.2745L107.899 98.4974L108.122 98.6645L108.401 98.7759C108.568 98.8316 108.735 98.8316 108.902 98.7759C109.013 98.7759 109.125 98.7759 109.236 98.7202C109.348 98.7202 109.459 98.6645 109.57 98.5531C109.682 98.4974 109.793 98.4417 109.849 98.3302C109.96 98.2188 110.072 98.1074 110.183 97.9403C110.239 97.8289 110.295 97.7175 110.295 97.6061C110.295 97.6061 110.295 97.6061 110.295 97.5504C110.35 97.439 110.35 97.3276 110.35 97.2162C110.35 97.1048 110.295 96.9933 110.295 96.8819C110.295 96.8262 110.295 96.8262 110.239 96.7705V96.7148C110.183 96.6591 110.127 96.5477 110.072 96.492L110.016 96.4363C109.905 96.3806 109.849 96.2692 109.737 96.2135H109.682C109.57 96.1578 109.459 96.1578 109.348 96.1021C109.18 96.0464 109.013 96.0464 108.846 96.1021C108.679 96.1021 108.512 96.1578 108.345 96.2135C108.178 96.2692 108.011 96.3806 107.899 96.492C107.788 96.6034 107.676 96.7148 107.565 96.8262L107.454 97.1047C107.398 97.3276 107.398 97.4947 107.454 97.6618L107.621 97.9403C107.732 98.0517 107.955 98.1631 108.122 98.2188L107.844 98.1074C107.899 98.1074 107.899 98.1631 107.955 98.1631L107.732 97.996C107.788 98.0517 107.788 98.0517 107.844 98.1074L107.676 97.8846C107.732 97.9403 107.732 97.996 107.732 98.0517L107.676 97.7732C107.676 97.8289 107.676 97.8846 107.676 97.9403L107.732 97.6618C107.732 97.7175 107.732 97.7175 107.732 97.7732L107.844 97.4947L110.295 97.2162L110.016 96.6034C109.96 96.492 109.849 96.3806 109.737 96.3249C109.626 96.2135 109.515 96.1578 109.348 96.1578C109.18 96.1021 109.013 96.1021 108.846 96.1578C108.679 96.1578 108.456 96.2135 108.289 96.2692L107.955 96.4363C107.788 96.5477 107.621 96.7148 107.509 96.9376L107.398 97.2162C107.342 97.3276 107.342 97.4947 107.454 97.6618Z" fill="#000005"/>
<path d="M143.107 219.71C143.107 219.71 144.444 230.795 144.165 230.795C143.887 230.795 139.041 231.018 139.041 231.018L138.706 226.561L136.701 231.63L120.603 231.909C120.603 231.909 119.99 230.349 123.443 228.288C126.897 226.227 132.523 223.275 132.523 223.275L132.189 216.646L143.107 219.71Z" fill="#000005"/>
<path d="M142.77 219.71C143.048 221.826 143.271 223.887 143.494 226.004C143.605 227.285 143.772 228.567 143.828 229.904C143.772 230.182 143.772 230.516 143.828 230.795C143.717 230.683 144.162 230.739 143.939 230.683C143.884 230.683 143.772 230.683 143.717 230.683L142.881 230.739L138.926 230.906L139.372 231.129L139.037 226.673C139.037 226.394 138.48 226.338 138.369 226.561L136.364 231.63L136.698 231.519L122.605 231.797L120.599 231.853L120.934 232.02C120.711 231.463 121.212 230.739 121.491 230.349C122.66 228.957 124.499 228.121 126.058 227.23C128.286 226.004 130.515 224.779 132.743 223.609C132.798 223.553 132.854 223.498 132.854 223.442L132.52 216.813L132.074 216.98L143.048 219.988C143.382 220.1 143.717 219.71 143.271 219.598L132.297 216.59C132.186 216.535 131.852 216.59 131.852 216.757L132.019 220.211L132.13 222.439C132.13 222.662 132.13 222.885 132.186 223.163C132.241 223.442 132.13 223.33 132.297 223.275C130.96 223.999 129.623 224.667 128.342 225.391C126.225 226.506 123.942 227.62 122.048 229.068C121.268 229.625 119.819 230.962 120.265 232.132C120.321 232.243 120.432 232.299 120.599 232.299L134.692 232.02L136.698 231.965C136.809 231.965 136.976 231.965 137.032 231.797L139.037 226.728L138.369 226.617L138.703 231.073C138.703 231.296 138.982 231.296 139.149 231.296L142.77 231.129C143.271 231.185 143.772 231.129 144.274 231.073C144.552 231.018 144.608 230.85 144.608 230.572C144.608 229.402 144.496 228.288 144.329 227.174C144.162 225.614 143.995 224.11 143.828 222.551C143.717 221.604 143.605 220.712 143.494 219.765C143.438 219.431 142.714 219.431 142.77 219.71Z" fill="#000005"/>
<path d="M90.856 58.836C91.9144 59.7273 92.9728 60.73 93.864 61.8441C94.0311 62.0669 95.2566 63.0695 95.5909 62.5125L101.05 53.8226C101.328 53.377 100.716 52.7086 100.381 52.43C100.159 52.2629 99.2116 51.5388 98.9331 51.9844L93.4741 60.6743L95.2009 61.3427C94.0868 60.1172 92.9171 58.9474 91.6359 57.8333C91.3573 57.6105 90.5218 56.9978 90.1876 57.3877C89.8533 57.7776 90.6332 58.6132 90.856 58.836Z" fill="#000005"/>
</svg>
