<svg width="9" height="8" viewBox="0 0 9 8" fill="none" xmlns="http://www.w3.org/2000/svg">
<path d="M4.81294 5.70556L4.80186 5.28872C2.99008 5.28437 2.19635 4.26926 2.18825 3.44523C2.18222 2.81336 2.66685 2.14442 3.47159 2.13809C4.15021 2.13258 4.48984 2.61248 4.48984 2.61248C4.48984 2.61248 4.77373 2.12451 5.5263 2.11859C6.06291 2.11448 6.78449 2.51814 6.7937 3.45341C6.80232 4.33257 6.09402 5.29638 4.81294 5.70556ZM4.4645 0.000361346C2.00573 0.0196249 -0.0203277 1.62981 0.000153937 3.70615C0.0102003 4.74186 0.60624 5.80095 1.66953 6.49954L1.39336 7.69423C6.58052 9.0342 9.01958 5.65856 8.99988 3.64401C8.97985 1.59059 6.96688 -0.0190762 4.4645 0.000419369" fill="#EF2D38"/>
</svg>
