<svg width="17" height="17" viewBox="0 0 17 17" fill="none" xmlns="http://www.w3.org/2000/svg">
<g clip-path="url(#clip0_172_4219)">
<path d="M2.0068 10.7027H14.0472C14.4166 10.7027 14.7161 11.0022 14.7161 11.3716C14.7161 11.7146 14.4578 11.9974 14.1252 12.036L14.0472 12.0405H2.0068C1.63737 12.0405 1.33789 11.741 1.33789 11.3716C1.33789 11.0286 1.59612 10.7458 1.92879 10.7072L2.0068 10.7027H14.0472H2.0068ZM2.00672 6.68924L14.0471 6.68779C14.4165 6.68774 14.7161 6.98719 14.7161 7.35662C14.7161 7.69966 14.4579 7.98242 14.1253 8.0211L14.0472 8.02561L2.00688 8.02705C1.63745 8.0271 1.33789 7.72765 1.33789 7.35823C1.33789 7.01519 1.59605 6.73243 1.92871 6.69375L2.00672 6.68924L14.0471 6.68779L2.00672 6.68924ZM2.0068 2.67578H14.0472C14.4166 2.67578 14.7161 2.97526 14.7161 3.34469C14.7161 3.68773 14.4578 3.97046 14.1252 4.0091L14.0472 4.0136H2.0068C1.63737 4.0136 1.33789 3.71412 1.33789 3.34469C1.33789 3.00165 1.59612 2.71892 1.92879 2.68028L2.0068 2.67578H14.0472H2.0068Z" fill="#A0A0A0"/>
</g>
<defs>
<clipPath id="clip0_172_4219">
<rect width="16.0538" height="16.0538" fill="white"/>
</clipPath>
</defs>
</svg>
