<svg width="15" height="17" viewBox="0 0 15 17" fill="none" xmlns="http://www.w3.org/2000/svg">
<path d="M12.5802 2.07837C13.931 3.36843 14.7036 5.1097 14.7346 6.93399C14.7655 8.75827 14.0525 10.5226 12.7461 11.8538L12.5802 12.0177L9.11138 16.0572C8.67124 16.4773 8.08036 16.7219 7.45845 16.7415C6.83653 16.7611 6.23008 16.5541 5.76194 16.1626L5.64421 16.0572L2.1746 12.017C0.794732 10.699 0.0195313 8.91151 0.0195312 7.04767C0.0195313 5.18382 0.794732 3.39631 2.1746 2.07837C3.55446 0.76043 5.42596 0.0200195 7.37739 0.0200195C9.32881 0.0200195 11.2003 0.76043 12.5802 2.07837ZM7.37739 4.70513C7.05531 4.70513 6.73638 4.76572 6.43882 4.88345C6.14125 5.00117 5.87088 5.17372 5.64313 5.39124C5.41539 5.60877 5.23473 5.86701 5.11148 6.15122C4.98822 6.43543 4.92478 6.74004 4.92478 7.04767C4.92478 7.35529 4.98822 7.65991 5.11148 7.94412C5.23473 8.22832 5.41539 8.48656 5.64313 8.70409C5.87088 8.92161 6.14125 9.09416 6.43882 9.21189C6.73638 9.32961 7.05531 9.3902 7.37739 9.3902C8.02786 9.3902 8.65169 9.1434 9.11164 8.70409C9.57159 8.26478 9.82999 7.66895 9.82999 7.04767C9.82999 6.42639 9.57159 5.83056 9.11164 5.39124C8.65169 4.95193 8.02786 4.70513 7.37739 4.70513Z" fill="#A0A0A0"/>
</svg>
