<svg width="14" height="17" viewBox="0 0 14 17" fill="none" xmlns="http://www.w3.org/2000/svg">
<path d="M11.3715 9.75492C11.9037 9.75492 12.4141 9.97516 12.7904 10.3672C13.1668 10.7592 13.3782 11.2909 13.3782 11.8453V12.3435C13.3782 14.8358 10.5621 16.7227 6.68909 16.7227C2.81611 16.7227 0 14.9341 0 12.3435V11.8453C0 11.2909 0.211423 10.7592 0.587757 10.3672C0.964091 9.97516 1.47451 9.75492 2.00673 9.75492H11.3715ZM6.68909 0C7.21615 -8.18096e-09 7.73804 0.108136 8.22497 0.318235C8.71191 0.528334 9.15435 0.836281 9.52703 1.22449C9.89972 1.61271 10.1953 2.07358 10.397 2.5808C10.5987 3.08803 10.7025 3.63167 10.7025 4.18068C10.7025 4.7297 10.5987 5.27334 10.397 5.78056C10.1953 6.28778 9.89972 6.74866 9.52703 7.13687C9.15435 7.52508 8.71191 7.83303 8.22497 8.04313C7.73804 8.25323 7.21615 8.36136 6.68909 8.36136C5.62466 8.36136 4.60382 7.9209 3.85115 7.13687C3.09848 6.35284 2.67564 5.28947 2.67564 4.18068C2.67564 3.0719 3.09848 2.00852 3.85115 1.22449C4.60382 0.440463 5.62466 1.65222e-08 6.68909 0Z" fill="#A0A0A0"/>
</svg>
