<svg width="18" height="19" viewBox="0 0 18 19" fill="none" xmlns="http://www.w3.org/2000/svg">
<path d="M-3.93402e-07 9.28809C-6.10673e-07 4.31752 4.02944 0.288086 9 0.288086C13.9706 0.288085 18 4.31752 18 9.28809C18 14.2586 13.9706 18.2881 9 18.2881C4.02944 18.2881 -1.76132e-07 14.2586 -3.93402e-07 9.28809ZM7.02637 6.03125C6.64587 6.41197 6.64586 7.02945 7.02637 7.41016L8.9043 9.28809L7.02637 11.166C6.64585 11.5467 6.64588 12.1642 7.02637 12.5449C7.40707 12.9256 8.0245 12.9255 8.40527 12.5449L10.9727 9.97754C11.3534 9.59678 11.3534 8.97939 10.9727 8.59863L8.40527 6.03125C8.0245 5.65067 7.40707 5.65055 7.02637 6.03125Z" fill="#D9D9D9"/>
</svg>
