<svg width="18" height="16" viewBox="0 0 18 16" fill="none" xmlns="http://www.w3.org/2000/svg">
<path fill-rule="evenodd" clip-rule="evenodd" d="M1.09912 7.19517H4.88428C5.19002 7.19517 5.44043 7.45091 5.44043 7.76459V15.3253C5.44043 15.6376 5.19002 15.8948 4.88428 15.8948H1.09912C0.793376 15.8948 0.542969 15.639 0.542969 15.3253V7.76459C0.542969 7.45091 0.793376 7.19517 1.09912 7.19517ZM9.26709 1.52354C9.56038 0.00460523 11.9953 1.40344 12.1558 3.8521C12.2042 4.60097 12.1281 5.47277 11.9482 6.4463H15.4277C16.8748 6.50423 18.1379 7.56254 17.2455 9.30048C17.4489 10.0578 17.4793 10.9466 16.9273 11.297C16.9965 12.4924 16.6728 13.2327 16.0668 13.8177C16.0267 14.4154 15.9022 14.9467 15.62 15.355C15.1523 16.029 14.7733 15.8679 14.0373 15.8679H8.1617C7.23063 15.8679 6.7229 15.6065 6.11418 14.8266V8.14326C7.86564 7.66003 8.79671 5.21278 9.26709 3.60624V1.52354Z" fill="#A0A0A0"/>
</svg>
